<?xml version="1.0" encoding="utf-8"?>
<!-- Generator: Adobe Illustrator 23.0.3, SVG Export Plug-In . SVG Version: 6.00 Build 0)  -->
<svg version="1.1" id="Calque_1" xmlns="http://www.w3.org/2000/svg" xmlns:xlink="http://www.w3.org/1999/xlink" x="0px" y="0px"
	 viewBox="0 0 841.9 595.3" style="enable-background:new 0 0 841.9 595.3;" xml:space="preserve">
<style type="text/css">
	.st0{fill:#957250;}
	.st1{fill:#E6BD7B;}
	.st2{fill:#007580;}
	.st3{fill:#42A7C6;}
	.st4{fill:#726763;}
	.st5{fill:#D4BEB8;}
	.st6{fill:#B14C59;}
	.st7{fill:#604B39;}
	.st8{fill:#E49FAE;}
	.st9{fill:#53603C;}
	.st10{fill:#839E61;}
	.st11{fill:#FFFFFF;}
	.st12{fill:#FDCF86;}
	.st13{fill:#BD8815;}
	.st14{fill:#D59B1C;}
	.st15{fill:#A47916;}
	.st16{fill:#8C6711;}
	.st17{fill:#738752;}
	.st18{fill:#687C4C;}
	.st19{fill:#9BB771;}
	.st20{fill:#282522;}
	.st21{fill:#664C36;}
	.st22{fill:#7C5C43;}
	.st23{fill:#BDBBBA;}
	.st24{fill:#D5D4D3;}
	.st25{fill:#34312E;}
	.st26{fill:#543F2B;}
	.st27{fill:#C11F21;}
	.st28{fill:#E30D18;}
	.st29{fill:#EDEDED;}
	.st30{fill:#911A15;}
	.st31{fill:#526D30;}
	.st32{fill:#3D5423;}
	.st33{fill:#30451B;}
	.st34{fill:#A29F9D;}
	.st35{fill:#54504F;}
	.st36{fill:#6D6968;}
	.st37{fill:#103D6A;}
	.st38{fill:#134980;}
	.st39{fill:#F9B22C;}
</style>
<g id="Sticker_5">
	<g>
		<g id="XMLID_257_">
			<g>
				<path class="st0" d="M471,337.7c0.9-1.5,5.6-3.5,5.5-1.5C475.3,337.5,471.7,338.8,471,337.7z"/>
				<path class="st1" d="M453.7,323.2c7.2,2.8,12.5,7.5,17.3,14.4c-6.4,10.7-25.5,23.7-39.9,15c-7.4-4.5-11.5-12.1-10.6-22.7
					c0-0.5-0.1-0.8-0.3-1.1c1.1-0.3,2.2-0.9,2.4-1.6C426.6,316.5,446.5,320.5,453.7,323.2z"/>
				<path class="st0" d="M438.8,359.2c-12.4-0.9-25-12.5-23.6-28.5c0.1-0.7,0.7-1.3,1.4-1.7c0.3,0.5,2,0.5,3.6,0
					c0.3,0.3,0.4,0.6,0.3,1.1c-1,10.6,3.1,18.2,10.6,22.7c14.4,8.7,33.5-4.4,39.9-15c0.8,1.1,4.3-0.2,5.5-1.5c0,0.2-0.1,0.5-0.3,0.9
					C470.3,349.7,453.3,360.2,438.8,359.2z"/>
				<path class="st2" d="M416.7,329c1.2-0.6,2.9-0.7,3.6,0C418.7,329.4,417,329.5,416.7,329z"/>
				<path class="st3" d="M439.3,317.6c14.4-0.8,27.9,3.8,37.4,17.5c0.2,0.3,0.1,0.7-0.3,1.1c0.1-2-4.6-0.1-5.5,1.5
					c-4.8-6.9-10.2-11.7-17.3-14.4c-7.1-2.8-27.1-6.7-31,4.2c-0.3,0.7-1.3,1.3-2.4,1.6c-0.7-0.7-2.4-0.6-3.6,0
					c-0.1-0.1-0.1-0.2,0-0.3C420.1,319,431.8,318,439.3,317.6z"/>
			</g>
			<g>
			</g>
		</g>
		<g id="XMLID_256_">
			<g>
				<path class="st4" d="M543,168.3c-0.3,0.1-0.7,0.1-1,0.2c-0.2-0.7-0.5-1.3-0.7-1.9c1-0.2,1.9-0.4,2.9-0.5
					C548.4,165.2,545.4,167.8,543,168.3z"/>
				<path class="st5" d="M488.7,134.1c23.1-0.5,43.5,10.2,52.6,32.4c-13.5,2.6-27.9,3.5-40.3-3.7
					C489.6,156.1,489.8,145.9,488.7,134.1z"/>
				<path class="st4" d="M488.6,133.2c0,0.3,0.1,0.7,0.1,1c-2,0-4.1,0.1-6.2,0.4C483,133,488.5,132.1,488.6,133.2z"/>
				<path class="st0" d="M543,168.3c2.4-0.5,5.4-3.2,1.1-2.3c-0.9,0.2-1.9,0.4-2.9,0.5c-9-22.3-29.5-32.9-52.6-32.4
					c0-0.3-0.1-0.7-0.1-1c-0.1-1.1-5.6-0.1-6.1,1.4c0,0-0.1,0-0.1,0c-4.3,0.4-1.6-2.4,1-2.7c28.3-3,55,7.2,65,36
					c0.5,1.5-5.5,3.3-6.1,1.6c-0.1-0.3-0.2-0.7-0.4-1C542.4,168.5,542.7,168.4,543,168.3z"/>
				<path class="st5" d="M501,162.9c12.3,7.3,26.7,6.3,40.3,3.7c0.3,0.6,0.5,1.3,0.7,1.9c-13.3,2.6-27.4,4.4-40.4-0.5
					c-16.7-6.3-17.6-17.1-19.1-33.2c0-0.1,0-0.2,0-0.3c2.1-0.2,4.1-0.3,6.2-0.4C489.8,145.9,489.6,156.1,501,162.9z"/>
			</g>
			<g>
			</g>
		</g>
		<path class="st6" d="M488.1,263C488.1,263,488,263,488.1,263c-36.6-0.4-66.4,14.5-66.4,32.9c0,18.2,29.1,32.9,65,32.9
			c32.1,0,58.7-13.4,64-29.2c0.8-2.5-1.7-6-4.3-6.4C524,290.1,501.4,283.5,488.1,263z"/>
		<g id="XMLID_255_">
			<g>
				<path class="st7" d="M433.1,275.6c0.1,0,0.1,0.1,0.2,0.1c0,0,0,0,0.1,0C433.2,275.7,433.1,275.6,433.1,275.6z"/>
				<path class="st0" d="M433.4,275.7C433.3,275.7,433.3,275.7,433.4,275.7c1.5,0.6,8.3,3.3,11.5,4.4c0.8,0.3,1.7,0.6,2.8,0.9
					c9.3,0.1,17.8,0.9,22.3,1.2c0.6,0,1.1,0.1,1.7,0.1c-11.2-2.8-22.4-6-25.9-8.7L433.4,275.7z"/>
				<path class="st8" d="M494.2,287.7c6.8,1.8,12.9,5.7,17.4,11.3c1.5,1.8-3.5-0.6-4.9-1.6c-9.4-6.5-21.7-7.2-32.6-9.5
					c-5.5-1.1-19-4.6-26.4-6.9c-21.2-0.4-46.7,2.5-39.7,21.4c4.2,11.4,20.2,15.2,31.8,18.1c11.6,2.9,23.6,4.8,35.6,5.4
					c12.6,0.6,25.5-0.3,37.5-4.1c7.8-2.5,21.1-9.4,17-18.9c-0.2-0.4-0.4-0.8-0.6-1.3c-4.6-6.9-16.4-10.2-24.3-12.3
					c-11-3-21.8-6.2-33.2-7.1C480.3,284.5,488.9,286.4,494.2,287.7z"/>
				<path class="st0" d="M474.1,287.9c10.8,2.2,23.2,3,32.6,9.5c1.4,1,6.4,3.4,4.9,1.6c-4.4-5.5-10.6-9.5-17.4-11.3
					c-5.3-1.4-14-3.3-22.5-5.4c-0.6-0.1-1.1-0.1-1.7-0.1c-4.6-0.3-13-1-22.3-1.2C455.1,283.3,468.5,286.8,474.1,287.9z"/>
				<path class="st8" d="M445.7,273.6c3.6,2.8,14.7,6,25.9,8.7c11.4,0.9,22.2,4.2,33.2,7.1c7.9,2.1,19.6,5.5,24.3,12.3
					c0.3,0.4,0.5,0.8,0.6,1.3l1.5-0.5c-0.2-0.5-0.4-1-0.7-1.4c0-0.1-2.2-3.5-2.3-3.7c-4-4.8-11.2-10.1-19.5-12.3
					c-22.3-6-21.1-12.8-38.5-13.5c-9.1-0.4-23.9,1.5-36.9,4.2L445.7,273.6z"/>
				<path class="st8" d="M433.5,322.2c15.4,4.3,31.7,7,47.8,7.3c14.6,0.3,32.4-1.1,45.1-8.3c6.5-3.7,8.2-11.1,4.8-18.6l-1.5,0.5
					c4.2,9.5-9.1,16.4-17,18.9c-12,3.8-24.9,4.7-37.5,4.1c-12-0.6-24-2.5-35.6-5.4c-11.5-2.9-27.6-6.7-31.8-18.1
					c-7-19,18.5-21.8,39.7-21.4c-1.1-0.3-2-0.6-2.8-0.9c-3.2-1.1-10-3.7-11.6-4.4c-7,1.4-13.4,3.1-18.1,4.7
					c-10.8,3.7-17.8,13.3-12.8,23.4C407.7,314.7,422.1,318.9,433.5,322.2z"/>
			</g>
			<g>
			</g>
		</g>
		<g id="XMLID_254_">
			<g>
				<path class="st9" d="M350.4,179.1c0.9-0.8,2.2-0.9,3.3-0.7c-0.4,1.3-2.8,2.2-4.5,1.9C349.6,179.8,350,179.4,350.4,179.1z"/>
				<path class="st10" d="M347.5,179.1c0.3,0.7,0.9,1,1.7,1.1c-7.7,8.3-6.9,25.5-8.3,35.7c-2.5,18.3-4.5,37.1-4.5,55.6
					c0,10.8-3,21.3-4.4,32.1c-2.2,17-14.2,32.1-24.9,44.4c-2.2,2.5-4.3,5.1-6.7,7.4c-2.6,2.4-14.4,8.8-14.4,2.5c0-1.9,1.4-4,2.1-6.8
					c1.5-6.6,3.1-11.5,1.5-18.4c-3.3-14.1-15.9-23.4-17.4-38.3c-0.8-8.4-2-16.5-3.1-25c-1.1-9-3.1-18.2-5.3-27.1
					c-4.4-17.8-8.1-35.6-6-54c0.2,0,0.5,0,0.7,0c14.8-0.6,22.4-11.8,31.5-21.9c9-10.1,21.9-15.2,35.2-10.6
					C336.5,159.8,342.7,168.7,347.5,179.1z"/>
				<path class="st10" d="M353.7,178.4c-1.1-0.3-2.4-0.1-3.3,0.7c-0.4,0.4-0.8,0.8-1.2,1.2c-0.8-0.1-1.4-0.5-1.7-1.1
					c-4.8-10.4-11-19.3-22.3-23.2c-13.3-4.6-26.2,0.5-35.2,10.6c-9.1,10.1-16.6,21.3-31.5,21.9c-0.3,0-0.5,0-0.7,0
					c0.1-1.3,0.3-2.6,0.5-3.9c0.3-0.1,0.6-0.1,0.9-0.1c15.3-0.6,21.2-16.7,31.7-25.2c6.3-5.1,13.9-8.2,22-8.9
					c19.6-1.8,33.1,10.4,40.8,27.2C353.8,177.8,353.8,178.1,353.7,178.4z"/>
				<path class="st9" d="M258.3,184.5c-0.2,1.3-0.4,2.6-0.5,3.9C254.8,188.2,255.8,185.2,258.3,184.5z"/>
				<path class="st9" d="M342.3,247.5c-0.7,8.6-1.5,17.4-1.2,26.1c0.4,12.7-3.1,29.3-7.4,41.8c-5.2,15.1-12.6,23.9-22.8,35.7
					c-5.9,6.8-16,17.9-26.5,14.2c-4.1-1.5-4.7-3.7-4.1-7.8c0.5-3.5,2.7-6.9,3.4-10.4c0.9-4.7,0.6-9.8-0.7-14.3
					c-4.3-15.4-16.8-24.1-17.4-41.1c-0.7-19.8-3.8-37.4-8.5-56.6c-4.1-16.5-7.3-33-4.7-50c0.4-2.7,6.3-3.5,5.8-0.5v0
					c-2.5,0.7-3.4,3.6-0.5,3.9c-2,18.4,1.6,36.2,6,54c2.2,8.8,4.2,18,5.3,27.1c1.1,8.5,2.2,16.5,3.1,25
					c1.5,14.9,14.1,24.1,17.4,38.3c1.6,7,0.1,11.8-1.5,18.4c-0.6,2.7-2.1,4.9-2.1,6.8c0,6.3,11.8-0.1,14.4-2.5
					c2.4-2.3,4.5-4.9,6.7-7.4c10.7-12.3,22.8-27.4,24.9-44.4c1.4-10.8,4.4-21.3,4.4-32.1c0-18.5,1.9-37.3,4.5-55.6
					c1.4-10.2,0.6-27.4,8.3-35.7c1.7,0.3,4.1-0.6,4.5-1.9c1.6,0.4,2.6,1.7,0.7,3.3c-5.8,5-6.5,19.9-7.7,26.9
					C344.7,221.5,343.3,234.5,342.3,247.5z"/>
			</g>
			<g>
			</g>
		</g>
		<g id="XMLID_253_">
			<g>
				<path class="st1" d="M352.2,189.8c-6.5,18.9-9.1,39.9-8.3,59.8c0.7,19.2,5.2,36.5,19.7,49.8c8,7.3,17.3,14.1,27.3,19.6
					c-0.4-5.4,4.4-12.9,6.5-17.6c1.2-2.7,3.5-2.4,5.2-4.8c1.9-2.6,3.1-7.2,6-8.7c0.7-0.4,2.1-2.8,2-3.5c-0.5-3.3-2.2-6.2-2.8-9.4
					c-0.5-2.6-0.2-5.2-0.4-7.7c-0.6-10.1-7.2-19.2-7.5-29.3c-0.1-5.6,1.8-11.1,1.3-16.7c-0.4-5.7-3.3-10.9-5-16.4
					c-3.1-9.4,4.9-51.6,8.7-63c-4.3,1.8-8.4,3.7-12.3,5.7C374.4,157.4,359.1,169.9,352.2,189.8z"/>
				<path class="st0" d="M404.4,137c-19.9,7.9-39.9,20.4-51.5,38.9c-11.4,18.3-14.5,42.5-15.1,63.6c-0.6,20.2,1.3,42.7,15.8,58.1
					c17,17.9,41.7,31.6,65.7,37.2c15.6,3.6,32.8,4.3,49.4,3l-0.2-2.2c3.8-0.3,7.6-1.1,11.3-2.2c-17.7,2-35.7,1.6-50.8-0.8
					c-13-2.1-26-6.9-38-13.6c-10-5.5-19.3-12.2-27.3-19.6c-14.5-13.3-19-30.6-19.7-49.8c-0.7-19.9,1.8-41,8.3-59.8
					c6.9-19.9,22.2-32.4,40.5-42.1c3.8-2,8-4,12.3-5.7c6.3-2.6,13-4.8,19.8-6.5c-4,0-8.5,0.3-13.8,1.1l-0.5-1.7
					C408.3,135.5,406.4,136.3,404.4,137z"/>
				<path class="st1" d="M479.7,333.4c24.4-2.8,48.1-10.4,62.2-24.2c-12.5,6.7-25.5,10-39.1,10.7
					C496.3,326.1,488.3,330.8,479.7,333.4z"/>
				<path class="st11" d="M492.7,242.6l1.1,0.4c0.5,0.2,1,0.4,1.2,0.3c0.3-0.1,1.3-0.2,1.9-2.5c2.3-9.8-7.1-36.4-19.7-41.4
					c-7.8-3.1-18.2-3.4-25.7-0.3c-6.4,2.7-11.1,8.3-13.7,14.2c-4.9,10.8,0.9,26,11.4,30.2c3.3,1.3,6.9,1.5,10.7,0.6
					C480,239.2,488,240.8,492.7,242.6z"/>
				<path class="st0" d="M477.6,197.1c-8.7-3.4-18.6-3.4-27,0.1c-7.4,3.1-14.2,8.3-17.3,15.1c-2.1,4.6-2.3,9.9-1.2,14.9v0
					c1.9,8.4,7.7,16.2,15.2,19.2c4,1.6,8.3,1.8,12.9,0.7c21.7-5.3,26.1-2.8,28.8-1.8l4.7,1.8c0.9,0.4,2,0.7,3.2,0.5
					c0.4-0.1,0.8-0.2,1.2-0.4c0,0,0,0,0,0c1.4-0.6,3-2,3.7-5C504.5,231.5,491.5,202.6,477.6,197.1z M451.4,199.2
					c7.5-3.1,17.9-2.8,25.7,0.3c12.6,5,22,31.6,19.7,41.4c-0.5,2.3-1.5,2.5-1.9,2.5c-0.2,0-0.7-0.1-1.2-0.3l-1.1-0.4
					c-4.7-1.9-12.7-3.4-33,1.6c-3.8,0.9-7.4,0.7-10.7-0.6c-10.5-4.2-16.2-19.4-11.4-30.2C440.4,207.5,445,201.8,451.4,199.2z"/>
				<path class="st1" d="M501.9,242.4c-0.7,3-2.3,4.3-3.7,5c6-1.1,8.9-4.9,9.2-10.5c0.2-3.8-0.6-10.5-1.8-14.5
					c-4.1-13.9-6.5-20.2-17.2-30.3c-5.8-5.4-13.8-9.8-21.9-10.7c-8.1-0.9-16,0.1-23.3,3.5c-5.9,2.7-10.5,5.7-13.4,11.3
					c-2.4,4.6-3.2,12.5-2.2,17.6c0.9,4.6,2,9.4,4.4,13.5c-1.1-5-0.9-10.3,1.2-14.9c3.1-6.8,9.9-12,17.3-15.1
					c8.4-3.5,18.2-3.6,27-0.1C491.5,202.6,504.5,231.5,501.9,242.4z"/>
				<path class="st1" d="M517.6,260.8c1.4,1.5,3.4,2.3,5.3,2.8c0.8,0.2,1.6,0.4,2.4,0.6l0.5-2.6c-1.2-0.3-2-1.1-2.2-2
					c-0.2-1.1,0.5-2.2,1.6-2.9c-3.2-2.2-6.8-1.8-9.1-1.2c0,0,0,0,0,0C515.5,257.3,516.2,259.4,517.6,260.8z"/>
				<path class="st0" d="M531.4,257.4c0,0-4.7-6.6-17.5-1.6c0,0-0.4,0.3,0.1,0.3c0.1,0,1-0.3,2.2-0.6c0,0,0,0,0,0
					c2.3-0.6,5.9-1,9.1,1.2c-1.1,0.7-1.8,1.8-1.6,2.9c0.2,1,1.1,1.7,2.2,2c0.7,0.2,1.5,0.2,2.3,0.1c2.2-0.4,3.7-2,3.5-3.6
					c0-0.1,0-0.1-0.1-0.2c0-0.2-0.1-0.4-0.2-0.5H531.4z"/>
				<path class="st1" d="M542.2,256c-3.3,1.7-7.1,2.4-10.7,1.9c0,0.1,0,0.1,0.1,0.2c0.3,1.6-1.3,3.2-3.5,3.6
					c-0.8,0.1-1.6,0.1-2.3-0.1l-0.5,2.6c1.3,0.3,2.7,0.4,4.1,0.4c1.1,0,2.3-0.1,3.3,0.4c0.9,0.6,1.4,1.7,1.4,2.8
					c0,0.4,0,0.8-0.1,1.2c5.3-1.1,8.4-1.4,14.2-0.7c4.9,0.6,12.6,9.3,16.4,5.3c0-0.1,4.3-3.3,4.4-3.3c7.7-9.5,8.9-23.4,3.5-33.5
					c-0.2-0.3-0.4-0.7-0.5-1c-1.8,1.8-4.3,2.7-6.9,2.8c-2.4,0.2-4.9-0.3-7.2-0.9c-1.9,0.9-3.9,1.2-6,0.3c-3.9-1.8-2.7-7.9-3.2-11.7
					c-0.8-5.9-2-11.8-3.8-17.4c-2-6.5-8.2-13.8-2.4-19.7c2.8-2.8,6.2-3.6,9.8-3.1c-8.5-15.6-19.8-29-36.4-37.6
					c-20-10.4-43.4-16.3-66.1-16.3c-8,0-16.5,1.2-24.9,3.3c20.7,0.3,26.7,10.5,47,12.2c8.5,0.7,25.5,4.9,40.8,18.8
					c6.5,5.9,9.3,19.9,12.4,28.1c3,8,7.5,12.6,10.2,20.7c2.6,7.7,4.5,12.5,5.6,20.6c0.3,2.1,2.9,6.2,4.7,7.3c1,0.6,2,1.3,3.1,1.8
					c1.2,0.5,2.3,1,3.5,1.5c0.7,0.3,2.2,1.6,2.6,3.8v0c0.3,0.1,0.6,0.2,0.9,0.3c0,0,0.3,0.2,0,0.3c-0.3,0.1-5.1-2-8.7,2
					c0.9,0.5,1.5,1.5,1.5,2.6c-0.1,1.6-1.6,2.8-3.3,2.7C543.6,258,542.5,257.1,542.2,256z"/>
				<path class="st11" d="M553.3,188.2c-11.1-1.4-10.8,6.3-8.3,12.3c0.8,1.9,1.6,3.8,2.3,5.8c2.3,6.7,3.7,13.8,4.5,20.9
					c0.4,3.4,0.5,8.7,5.6,7.3c1.1-0.3,1.9-1.4,2.6-1.9c0.7-0.6,1.8-1.2,2.7-1.6c2.2-0.9,4.5-0.9,6.8-0.5c-2.5-6.7-4.1-13.8-6.6-20.5
					C560.1,202.4,557,195.1,553.3,188.2z"/>
				<path class="st12" d="M542.2,254.3c0,0,3-6.7,12.4-4.1v0c-0.4-2.2-1.9-3.4-2.6-3.8c-1.2-0.5-2.3-1-3.5-1.5
					c-1.1-0.5-2-1.2-3.1-1.8c-1.9-1.2-4.5-5.2-4.7-7.3c-1.1-8.1-3-12.8-5.6-20.6c-2.7-8.1-7.3-12.7-10.2-20.7
					c-3.1-8.2-5.9-22.3-12.4-28.1c-15.3-13.9-32.3-18.1-40.8-18.8c-20.3-1.7-26.3-11.9-47-12.2c-6.8,1.7-13.5,3.9-19.8,6.5
					c-3.8,11.4-11.8,53.6-8.7,63c1.8,5.5,4.6,10.7,5,16.4c0.4,5.6-1.4,11.1-1.3,16.7c0.2,10.1,6.9,19.2,7.5,29.3
					c0.1,2.6-0.1,5.2,0.4,7.7c0.6,3.2,2.3,6.2,2.8,9.4c0.1,0.7-1.3,3.2-2,3.5c-2.9,1.5-4.1,6.1-6,8.7c-1.7,2.3-4,2.1-5.2,4.8
					c-2.1,4.7-6.9,12.2-6.5,17.6c12,6.6,25.1,11.5,38,13.6c15.1,2.4,33.1,2.8,50.8,0.8c8.6-2.6,16.6-7.3,23.1-13.5
					c-9.2,0.5-18.6-0.3-28.3-2c-12.9-2.3-25.3-5.8-36.3-12.9c-6.9-4.4-16.4-10.6-12.3-19.9c4.1-9.2,14.5-7.8,22.8-6.5
					c15.3,2.3,29.1,8.6,44.8,8.3c5.5-0.1,10.4-0.5,15.6-2.4c5.8-2.1,8.6-5.8,13.2-9.4c3.6-2.8,6.4-4.8,10.8-5.8
					c0.3-0.1,0.6-0.1,0.9-0.2c0.1-0.4,0.1-0.8,0.1-1.2c0-1.1-0.5-2.2-1.4-2.8c-0.9-0.6-2.2-0.5-3.3-0.4c-1.4,0-2.7-0.1-4.1-0.4
					c-0.8-0.1-1.6-0.3-2.4-0.6c-1.9-0.5-3.9-1.4-5.3-2.8c-1.4-1.4-2.2-3.6-1.5-5.4c-1.3,0.3-2.1,0.7-2.2,0.6c-0.4,0-0.1-0.3-0.1-0.3
					c12.9-5,17.5,1.6,17.5,1.6h-0.1c0.1,0.1,0.2,0.3,0.2,0.5c3.7,0.5,7.4-0.2,10.7-1.9c-0.1-0.3-0.1-0.6-0.1-1
					C542.1,254.7,542.2,254.5,542.2,254.3L542.2,254.3z M427.7,213.8c-1-5.1-0.2-13,2.2-17.6c2.8-5.6,7.5-8.5,13.4-11.3
					c7.3-3.4,15.2-4.4,23.3-3.5c8.1,0.9,16.1,5.2,21.9,10.7c10.8,10.1,13.2,16.4,17.2,30.3c1.2,3.9,2,10.6,1.8,14.5
					c-0.3,5.6-3.3,9.4-9.2,10.5c0,0,0,0,0,0c-0.5,0.2-0.9,0.3-1.2,0.4c-1.2,0.2-2.3-0.1-3.2-0.5l-4.7-1.8c-2.7-1.1-7.1-3.5-28.8,1.8
					c-4.6,1.1-8.9,0.9-12.9-0.7c-7.5-3-13.3-10.8-15.2-19.2v0C429.8,223.2,428.6,218.3,427.7,213.8z"/>
				<path class="st0" d="M548.3,255.4c0.1-1.1-0.5-2.1-1.5-2.6c3.6-4,8.4-1.9,8.7-2c0.3-0.1,0-0.3,0-0.3c-0.3-0.1-0.6-0.2-0.9-0.3
					c-9.5-2.7-12.4,4.1-12.4,4.1l0.1,0c-0.1,0.2-0.1,0.5-0.2,0.7c0,0.3,0,0.7,0.1,1c0.3,1.1,1.4,2,2.7,2.1
					C546.7,258.2,548.2,257,548.3,255.4z"/>
				<path class="st12" d="M570.4,232.6c-4.6-0.8-8.5,3.3-12.6,5.1c2.4,0.6,4.8,1,7.2,0.9c2.5-0.2,5.1-1.1,6.9-2.8c0,0,0,0,0,0
					C571.3,234.8,570.8,233.7,570.4,232.6z"/>
				<path class="st0" d="M548.2,302.4c-11.8,6.6-24,12-37.6,13.4c-17.5,1.9-36-0.3-52.7-6.2c-8.4-3-17.9-7.9-23.8-14.6
					c-5.6-6.4-3-13.8,6-13.8c7.1,0,14.6,2.5,21.4,4.4c15.9,4.4,36.1,8,51.9,0.8c5.4,2.4,10.9,4.6,16.6,6
					C534.4,293.5,553.2,294,548.2,302.4z M547.3,206.3c-0.7-2-1.5-3.9-2.3-5.8c-2.5-6-2.8-13.7,8.3-12.3c3.6,6.9,6.8,14.2,9.5,21.7
					c2.5,6.7,4,13.8,6.6,20.5c-2.3-0.4-4.5-0.4-6.8,0.5c-0.9,0.4-1.9,1-2.7,1.6c-0.7,0.6-1.5,1.6-2.6,1.9c-5.1,1.4-5.1-3.9-5.6-7.3
					C551,220.1,549.6,213,547.3,206.3z M548.6,226.3c0.5,3.8-0.7,9.9,3.2,11.7c2,0.9,4,0.6,6-0.3c4.1-1.8,8.1-5.9,12.6-5.1
					c0.4,1.1,0.9,2.1,1.4,3.1c0,0,0,0,0,0c0.2,0.3,0.3,0.7,0.5,1c5.4,10.1,4.2,24-3.5,33.5c0,0-4.3,3.3-4.4,3.3
					c-3.8,4.1-11.5-4.7-16.4-5.3c-5.8-0.7-8.8-0.4-14.2,0.7c-0.3,0.1-0.6,0.1-0.9,0.2c-4.4,1-7.2,3-10.8,5.8
					c-4.6,3.6-7.4,7.2-13.2,9.4c-5.2,1.9-10,2.3-15.6,2.4c-15.7,0.3-29.5-6-44.8-8.3c-8.2-1.2-18.7-2.6-22.8,6.5
					c-4.1,9.3,5.4,15.6,12.3,19.9c11,7.1,23.5,10.6,36.3,12.9c9.7,1.7,19.1,2.4,28.3,2c13.6-0.7,26.7-4,39.1-10.7
					c-14.1,13.8-37.8,21.4-62.2,24.2c-3.7,1.1-7.5,1.9-11.3,2.2l0.2,2.2c7.6-0.5,15.1-1.5,22.3-2.7c23.7-4,47-13,62.6-32
					c0.1-0.1,0.2-0.3,0.3-0.4c0.1-0.2,0.1-0.3,0.1-0.5c2.9-4.9-1-9.1-6.1-10.5c-5.2-1.4-10.6-1.2-15.8-2.8
					c-4.7-1.4-9.2-3.3-13.7-5.2c0.5-0.3,1-0.6,1.5-1c5.6-4.1,9.8-8.5,16.9-9.9c7.3-1.4,8.5-1.7,15.1,1.8c1.5,0.8,3.9,2.6,5.5,3.3
					c6.2,2.8,10.1,0.5,14.4-4.4c0.1-0.1,1.6-2,1.7-2.1c4.8-6,9.7-18,7.4-27.2c-0.9-3.8-3-7.9-4.7-11.3c-2.9-5.8-4.5-12.7-6.6-18.9
					c-7.7-22.7-17.4-48.1-37.7-62.2c-35.3-24.4-81.1-30.9-121.3-17.2l0.5,1.7c5.3-0.8,9.9-1.1,13.8-1.1c8.4-2.1,16.9-3.3,24.9-3.3
					c22.8,0,46.1,5.9,66.1,16.3c16.5,8.6,27.8,22,36.4,37.6c-3.5-0.4-7,0.3-9.8,3.1c-5.7,6,0.4,13.2,2.4,19.7
					C546.6,214.6,547.8,220.5,548.6,226.3z"/>
			</g>
			<g>
			</g>
		</g>
		<g id="XMLID_252_">
			<g>
				<path class="st0" d="M448.5,230.6c1.5-6.9,9.2-12.1,17.1-11.5c1.7,0.1,3.3,0.5,4.6,1.1c-3.5,0.5-6.5,3-7.2,6.1
					c-0.8,3.8,2,7.1,6.3,7.4c3.3,0.3,6.4-1.3,8.1-3.6c0,0.9-0.1,1.7-0.3,2.6c-1.5,7-9.2,12.1-17.1,11.5
					C452.2,243.7,447,237.6,448.5,230.6z"/>
			</g>
			<g>
			</g>
		</g>
		<g id="XMLID_251_">
			<g>
				<path class="st0" d="M557.4,221.8c1.5,6.3,0.5,11.3-3,11.9c-0.6,0.1-1.8,0.2-2,0c-2.3-6.2-3.3-17.5-4.3-22.4
					c0.3-0.2,0.6-0.3,1-0.4C551.8,210.7,555.9,215.5,557.4,221.8z"/>
			</g>
			<g>
			</g>
		</g>
		<g id="XMLID_250_">
			<g>
				<path class="st13" d="M345.7,222.8c-0.6,3.5-0.7,6.7-0.2,9.8c-2.6-2.7-5.7-5.1-8.3-7.8c-8.4-8.7-11.8-21-9.3-32.4
					c3-0.1,6.1,0.2,8.8,0.7C353.8,196.3,347.6,211.8,345.7,222.8z"/>
				<path class="st14" d="M347.5,258.6c-1.2-4.5-4.7-8.4-8.5-11.6c-3.9-3.3-8.1-6.2-12.6-8.6c-3-1.6-6.4-3.3-9-5.4
					c-1.7-7.4-4.7-14.6-8.6-21.6c-5.6-10,5.1-16.8,12.8-18.3c2-0.4,4.2-0.6,6.4-0.7c-2.6,11.4,0.9,23.7,9.3,32.4
					c2.6,2.7,5.6,5.1,8.3,7.8c0.4,3.2,1.5,6.3,3.3,9.6c1.6,3,3.7,5.7,5.4,8.5c3,5,3.8,11.6-4,7.3
					C349.2,257.5,348.1,257.8,347.5,258.6z"/>
				<path class="st15" d="M331.2,262c1.2,4.5,1.1,9.3,0.7,14c-0.9-0.2-1.8,0.1-2.3,0.8c-4.8,7-11,12.4-18.4,16.4
					c2.6-4.7,4.8-9.5,5.8-14.7c1.6-8.5-0.9-14.8,0.8-23.4c1-5.1,1.2-10,0.8-14.8c1.6,2.3,3.1,4.5,4.7,6.8
					C326.4,251.8,329.7,256.6,331.2,262z"/>
				<path class="st13" d="M318.5,240.3c-0.2-2.5-0.6-5-1.1-7.4c2.6,2.1,5.9,3.8,9,5.4c4.5,2.5,8.8,5.4,12.6,8.6
					c3.8,3.2,7.4,7.1,8.5,11.6c-0.4,0.5-0.7,1.1-0.7,1.7c0.1,8.7,6.5,15.4,5.9,24.2c-0.6,8.8-6,15.6-13.2,20.6
					c1.9-9.9-0.2-19.4-6.1-28.2c-0.3-0.5-0.9-0.7-1.4-0.9c0.3-4.7,0.5-9.4-0.7-14c-1.4-5.4-4.7-10.2-8-14.9
					C321.6,244.8,320.1,242.5,318.5,240.3z"/>
				<path class="st16" d="M311.8,228.1c-1.3-5.1-3.5-9.9-6.9-14.2c-17.2-22.2,39.5-38.8,47.6-13.6c2.5,7.9-0.9,15.4-2,23.2
					c-0.9,6.2,0.5,11,2.7,15.4l-2.7,0.3c-1.1-2.5-2.9-4.7-4.9-6.7c-0.5-3.1-0.3-6.3,0.2-9.8c1.8-10.9,8.1-26.4-8.9-29.8
					c-2.7-0.5-5.8-0.8-8.8-0.7c-2.2,0.1-4.4,0.3-6.4,0.7c-7.7,1.5-18.4,8.3-12.8,18.3c3.9,7,7,14.1,8.6,21.6
					c-1.7-1.4-3.1-3.1-3.8-5.2L311.8,228.1z"/>
				<path class="st16" d="M312.3,258.4c0.7-7.4,1.8-13.8,1.1-21.3c-0.3-3.1-0.8-6.1-1.6-9l1.8-0.4c0.7,2.1,2.1,3.7,3.8,5.2
					c0.5,2.4,0.9,4.9,1.1,7.4c0.4,4.8,0.2,9.7-0.8,14.8c-1.7,8.6,0.7,14.9-0.8,23.4c-1,5.2-3.2,10-5.8,14.7
					c7.5-4,13.6-9.4,18.4-16.4c0.5-0.7,1.5-0.9,2.3-0.8c0.6,0.1,1.1,0.4,1.4,0.9c5.9,8.8,8,18.3,6.1,28.2c7.2-5,12.7-11.7,13.2-20.6
					c0.6-8.8-5.8-15.6-5.9-24.2c0-0.6,0.3-1.2,0.7-1.7c0.7-0.7,1.7-1.1,2.7-0.6c7.8,4.3,7-2.3,4-7.3c-1.8-2.9-3.8-5.6-5.4-8.5
					c-1.8-3.3-2.8-6.4-3.3-9.6c2,2,3.8,4.2,4.9,6.7l2.7-0.3c2.4,4.9,5.9,9.5,8.3,15.1c3.7,8.5-2.1,11.9-9.6,9.6
					c1.6,9.5,7.8,16.8,4.5,27.4c-2.9,9.3-10.4,16-19.2,20.7c-1.6,0.8-4.4-0.1-3.7-2.1c3.1-9.5,2.5-18.7-2.3-27.2
					c-6.4,8.1-14.6,14.1-24.7,17.9c-1.9,0.7-4-1.3-3-3c3.6-6.1,7.5-12.5,8.8-19.5C313.4,271.3,311.6,264.9,312.3,258.4z"/>
			</g>
			<g>
			</g>
		</g>
		<g id="XMLID_249_">
			<g>
				<path class="st0" d="M393.5,158c1-1.9,7-3.2,5.6-0.7c-0.2,0.3-0.3,0.6-0.4,0.9l0,0c-0.6,0.3-1.3,0.5-1.8,0.5
					c-1.2-0.1-2.4-0.2-3.6-0.3C393.4,158.4,393.4,158.2,393.5,158z"/>
				<path class="st1" d="M380.8,302.4c-2-1.8-3.8-3.7-5-6c0.6-0.8,0.9-1.6,1.2-2.5c2.9-5.4-0.3-12.8-4.1-14
					c-2.3-0.7-4.4-1.2-6.6-1.3c1.1-3.3,0.8-7,0-10.4c-0.9-3.9-2.3-7.8-2.4-11.8c-0.1-2.9,0.5-5.8,0.1-8.8c-0.7-5.6-4.9-9.9-9.2-13.7
					c1.7-0.9,3.4-1.9,5.1-2.9c2.8-1.7,4.5-4.6,4.8-7.5c1.7-5.9-0.6-14.3-5.4-17c-5.7-3.1-12.6-2.4-18.9-0.6
					c-4.1-6.1-8.5-12.1-14.7-15.9c-1.8-1.1-3.7-2-5.7-2.4c-2.1-0.4-4.3-0.3-6.4-0.1c-1.9,0.1-3.8,0.3-5.8,0.4
					c6.7-4.2,13.3-8.7,20.1-12.7c20.4-12.3,41.8-18.3,65.3-16.9c-14.6,27.8-8,59.7-4.1,89.2c4.1,30.7,9.5,58.2,28,83.4
					c-2.9-0.6-5.7-0.9-8.5-1c-5.8-1.5-11.7-2.6-17.7-2.7c-0.5,0-0.9,0-1.4,0c1.1-0.8,2.1-1.8,2.3-2.7c0.4-1.9,1.8-4.1,1.2-6
					c-1.2-3.9-1.2-6.3-4-9.2C386.6,307,383.5,304.8,380.8,302.4z"/>
				<path class="st0" d="M425.1,333.2c-1.1,1.4-4.3,2.6-5.5,1.1c-0.3-0.4-0.7-0.9-1-1.3c-0.5-0.6-1-1.3-1.4-1.9
					c1.4,0.3,2.9,0.7,4.3,1.1L425.1,333.2z"/>
				<path class="st0" d="M418.7,333c-3.3-1-6.6-2-9.9-2.9c2.8,0,5.6,0.3,8.5,1C417.7,331.8,418.2,332.4,418.7,333z"/>
				<path class="st1" d="M425.1,333.2l-3.6-1c-1.4-0.5-2.9-0.8-4.3-1.1c-18.6-25.2-23.9-52.7-28-83.4c-4-29.6-10.5-61.4,4.1-89.2
					c1.2,0.1,2.4,0.1,3.6,0.3c0.5,0,1.2-0.2,1.8-0.5c-14.2,27.4-7.5,58.7-3.6,87.8c4.2,31.7,10,59.9,30.2,85.6
					C425.7,332.1,425.5,332.7,425.1,333.2z"/>
				<path class="st12" d="M393.1,318.9c0.6,1.9-0.8,4.1-1.2,6c-0.2,0.9-1.1,1.8-2.3,2.7c-9,0.2-18.3,3.3-24.3,10
					c-8,9.1-8.2,22.7-14.5,33.1c-1.5,2.4-3.3,4.7-5.9,6c-4.3,2.2-9.7,1-13.6-1.7c-2.2-1.5-4.1-3.5-5.7-5.6
					c-1.2-10.2,2.3-21,7.4-29.7c3.3-5.5,7.2-10.7,11.2-15.8c5.5-1.1,9.5-1.4,16.7-4c2.5-0.9,9-4.7,10.8-6.6c1.5-1.5,3.1-3.3,4.5-4.9
					c2.5-2.9,3.6-4.2,4.5-6c2.7,2.4,5.9,4.6,8.3,7.2C391.9,312.6,391.9,315,393.1,318.9z"/>
				<path class="st1" d="M340.5,206.1c6.3-1.8,13.2-2.5,18.9,0.6c4.8,2.6,7.1,11.1,5.4,17c0.4-3.5-1.2-7.1-5.1-9
					c-7.6-3.8-22.2,3.1-28.5,6.8c-14.8,8.9-24.5,24.7-40.2,32.4c-10.5,5.2-21.4,11.3-32.2,4.3c-7.9-5.1-14-14-14.9-23.5
					c-0.8-8,3.3-15.7,9.5-21.1c-3.3,5.4-4.2,12.3-2.2,18.3c2.5,7.5,9.3,13.4,17.2,14.8c9,1.6,18.2-2.5,25.4-8
					c7.2-5.5,13.2-12.6,20.2-18.4c7.3-6,15.7-10.7,24.7-13.6C339.2,206.5,339.8,206.3,340.5,206.1z"/>
				<path class="st12" d="M354.8,234c4.3,3.8,8.5,8.1,9.2,13.7c0.4,2.9-0.2,5.8-0.1,8.8c0.1,4,1.5,7.9,2.4,11.8
					c0.8,3.4,1.1,7.1,0,10.4c-1.4-0.1-2.8,0-4.3,0.4c-14.5,3-28,10.4-38.4,20.8c-6.8,6.9-12.4,15.1-20.4,20.6
					c-8,5.5-19.7,7.5-27,1.2c-2.4-2.1-4.1-4.8-5.4-7.7c-2.2-4.4-3.7-9.3-3.5-14.2c0.1-1.9,0.4-3.7,1-5.5
					c4.1-5.3,10.1-10.6,17.8-13.9c13-5.5,27.1-16.9,35.8-24.3c5.5-4.7,11.4-8.8,17.3-13.1C344.2,239.2,349.5,236.8,354.8,234z"/>
				<path class="st12" d="M340.5,206.1c-0.6,0.2-1.3,0.4-1.9,0.6c-9,3-17.4,7.6-24.7,13.6c-7.1,5.8-13,12.8-20.2,18.4
					c-7.3,5.5-16.4,9.6-25.4,8c-7.9-1.4-14.7-7.3-17.2-14.8c-2-6-1.1-12.9,2.2-18.3c3.1-2.7,6.7-4.9,10.4-6.2
					c6.8-2.4,13.7-3.9,20.4-6.6c8.4-3.4,16.2-7.9,23.8-12.7c1.9-0.1,3.8-0.3,5.8-0.4c2.1-0.1,4.3-0.3,6.4,0.1c2,0.4,3.9,1.3,5.7,2.4
					C332,194.1,336.4,200,340.5,206.1z"/>
				<path class="st1" d="M361,319.9c-7.2,2.6-11.2,3-16.7,4c0.6-0.7,1.1-1.5,1.7-2.2c3.1-4,6.3-8,9.9-11.6
					c5.3-5.3,10.8-7.3,17.1-11.2c1.1-0.7,2-1.6,2.7-2.5c1.2,2.3,3,4.2,5,6c-0.8,1.8-2,3.1-4.5,6c-1.3,1.6-3,3.4-4.5,4.9
					C370,315.2,363.5,319,361,319.9z"/>
				<path class="st1" d="M329.4,380.9c-2.1-3.6-3.3-7.6-3.8-11.6c1.7,2.1,3.5,4,5.7,5.6c3.9,2.7,9.3,3.9,13.6,1.7
					c2.5-1.3,4.4-3.6,5.9-6c6.3-10.4,6.5-24,14.5-33.1c5.9-6.8,15.2-9.8,24.3-10c0.5,0,0.9,0,1.4,0c6,0,11.9,1.2,17.7,2.7
					c-18.5-0.3-34.5,11.6-40.1,31.6c-2.2,7.8-3.5,15.5-8.3,22.3C351.6,396.4,335.9,392.2,329.4,380.9z"/>
				<path class="st0" d="M325.7,369.3c0.5,4,1.7,7.9,3.8,11.6c6.5,11.3,22.2,15.5,30.8,3.1c4.8-6.8,6.1-14.5,8.3-22.3
					c5.6-20,21.6-31.8,40.1-31.6c3.3,0.9,6.6,1.9,9.9,2.9c0.3,0.4,0.7,0.9,1,1.3c1.1,1.5,4.4,0.3,5.5-1.1c2.7,0.8-1.9,3.8-3.9,3.2
					c-15.9-4.9-30.9-0.9-41.5,12.4c-6.8,8.6-6.3,20.1-10.4,29.8c-4,9.5-15.1,20.5-26.6,18.6c-13.4-2.2-21.3-14.9-22.8-27.1
					c-0.3-1.9-0.3-3.7-0.3-5.6l2.3-0.3C323.2,365.9,324.4,367.7,325.7,369.3z"/>
				<path class="st1" d="M351.7,287.6c-11.9,5.8-19,18.1-27.9,27.3c-10.6,11.1-26.3,24.6-42.7,24c-16.4-0.6-21.4-18.8-19.1-31.8
					c0.6-3.6,2.7-8.2,6.3-12.8c-0.6,1.8-1,3.7-1,5.5c-0.2,4.9,1.3,9.8,3.5,14.2c1.4,2.8,3.1,5.6,5.4,7.7c7.3,6.3,19.1,4.4,27-1.2
					c8-5.5,13.6-13.8,20.4-20.6C334,289.4,347.5,282,362,279c1.5-0.3,2.9-0.4,4.3-0.4c2.1,0.1,4.2,0.6,6.6,1.3
					c3.8,1.2,6.9,8.6,4.1,14c0.7-2.7-0.2-5.8-3.1-8.5C368.2,280.3,357.4,284.8,351.7,287.6z"/>
				<path class="st0" d="M323.8,314.9c8.9-9.2,16-21.5,27.9-27.3c5.7-2.8,16.5-7.2,22.2-2c2.9,2.7,3.8,5.7,3.1,8.5
					c-0.2,0.9-0.6,1.7-1.2,2.5c-0.7,0.9-1.6,1.8-2.7,2.5c-6.3,3.9-11.8,5.9-17.1,11.2c-3.6,3.6-6.8,7.6-9.9,11.6
					c-0.6,0.8-1.2,1.5-1.7,2.2c-4,5.1-7.9,10.2-11.2,15.8c-5.2,8.7-8.7,19.5-7.4,29.7c-1.3-1.6-2.5-3.4-3.7-5.1l-2.3,0.3
					c0.4-12.8,7.4-24.4,15-34.7c8.9-12,18.2-24.8,31.8-31.9c3.6-1.9,7.2-2.7,5.8-7.3c-1.8-5.5-8.6-3.6-13.1-2.4
					c-9.8,2.5-15,9.9-21.1,17.2c-13.9,16.9-39.1,42.5-64,37.5c-11-2.2-17.1-15.3-18.6-25.4c-1.7-11.6,1.6-19.4,9.9-28.1
					c8-8.4,11.9-8.8,22.2-14.4c7.1-3.8,34.2-24.9,47.4-34.8c5.1-3.9,11.3-5.7,16.2-9.5c3.1-2.3,5.7-4.2,6.3-5.4
					c3-6.5-2.4-7.7-9.5-6.4c-5.6,1.1-11.3,4.6-15.9,7.7c-14.4,9.6-24.1,24.3-40.2,31.7c-11.5,5.2-23,11-35.3,4.7
					c-11.5-5.9-20.2-19.4-18.5-32.4c1.3-10.2,10.8-20.9,19.8-25.6c6.7-3.4,14.5-4.6,21.5-7c9.4-3.3,17.7-8.4,26-13.9
					c13.9-9.1,27.5-18.6,43.3-24.2c16.4-5.9,33.9-6.7,51.1-5.2c2.7,0.2,0.8,2.4-1.2,3.5c0.1-0.3,0.3-0.6,0.4-0.9
					c1.4-2.5-4.6-1.3-5.6,0.7c-0.1,0.2-0.2,0.3-0.2,0.5c-23.4-1.4-44.8,4.6-65.3,16.9c-6.8,4.1-13.4,8.5-20.1,12.7
					c-7.6,4.8-15.4,9.3-23.8,12.7c-6.7,2.7-13.6,4.2-20.4,6.6c-3.7,1.3-7.3,3.4-10.4,6.2c-6.1,5.4-10.3,13.1-9.5,21.1
					c0.9,9.4,7,18.3,14.9,23.5c10.8,7,21.7,0.8,32.2-4.3c15.7-7.7,25.4-23.5,40.2-32.4c6.3-3.8,20.8-10.6,28.5-6.8
					c3.9,1.9,5.5,5.6,5.1,9c-0.3,2.9-2,5.8-4.8,7.5c-1.7,1-3.4,2-5.1,2.9c-5.3,2.8-10.6,5.2-15.7,8.9c-5.8,4.3-11.8,8.4-17.3,13.1
					c-8.7,7.4-22.8,18.8-35.8,24.3c-7.8,3.3-13.8,8.5-17.8,13.9c-3.5,4.6-5.6,9.2-6.3,12.8c-2.3,13,2.7,31.2,19.1,31.8
					C297.5,339.5,313.1,325.9,323.8,314.9z"/>
			</g>
			<g>
			</g>
		</g>
		<g id="XMLID_248_">
			<g>
				<path class="st15" d="M389,236.1c-1,4.8-1.1,9.6-0.3,14.2c-2.9-3.9-6.7-7.3-9.7-11.2c-8.8-11.1-12-26.2-8.2-39.7
					c2.7-0.3,5.4-0.3,7.9,0.4C397.9,204.7,391.7,223.4,389,236.1z"/>
				<path class="st13" d="M393.5,280.5c-1.3-0.8-3-0.1-3.8,1.1l-0.9-0.2c-0.4-6.2-4.5-11.6-8.9-16c-4-4.1-8.4-7.7-13.2-10.9
					c-3.5-2.3-7.4-4.7-10.2-7.7c-1.1-8.4-3.4-16.8-7.2-24.6c-5.9-12.1,4.3-20,13.1-21.3c2.8-0.4,5.6-1,8.4-1.3
					c-3.8,13.5-0.6,28.7,8.2,39.7c3.1,3.8,6.8,7.3,9.7,11.2c0.6,3.5,1.6,7,3.2,10.3c1.6,3.6,3.7,7.1,5.5,10.6
					C400.6,277.4,402.1,286,393.5,280.5z"/>
				<path class="st13" d="M370.8,282.5c1.2,5.7,0.7,11.5,0.1,17.3c-1-0.1-2,0.2-2.5,0.9c-5.9,7.9-13.8,15.3-22.5,19.5
					c3.1-5.3,7-12.7,8.4-18.7c2.2-9.9-0.4-18.4,1.5-28.6c1.1-5.8,1.6-12,1.4-18.4c1.9,3.4,3.8,6.7,5.8,10.1
					C366.2,270.2,369.5,276.1,370.8,282.5z"/>
				<path class="st14" d="M357.1,254.5c-0.1-2.6-0.3-5.2-0.6-7.8c2.7,3.1,6.6,5.4,10.2,7.7c4.8,3.2,9.2,6.8,13.2,10.9
					c4.4,4.5,8.4,9.9,8.9,16l0.9,0.2c-0.4,0.5-0.6,1-0.6,1.5c-0.3,10.2,5.3,19,4.1,29.2c-1.1,10.3-8.7,16.9-17.2,22.3
					c2.6-11.5,3.2-23.2-3-33.8c-0.4-0.6-1.3-1-2.2-1.1c0.6-5.7,1.1-11.6-0.1-17.3c-1.3-6.4-4.6-12.3-7.9-18
					C360.9,261.2,359,257.8,357.1,254.5z"/>
				<path class="st16" d="M355.7,272.8c-1.9,10.2,0.7,18.7-1.5,28.6c-1.3,6-5.2,13.4-8.4,18.7c8.7-4.2,16.6-11.6,22.5-19.5
					c0.5-0.7,1.5-1,2.5-0.9c0.9,0.1,1.8,0.5,2.2,1.1c6.2,10.6,5.6,22.3,3,33.8c8.5-5.4,16.1-12,17.2-22.3
					c1.1-10.3-4.5-19.1-4.1-29.2c0-0.5,0.2-1,0.6-1.5c0.9-1.2,2.5-1.9,3.8-1.1c8.6,5.4,7.1-3.1,3.9-9.2c-1.8-3.5-3.9-7-5.5-10.6
					c-1.5-3.3-2.6-6.8-3.2-10.3c-0.8-4.7-0.7-9.5,0.3-14.2c2.6-12.7,8.9-31.4-10.3-36.3c-2.6-0.6-5.2-0.7-7.9-0.4
					c-2.8,0.3-5.6,0.9-8.4,1.3c-8.9,1.3-19,9.2-13.1,21.3c3.8,7.9,6.2,16.3,7.2,24.6c0.3,2.6,0.5,5.2,0.6,7.8
					C357.3,260.8,356.8,267,355.7,272.8z M352.7,252.3c-0.5-10-2.6-19.6-8-27.8c-17.5-27.1,44.3-43.2,51.8-13.1
					c2.4,9.4-1.6,18.1-3.3,27.2c-2.7,15.1,5.9,23.5,10.5,36.5c3.6,10.2-2.9,13.8-10.7,10.7c1.3,11.2,7.6,20.1,3.5,32.4
					c-3.6,10.7-11.9,18.2-21.6,23.1c-1.7,0.9-4.7-0.4-3.9-2.7c3.8-11,3.5-21.8-1.2-32.1c-7.2,9.2-16.4,15.6-27.4,19.6
					c-2,0.7-4.2-1.7-3.1-3.7c4.2-6.9,8.7-14.2,10.4-22.3c1.5-7.5-0.1-15.1,0.9-22.6C351.7,268.6,353.2,261.1,352.7,252.3z"/>
			</g>
			<g>
			</g>
		</g>
		<g id="XMLID_247_">
			<g>
				<path class="st15" d="M560.2,171.9c-1.4-3.9-3.1-7.8-6.2-10.5c-2.6-2.3-5.9-3.5-8.9-5.2c-4.6-2.7-8.6-6.6-11.3-11.4
					c7.7,1,15.2,3,21,7c5.2,3.5,8.3,9.7,9.9,15.6c0.5,1.9,2.7,17.9,0,18.2c0,0-0.1-0.1-0.4-0.3C563.2,180.8,561.9,176.3,560.2,171.9
					z"/>
				<path class="st13" d="M530,152c0.3,2.2-1,4.2-1.5,6.3c-1.2,0.1-2.4,0.7-2.7,1.7c-5.5,15.8-15.3,28.3-28.9,37.1
					c0-1.1,0.1-2.3,0.1-3.4c4.1-5.1,7.7-10.9,9.4-17.3c2.1-7.6,1.6-16-1.3-23.4c-1-2.5-2.2-4.9-4.1-6.8c-1.3-1.3-2.8-2.4-4.4-3.2
					c5.2,0.2,10.3,0.5,15.4,0.6c3.8,0.1,8.1,0.2,12.5,0.4c0.2,0.2,0.5,0.4,0.7,0.6c1.3,1.2,2.3,2.7,3.3,4.2
					C529.1,149.8,529.8,150.8,530,152z"/>
				<path class="st15" d="M524.5,144c3.1,0.2,6.3,0.4,9.4,0.8c2.7,4.7,6.7,8.7,11.3,11.4c3,1.7,6.3,2.9,8.9,5.2
					c3,2.7,4.7,6.7,6.2,10.5c1.6,4.4,3,8.8,4.1,13.4c-1.8-1.8-10.1-10.5-11.5-11.3c-2.8-1.7-6.6-2.1-9.7-3.1
					c-6.6-2.2-9.3-4.7-12.3-11.3c-0.4-0.9-1.4-1.3-2.4-1.2c0.6-2.1,1.9-4.1,1.5-6.3c-0.2-1.2-0.8-2.2-1.5-3.2c-1-1.5-2-3-3.3-4.2
					C524.9,144.4,524.7,144.2,524.5,144z"/>
				<path class="st16" d="M528.8,164.8c-6.7,16-17.8,29-32.8,37.5c-1.5,0.8-3.7-0.2-3.5-2.1c0.1-1.5,0.2-3,0.2-4.5l2.5,0
					c0.6-0.7,1.1-1.4,1.7-2c0,1.2,0,2.3-0.1,3.4c13.6-8.8,23.4-21.4,28.9-37.1c0.3-0.9,1.5-1.6,2.7-1.7c1-0.1,2,0.3,2.4,1.2
					c3,6.7,5.7,9.2,12.3,11.3c3.1,1,6.9,1.4,9.7,3.1c1.5,0.9,9.7,9.6,11.5,11.3c0.3,1.1,0.6,2.2,0.8,3.3l-0.4,1.8
					c-5.8-1.7-10.3-11-15.6-13.6c-5-2.5-10.2-2.2-14.8-5.7C532.1,169.4,530.3,167.2,528.8,164.8z"/>
				<path class="st13" d="M457,147.1c-4.1,18.4-13.4,35.6-26.3,49c-2,2.1-4.1,4.1-6.5,5.7c-3.6,2.4-7.7,3.9-11.7,5.4l0,0.1
					c-4.4,1.3-8.9,2.1-13.5,2.6c-4.6,0.3-9.6,0.2-14.7,0c5.2-2.5,9.8-6.5,13-11.5c2.4-3.9,4-8.2,5.3-12.5c1-3.4,2-6.9,4-9.7
					c1-1.4,2.3-2.6,3.7-3.6c0.6-0.2,1.1-0.4,1.6-0.6c5.1-2.3,9.5-6.8,14.2-10C435.5,155.6,446.3,150.5,457,147.1z"/>
				<path class="st14" d="M430.7,196.1c13-13.3,22.2-30.6,26.3-49c1.6-0.5,3.3-1,4.9-1.5c11.1-3.1,22.9-3.1,34.6-2.6
					c1.6,0.8,3.1,1.9,4.4,3.2c1.8,1.9,3.1,4.3,4.1,6.8c2.9,7.4,3.4,15.8,1.3,23.4c-1.8,6.4-5.3,12.1-9.4,17.3
					c0.1-12.9-1.8-26.3-6.5-38.4c-0.7-1.7-2.5-2.4-3.9-1.1c-21.8,20.3-45.1,44.7-74,53l0-0.1c4.1-1.5,8.2-2.9,11.7-5.4
					C426.6,200.1,428.7,198.1,430.7,196.1z"/>
				<path class="st15" d="M410.2,172.5c-1.4,1-2.7,2.2-3.7,3.6c-2.1,2.8-3,6.3-4,9.7c-1.3,4.3-2.9,8.7-5.3,12.5
					c-3.1,5-7.7,9-13,11.5c-11.1-0.2-22.5-0.2-30.5,6c-9.5,7.3-0.6,11.7-7,12c-7.1-3.1-11.8-12.2-14.5-17.8
					c-12.2-24.6-23.6-16.9-20.8-27.6c2.1-7.9,18.3-9.7,25.2-8.4c4.8,0.9,30.3,15.3,44.2,10.4c3.3-1.2,4-1.9,6.3-4.2
					c3.8-3.8,7.3-4.4,12.3-5.4C402.9,174,406.8,173.7,410.2,172.5z"/>
				<path class="st16" d="M398.4,214.2c-4.7,0.3-14.9-0.6-24.4,0l-0.1-1.6c3.6-0.3,7.1-1.2,10.4-2.8c5.1,0.1,10.1,0.3,14.7,0
					c4.6-0.5,9.2-1.3,13.5-2.6c28.9-8.3,52.2-32.7,74-53c1.4-1.3,3.2-0.6,3.9,1.1c4.7,12,6.6,25.4,6.5,38.4c-0.5,0.7-1.1,1.4-1.7,2
					l-2.5,0c0.3-12.3-1.5-24-5.5-35.5C461.8,183.9,434,210.8,398.4,214.2z"/>
				<path class="st16" d="M306.7,188.8c-2.7-8.2,2.8-14.7,6.7-17.1c11.3-7,28,0,54.7,8.6c4.2,1.4,9.2,0.5,13-1.9
					c2.2-1.4,2.6-3.3,4.5-4.5c3.7-2.5,8.3-2.8,12.6-3.7c7.1-1.5,12.2-2.7,18.2-7.1c10.2-7.5,20.9-13.2,32.6-17.9
					c16.4-6.7,32.2-7,49.7-6.6c16.6,0.4,31.9,0.8,48.1,5c9,2.4,15.2,6.4,18.7,15.4c3.6,9.5,5.9,19.9,3.6,30.1
					c-0.2,1.1-1.3,1.7-2.3,1.8c-0.7,0-1.4-0.1-2-0.3l0.4-1.8c-0.2-1.1-0.5-2.2-0.8-3.3c0.2,0.2,0.4,0.3,0.4,0.3
					c2.7-0.4,0.5-16.4,0-18.2c-1.6-5.9-4.7-12.1-9.9-15.6c-5.8-3.9-13.3-5.9-21-7c-3.1-0.4-6.3-0.7-9.4-0.8
					c-4.4-0.3-8.7-0.3-12.5-0.4c-5.1-0.1-10.2-0.4-15.4-0.6c-11.7-0.4-23.5-0.4-34.6,2.6c-1.6,0.5-3.2,0.9-4.9,1.5
					c-10.8,3.4-21.6,8.5-30.9,14.8c-4.7,3.1-9.1,7.7-14.2,10c-0.5,0.2-1.1,0.5-1.6,0.6c-3.4,1.2-7.3,1.5-10.8,2.2
					c-5,1-8.5,1.6-12.3,5.4c-2.3,2.3-3,3.1-6.3,4.2c-13.9,4.9-39.4-9.5-44.2-10.4c-6.8-1.3-23,0.5-25.2,8.4
					c-2.9,10.7,8.6,2.9,20.8,27.6c2.8,5.6,7.5,14.7,14.5,17.8c6.3-0.3-2.6-4.7,7-12c8-6.1,19.4-6.2,30.5-6
					c-3.3,1.6-6.8,2.5-10.4,2.8l0.1,1.6c-11.4,0.7-21.8,3.6-20.9,13.3c0.1,1.5-5.1,5.6-8.5,3.7c-11.4-6.2-14.4-13.1-16.5-18.6
					C320.6,192.5,309.4,197.2,306.7,188.8z"/>
			</g>
			<g>
			</g>
		</g>
		<g>
			<g id="XMLID_246_">
				<g>
					<path class="st17" d="M497.5,140.3c0.3,1.1,0.7,2.2,0.6,3.3c0,1.1-1.2,4.8-4.8,6l0.1,1.7c-15.3,1.1-30.5-2.1-44.7,6
						c-17.7,10-29.2,23.2-46.6,33.9c-22,13.5-45.3,13.5-67.1,1.2c-1.7-1-3.4-2.3-5.1-3.6c-1.6-1.8-3-3.8-4.2-5.8
						c-2.3-3.7-4.6-7.7-5.2-12c-0.6-4.4,0.7-9.3,4.2-11.8c1.5-1.1,3.3-1.6,5.1-2.1c3.7,2,7.4,5.6,11.5,7.9c7,3.8,16.3,6.1,23.9,6.4
						c6.5,0.3,9.8-1.4,15-5.5c5.6-4.3,10.3-9.6,17.5-10.8c25.9-4.1,44-25.7,67.1-28.7c0.5-0.1,1.1-0.1,1.6-0.1
						c2.8-0.2,5.7,0.2,8.7,0.7c5,0.9,10,2.3,14.9,2.8c0,0.1,0.1,0.2,0.1,0.3c0.2,1.1,0.3,2.3,0.9,3.2c1.2,2.2,4.1,2.6,5.5,4.7
						C496.9,138.5,497.2,139.4,497.5,140.3z"/>
					<path class="st18" d="M502.3,150.1c-2.9,0.7-5.9,1-8.9,1.3l-0.1-1.7c3.6-1.2,4.8-4.9,4.8-6c0-1.1-0.3-2.2-0.6-3.3
						c-0.3-0.9-0.6-1.8-1.1-2.5c-1.4-2-4.3-2.5-5.5-4.7c-0.6-1-0.7-2.1-0.9-3.2c0-0.1-0.1-0.2-0.1-0.3c2.5,0.3,4.9,0.3,7.3,0
						c11.7-1.8,21.3-7.4,32.8-6.9c5.5,0.3,13.6,1.7,18.5,5c6.3,4.2,15.5,15.6,15.8,21c0.6,8.8-3,6.2-7.8,4.8
						c-5.6-1.7-5.2,0.1-9.2-0.7C530.8,146.9,519.7,146.2,502.3,150.1z"/>
					<path class="st9" d="M486.9,126.9c1,0.2,2.7,1.6,3.1,2.7c-4.9-0.5-10-1.9-14.9-2.8l0-0.3C478.5,126.1,484.2,126.4,486.9,126.9z
						"/>
					<path class="st10" d="M490.9,86.9c22.6,1.5,31.1,17.5,44.4,32.2c-5.1-0.6-11.2,0.2-14.9,0.7c-9.8,1.1-13.7,4.2-23.7,5.7
						c-9.9,1.5-24.6-4.3-34.8-2.6c-3.6-1.7-4.5-2.8-5.4-6.8c-0.8-3.7-1.9-5.4-4.4-7.9c-2.6-2.7-6-4.1-9.4-5.3
						c-5.8-2.1-11.2-2-17.3-1.2c-2.8,0.4-7.6,2.1-10.4,2.1c-2.8-0.1-6.1-0.1-7.2-3.2c-0.4-1.8,15.3-22.4-0.1-31.1
						c-8.6-4.8-30.6-4.3-42.5-0.7c22.9-11.9,56.8-5,78.1,5.6c4,2,11.4,5.5,14.2,7.6c1,0.8,3.5,2.8,6.1,3.8
						C474.7,89.9,482.9,86.3,490.9,86.9z"/>
					<path class="st10" d="M362.6,137.3c3.8-6.7-10.1-2.9-14-3.1c-0.8-16.8,25.7-2.5,31.7-3.6c1.7-0.3,4.3-1.4,6-1.6
						c3.6-0.4,7.8,4.7,10.9,6.6c3.1,1.9,6,4.3,9.4,5.4c2.9,1,6,1.1,9,1.1c1.9,0,3.9,0.1,5.8-0.2c-8.3,4.4-17.1,8.2-26.6,10
						c-0.6,0.1-1.2,0.2-1.8,0.4l-0.1-0.6c-1.3,0-2.5-0.1-3.8-0.4c-1.6-0.3-7.9-1.9-8.5-2.9c-1-1.4,5.8-6.4,4.3-7.2
						c-1.5-0.8-8.4,1.9-12.5,1c-2.3-0.5,5-6.4,2.9-7.2C372.2,134,360.9,140.2,362.6,137.3z"/>
					<path class="st9" d="M342.4,160.7c6.2,5.3,13.9,5.8,21.6,6.3c5.9,0.4,9.6-1,14.1-4.9c6.1-5.3,8.8-8.3,14.7-9.8
						c0.6-0.2,1.2-0.3,1.8-0.4c9.5-1.7,18.3-5.6,26.6-10c14-7.4,26.7-16.3,40-19c0.2-0.1,0.4-0.1,0.7-0.1c1.1,0.5,2.5,1.1,4.3,1.9
						l0.1,1.5c-0.5,0-1.1,0.1-1.6,0.1c-23.1,3-41.2,24.6-67.1,28.7c-7.2,1.1-11.9,6.4-17.5,10.8c-5.2,4.1-8.6,5.8-15,5.5
						c-7.7-0.3-17-2.6-23.9-6.4c-4.1-2.3-7.8-5.9-11.5-7.9c-3.5-1.9-6.9-2.5-10.8,0.7c-2.4-0.2-4.7-0.1-6.9,0.3
						c0.5-0.6,1-1.3,1.6-1.9c4.9-5.7,12.6-6.5,19.4-3.6C337,154.1,339.2,157.9,342.4,160.7z"/>
					<path class="st18" d="M318.9,157.6c3.9-3.1,7.4-2.6,10.8-0.7c-1.7,0.5-3.6,1-5.1,2.1c-3.5,2.5-4.8,7.4-4.2,11.8
						c0.6,4.4,2.8,8.3,5.2,12c1.3,2,2.7,4,4.2,5.8c-2.7-2.1-5.6-4.3-8.3-5.3c-0.7-0.3-3.9-1.1-5.6-1.2c-0.6-0.1-3.7-1.8-4.4-2.8
						c-3.9-6.1-0.1-14.6,6-20.6C318,158.3,318.4,157.9,318.9,157.6z"/>
					<path class="st19" d="M305.1,171.2c0.5-2.8,1.7-5.4,3.5-8.3C307.1,165.7,306.2,168.5,305.1,171.2z"/>
					<path class="st19" d="M392.9,152.3c-5.9,1.5-8.6,4.5-14.7,9.8c-4.5,3.9-8.2,5.4-14.1,4.9c-7.7-0.5-15.5-1-21.6-6.3
						c-3.2-2.8-5.4-6.5-9.5-8.3c-6.8-2.9-14.5-2.1-19.4,3.6c-0.6,0.7-1.1,1.3-1.6,1.9c-20.2,3.3-34.7,26.1-42.3,18.7
						c-2.2-2.1-7.7-6.9-7.2-10.6c0.7-6.3-0.3-10,1.2-14.9c0.1-0.3,0.3-0.6,0.4-0.8c0.1-0.3,0.3-0.6,0.5-0.9
						c3.8-6.4,14.5-9.6,18.9-11.2c9.4-3.3,16.8,1.9,21.5,0.7s1.3-13.6,9.7-21.2c-5.4,1-14,10.1-19.4,9.6c-1.4-0.1-2.8-0.5-4.2-0.7
						c-3.2-0.4-6.5,0.4-9.3,2.1c1.4-1.5,2.9-3.5,4-5.8c3.6-8,5-8.3,9.1-13.6c5.1-6.7,11.7-12.4,19.8-15.2c6.4-2.2,11.4-2.6,17.2-4
						c13.6-3.2,18.8-12.1,30.1-19.3c1.1-0.7,2.3-1.4,3.5-2c11.9-3.6,33.9-4.1,42.5,0.7c15.4,8.7-0.3,29.4,0.1,31.1
						c1,3.1,4.4,3.1,7.2,3.2c2.8,0,7.6-1.7,10.4-2.1c6-0.8,11.5-0.9,17.3,1.2c3.3,1.2,6.8,2.6,9.4,5.3c2.4,2.5,3.6,4.3,4.4,7.9
						c0.9,4,1.8,5.2,5.4,6.8c-0.2,0-0.4,0.1-0.7,0.1c-13.2,2.7-26,11.6-40,19c-1.9,0.3-3.9,0.3-5.8,0.2c-3-0.1-6.1-0.2-9-1.1
						c-3.4-1.2-6.3-3.5-9.4-5.4c-3.1-1.9-7.3-7-10.9-6.6c-1.7,0.2-4.3,1.3-6,1.6c-6,1.1-32.4-13.2-31.7,3.6c3.9,0.3,17.8-3.6,14,3.1
						c-1.7,3,9.6-3.3,12.5-2.2c2.1,0.8-5.2,6.6-2.9,7.2c4.1,0.9,11.1-1.8,12.5-1c1.4,0.8-5.3,5.8-4.3,7.2c0.6,0.9,7,2.5,8.5,2.9
						c1.3,0.3,2.4,0.4,3.8,0.4L392.9,152.3z"/>
					<path class="st10" d="M283.3,138.1c-4.4,1.6-15.2,4.8-18.9,11.2c4.6-8.5,7.7-10.1,14.1-17.4c0.7-0.8,2-1.9,3.3-3.3
						c2.8-1.7,6.1-2.5,9.3-2.1c1.4,0.2,2.8,0.5,4.2,0.7c5.5,0.5,14-8.6,19.4-9.6c-8.4,7.6-5,20-9.7,21.2S292.7,134.8,283.3,138.1z"
						/>
					<path class="st19" d="M269.6,176.6c7.6,7.4,22.2-15.4,42.3-18.7c-0.8,1-1.4,1.9-2,2.8c-2.3-1.4-3.3,2.1-4.8,3.5
						c-2.4,2.3-4,6.2-5.8,9c-3.8,6-9.1,10.9-14.4,15.5c-9.6,8.3-21.4,10.6-27.4,10.9c-0.1,0-0.3,0-0.4,0c0-2.3-0.3-7.5-0.2-11.4
						c-0.2-3.7-0.1-7.8,0-11.4c0.2-9.1,1.1-15.2,6.6-25.8c-1.4,5-0.5,8.7-1.2,14.9C261.9,169.7,267.4,174.4,269.6,176.6z"/>
					<path class="st19" d="M284.9,188.7c5.3-4.6,10.6-9.5,14.4-15.5c1.8-2.8,3.3-6.7,5.8-9c1.5-1.4,2.5-4.9,4.8-3.5
						c-0.4,0.7-0.8,1.4-1.2,2c0,0-0.1,0.1-0.1,0.2c-1.8,2.9-3,5.5-3.5,8.3c-1.4,3.6-3,7.2-6.3,11.3c-5.3,6.4-13.5,11-21.3,15
						c-9.6,3.9-20.4,6.7-20.4,2.3c0.1,0,0.3,0,0.4,0C263.5,199.3,275.3,197.1,284.9,188.7z"/>
					<path class="st9" d="M502.3,150.1c17.4-3.9,28.5-3.2,45.1,2.8c4,0.8,3.5-1.1,9.2,0.7c4.9,1.5,8.4,4,7.8-4.8
						c-0.3-5.3-9.5-16.8-15.8-21c-4.9-3.3-13-4.7-18.5-5c-11.5-0.6-21.1,5-32.8,6.9c-2.4,0.4-4.8,0.3-7.3,0
						c-0.4-1.1-2.1-2.5-3.1-2.7c-2.7-0.5-8.4-0.9-11.8-0.3l0,0.3c-3-0.5-5.9-0.8-8.7-0.7l-0.1-1.5c-1.8-0.8-3.2-1.3-4.3-1.9
						c10.2-1.7,24.9,4.1,34.8,2.6c10-1.5,13.9-4.6,23.7-5.7c3.7-0.4,9.8-1.3,14.9-0.7c-13.3-14.7-21.8-30.6-44.4-32.2
						c-8-0.6-16.2,3-27.1-1.3c-2.6-1-5.1-3-6.1-3.8c-2.8-2.1-10.1-5.6-14.2-7.6c-21.4-10.6-55.2-17.5-78.1-5.6
						c-1.2,0.6-2.4,1.3-3.5,2c-11.3,7.3-16.6,16.1-30.1,19.3c-5.8,1.4-10.8,1.8-17.2,4c-8.1,2.8-14.7,8.5-19.8,15.2
						c-4.1,5.3-5.5,5.7-9.1,13.6c-1.1,2.4-2.6,4.3-4,5.8c-1.3,1.4-2.6,2.5-3.3,3.3c-6.4,7.3-9.5,8.9-14.1,17.4
						c-0.2,0.3-0.3,0.6-0.5,0.9c-0.1,0.3-0.3,0.6-0.4,0.8c-5.4,10.6-6.4,16.7-6.6,25.8c-0.1,3.7-0.1,7.8,0,11.4
						c-0.1,3.9,0.2,9.1,0.2,11.4c-0.9,0.1-1.8,0.2-2.8-0.7c-3.2-2.7-1.8-12.3-1.8-16.2c0-7.4,0.5-14.8,2.2-22
						c3.9-16.3,16.2-25.3,25.8-37.6c0.9-1.1,1.4-3.2,2-4.7c2-5.2,15.6-22.5,28.9-27.6c10.5-4.1,21.4-3.1,30.9-10.4
						c5.9-4.5,11.3-9.8,17.7-13.7c25.3-15.4,61.9-7.8,86.7,4.1c5.4,2.6,11.1,4.9,15.3,8.2c4.4,3.4,10.2,3.6,16.4,3.8
						c8,0.3,16.1-0.7,23.8,1.8c16.1,5.4,28.4,23.6,39.7,35.7c0.4,0.4,8.2,3.8,11.1,5.9c5.6,4.1,11.2,10.5,14.1,16.6
						c2.2,4.5,3.1,12.5-2.7,15.5c-3.7,1.9-8.1-2.5-13.3-1.3c-0.4,0.1-1.6,0.1-2.8-0.3c-7.9-2.6-15.7-3.9-24-4.8
						c-8.9-1-15.6,0.4-24.2,2.1c-14.9,3-31.9-1-45.9,6.2C431.5,172,414,191.6,390,201.4c-18.1,7.4-36.1,4.6-53.2-4
						c-5.8-2.9-11.1-6.9-16.9-9.8c-1.5-0.7-8.3-1.5-10-2.8c-2.8-2.1-5.1-7-5.1-10.1c0-1.2,0.1-2.3,0.3-3.5c1.1-2.7,2-5.4,3.5-8.3
						c0,0,0.1-0.1,0.1-0.2c0.4-0.5,1.4-1.9,1.2-2c0.6-0.9,1.3-1.9,2-2.8c2.2-0.4,4.5-0.5,6.9-0.3c-0.4,0.3-0.9,0.7-1.3,1.2
						c-6.1,6.1-9.9,14.6-6,20.6c0.7,1.1,3.7,2.8,4.4,2.8c1.7,0.1,4.9,1,5.6,1.2c2.8,1.1,5.6,3.2,8.3,5.3c1.7,1.3,3.5,2.6,5.1,3.6
						c21.8,12.3,45.1,12.3,67.1-1.2c17.4-10.6,28.9-23.9,46.6-33.9c14.2-8,29.4-4.8,44.7-6C496.4,151.1,499.3,150.7,502.3,150.1z"/>
				</g>
				<g>
				</g>
			</g>
			<path class="st9" d="M397.2,150.2c-4.9-1.9-9.9-3.4-15.2-2.7c-0.2,0-0.4,0.1-0.6,0.1c2-2.2,4.4-3.9,7.2-4.5
				c1.2-0.3,2.5-1.1,3.1-1.9c0.6-0.5,0.8-0.9,0.1-1.1c0,0,0,0,0,0c0,0,0,0,0,0c0,0,0,0,0,0c-0.1-0.1-0.3-0.1-0.6-0.1
				c-6.1-1.1-12-0.2-17.9,1.4c2.1-3.3,5-4.3,8.6-5.4c1.5-0.4,2.3-1.2,2.4-1.9c0.3-0.5,0.3-0.9-0.3-1.2c-0.5-0.5-1.4-0.7-2.6-0.4
				c-5.2-0.4-10.5,0.9-15.4,2.8c1.2-1.9,2.7-3.7,4.4-5.3c1.1-1,0.6-1.6-0.6-2c-0.3-0.1-0.7-0.1-1.1-0.1c-0.4-0.1-1-0.2-1.7-0.1
				c-6.1,0.8-12.2,2.5-17.5,5.6c0.1-1.6,0.4-3.3,0.8-4.9c0.7-2.4-5.8-1.3-6.5,1c-0.8,2.9-1.1,5.9-0.7,8.8c-1.6,1.6-3.1,3.4-4.4,5.5
				c-1.7,2.7,4.5,2.3,6,0.3c0.7,1.4,1.6,2.7,2.7,3.9c0.2,0.2,0.4,0.3,0.6,0.4c0.7,1.2,5.3,0.3,6.1-1.2c0.7-1.1,1.5-2.2,2.6-3.2
				c-0.4,2.2-0.5,4.5-0.3,6.9c0,0,0,0,0,0.1c-0.5,1.4,5.6,0.6,6.4-1.3c0.4-0.9,0.9-1.6,1.6-2.2c-0.7,2.7-1,5.6-0.7,8.3
				c0.2,1.6,3.6,1.2,5.4-0.2c0.7-0.3,1.3-0.6,2-1c-2.1,3.6-3.8,7.7-4.9,11.9c-0.4,1.6,5.9,0.6,6.4-1.3c1.1-4.1,3-9.2,5.6-13.5
				c0.6-0.2,1.2-0.3,1.8-0.4c4.2-0.8,8.2,0.7,12.1,2.2C394,154.4,399.9,151.2,397.2,150.2z M351.6,143.2c-0.9-1.4-1.5-3-1.9-4.7
				c3.5-2.9,7.7-4.6,12.2-5.6c-1.5,1.8-2.7,3.7-3.6,5.7C355.9,139.9,353.6,141.4,351.6,143.2z M362.8,145c0.1-2,0.6-3.9,1.2-5.7
				c2.3-1.1,4.8-1.9,7.3-2.4c-1.2,0.9-2.3,1.9-3.2,3.2c-0.8,1.2-1.6,2.4-2.2,3.7C364.8,144.1,363.8,144.5,362.8,145z M370.1,151.4
				c0.1-2.3,0.6-4.6,1.5-6.7c0.4-0.1,0.7-0.2,1.1-0.3c3.5-1,6.8-1.7,10.3-1.6c-3.1,1.7-5.7,3.9-8,6.6
				C373.4,150,371.7,150.7,370.1,151.4z"/>
		</g>
		<g id="XMLID_245_">
			<g>
				<path class="st20" d="M604.4,364.8c1.2-0.3,2.5-0.6,3.7-1.2c-0.3,2.1-0.8,4.3-1.5,6.4c-3.3,0.7-6.6,1.4-9.9,1.9
					c0.5-1.9,0.8-3.8,0.9-5.7C599.9,365.8,602.2,365.3,604.4,364.8z"/>
				<path class="st21" d="M604.5,348.5c-0.1-0.9-0.2-1.8,0.1-2.6c1.8,3.3,3.2,6.9,3.6,10.3c0.3,2.3,0.2,4.8-0.1,7.4
					c-1.1,0.6-2.4,0.9-3.7,1.2c-2.2,0.5-4.5,1-6.8,1.4c0.4-4.6,0-9.3-1.1-13.8c0.2,0.1,0.4,0.2,0.6,0.4c1.7,1,3.6,1.5,5.2,0.4
					S604.6,350.4,604.5,348.5z"/>
				<path class="st21" d="M600.9,340.5c-0.9,0.9-2.1,2.6-3.3,3.2c-2,1-3.9-0.2-5.9-0.7c-1.8-1.6-4.1-2.8-6.3-3.9
					c-2.7-1.4-5.5-3-7.3-5.5c-1.5-2.1-2-5-0.9-7.2c3.1-0.3,6-0.6,8.8-1.2c-0.8,1.5-0.5,3.5,1.4,5.5c3.5,3.7,8.2,3.3,11.9,7.5
					c0.6,0.7,1.2,1.4,1.8,2.2C601,340.4,600.9,340.4,600.9,340.5z"/>
				<path class="st22" d="M547,373c16.5,1.6,33.3,1.4,49.6-1.1c-0.5,2-1.2,4.1-2.1,6c-3,6.1-8.3,11.1-14.6,13.4c0,0,0,0,0,0
					c-10.1,1.2-21.9,1.2-30.6-0.6c-8.8-2-14.7-10.7-17-20.4C537,371.8,542,372.5,547,373z"/>
				<path class="st22" d="M567,354c1-1.1,1.1-2.4,2.3-3.4c0.2-0.2,1.1-0.5,1.4-0.5c0.4,0,1.4,0.2,1.7,0.5c1.5,1.1,1.8,2.7,3.2,4
					c3,2.7,8,3.2,11.5,1c1.6-1,2.6-2.1,2.9-3.9c0.1-0.5,0.1-1.2,0.3-1.6c0.2-0.4,0.9-1.2,1.4-1.3c0.6-0.2,1.9,0,2.2,0.4
					c1.1,1.3,1.4,2.3,2.6,3.2c1.1,4.5,1.5,9.2,1.1,13.8c-6.3,1.1-12.7,1.7-19.1,2.1c-15.9,1.1-32.2,0.9-47.2-4.2
					c-0.4-5.1,0.2-10.2,1.9-14.6c0.1,1.6,1.4,4.4,2.8,5.1c2.3,1.1,5.1,0.1,7.2-1.4c1-0.7,2.7-3.4,3.9-3.9c0.7-0.3,1.4-0.5,2.1-0.4
					c0.6,0,1.1,0.1,1.5,0.4c1.3,0.8,1.5,2,2.1,3.4c1,2.4,3.7,4.1,6.5,4.3C562.3,357.2,565.2,356,567,354z"/>
				<path class="st23" d="M601,340.4c1.3,1.7,2.5,3.6,3.5,5.5c-0.3,0.8-0.1,1.7-0.1,2.6c0.1,1.9-0.5,3.6-2.1,4.7s-3.5,0.5-5.2-0.4
					c-0.2-0.1-0.4-0.3-0.6-0.4c-0.1-0.3-0.1-0.6-0.2-0.9c-0.7-2.6-1.6-5.1-3.3-7.2c-0.4-0.5-0.8-0.9-1.3-1.3
					c2.1,0.5,3.9,1.7,5.9,0.7c1.2-0.6,2.4-2.2,3.3-3.2C600.9,340.4,601,340.4,601,340.4z"/>
				<path class="st21" d="M606.6,370c-3,9.1-9.5,17.7-18,19.7c-2.6,0.6-5.6,1.1-8.7,1.5c6.3-2.2,11.6-7.3,14.6-13.4
					c0.9-1.9,1.6-3.9,2.1-6C600,371.3,603.3,370.7,606.6,370z"/>
				<path class="st22" d="M589.5,342.8c-1.8,0.3-2.9,2.5-4.5,3.4c-0.9,0.5-3.2,0.6-4.2,0.6c-2.5,0-3.8-0.6-6.1-1.4
					c-1.6-0.6-2.3-1.2-4.4-1c-1.3,0.1-3.2,1-3.9,1.5c-3.2,2.1-5.9,1.9-9.4,0.3c-2.1-1-3.8-2.7-6.2-2.8c-0.4,0-0.8,0-1.2,0.1
					c-1.1,0.2-2.3,0.7-3.3,0.9c-2.1,0.5-4.3,0.8-6.3,0.3c-1.1-0.3-2.2-0.7-3.1-1.4c0.1-0.1,0.2-0.2,0.3-0.4
					c2.9-3.2,8.2-7.1,11.9-9.4c1.3-0.8,3.5-1.5,4.2-3.5c0.6-1.6-0.2-3.7-0.6-4.5c7.6,1,16.4,1.1,24.7,0.4c-1.1,2.2-0.6,5.1,0.9,7.2
					c1.8,2.5,4.6,4.1,7.3,5.5c2.2,1.1,4.5,2.3,6.3,3.9C591,342.8,590.3,342.7,589.5,342.8z"/>
				<path class="st21" d="M585.1,321.5c-10.7,1.9-21.3,2.6-32,0.6C562.5,319.5,575.7,319.1,585.1,321.5z"/>
				<path class="st24" d="M570.7,350.1c-0.3,0-1.2,0.3-1.4,0.5c-1.2,1-1.2,2.2-2.3,3.4c-1.8,2-4.7,3.2-7.5,2.9
					c-2.8-0.2-5.5-1.9-6.5-4.3c-0.6-1.4-0.8-2.5-2.1-3.4c-0.4-0.3-1-0.4-1.5-0.4l0.2-5.1c0.4-0.1,0.8-0.1,1.2-0.1
					c2.4,0.1,4.1,1.8,6.2,2.8c3.5,1.6,6.2,1.8,9.4-0.3c0.8-0.5,2.6-1.4,3.9-1.5c2-0.2,2.7,0.4,4.4,1c2.3,0.8,3.7,1.3,6.1,1.4
					c1,0,3.3-0.1,4.2-0.6c1.6-0.9,2.7-3.1,4.5-3.4c0.8-0.1,1.5-0.1,2.2,0.1c0.4,0.4,0.9,0.8,1.3,1.3c1.7,2,2.6,4.6,3.3,7.2
					c0.1,0.3,0.2,0.6,0.2,0.9c-1.1-0.9-1.4-1.9-2.6-3.2c-0.4-0.4-1.6-0.6-2.2-0.4c-0.5,0.2-1.2,0.9-1.4,1.3
					c-0.2,0.4-0.2,1.2-0.3,1.6c-0.3,1.7-1.3,2.9-2.9,3.9c-3.5,2.1-8.6,1.6-11.5-1c-1.4-1.2-1.7-2.8-3.2-4
					C572,350.3,571.1,350.1,570.7,350.1z"/>
				<path class="st24" d="M549.6,343.7l-0.2,5.1c-0.7,0-1.5,0.2-2.1,0.4c-1.2,0.5-2.9,3.2-3.9,3.9c-2.1,1.5-4.9,2.6-7.2,1.4
					c-1.4-0.7-2.7-3.5-2.8-5.1c0.9-2.2,2-4.2,3.5-6c0.9,0.7,2,1.1,3.1,1.4c2.1,0.5,4.3,0.2,6.3-0.3
					C547.2,344.4,548.4,343.9,549.6,343.7z"/>
				<path class="st25" d="M596.6,371.9c-16.4,2.6-33.1,2.8-49.6,1.1c-5-0.5-10-1.1-14.7-2.8c-0.5-2-0.8-4.1-0.9-6.1
					c15,5.1,31.3,5.2,47.2,4.2c6.4-0.4,12.8-1,19.1-2.1C597.5,368.1,597.1,370,596.6,371.9z"/>
				<path class="st26" d="M567.7,317.4c9-0.1,17.7-0.6,26.1,2.8c1.4,0.6,0.8,1.9,0.2,2.6c-0.7,0.8-1.2,1.4-2.4,2.2
					c-0.4,0.2-0.9,1.3-0.8,1.6c0.6,2.2,4.2,3,5.9,4.1c5,3.2,9.1,7.6,12,12.8c5.9,10.6,5.4,23.8-0.7,34.3
					c-5.9,10.1-12.4,14.7-23.6,15.9c-11.9,1.3-24.4,2.5-36.3,0.1c-0.2,0-0.4-0.1-0.5-0.2c-16.7-4.3-20.4-22.8-20-38.2
					c0.2-7.9,4.8-13.4,10.6-18.3c1.9-1.6,8.9-6.3,9.7-8.1c1-2.3-2.3-3-3.4-5.2c-0.2-0.3-0.1-0.6,0-0.9c-0.2-0.6,0.2-1.3,1.6-1.9
					C553.1,317.6,560.2,317.5,567.7,317.4z M553.2,322.1c10.7,1.9,21.3,1.3,32-0.6C575.7,319.1,562.5,319.5,553.2,322.1z
					 M549.3,390.6c8.7,1.8,20.5,1.8,30.6,0.6c0,0,0,0,0,0c3.1-0.4,6-0.9,8.7-1.5c8.5-2,15-10.6,18-19.7c0.7-2.1,1.2-4.3,1.5-6.4
					c0.3-2.6,0.4-5.1,0.1-7.4c-0.4-3.4-1.8-6.9-3.6-10.3c-1-1.9-2.2-3.8-3.5-5.5c-0.6-0.8-1.2-1.5-1.8-2.2
					c-3.6-4.3-8.3-3.9-11.9-7.5c-1.8-1.9-2.2-4-1.4-5.5c-2.8,0.5-5.7,0.9-8.8,1.2c-8.3,0.7-17.1,0.5-24.7-0.4
					c0.4,0.7,1.2,2.8,0.6,4.5c-0.7,2-2.9,2.7-4.2,3.5c-3.7,2.2-9,6.1-11.9,9.4c-0.1,0.1-0.2,0.2-0.3,0.4c-1.5,1.7-2.7,3.7-3.5,6
					c-1.7,4.4-2.4,9.5-1.9,14.6c0.2,2,0.5,4.1,0.9,6.1C534.6,380,540.5,388.6,549.3,390.6z"/>
			</g>
			<g>
			</g>
		</g>
		<g id="XMLID_244_">
			<g>
				<path class="st21" d="M564.2,361.6c2.2,4.1,3.9,8.4,4.4,12.6c0.4,2.8,0.3,5.9-0.1,9.1c-1.4,0.7-2.9,1.1-4.5,1.4
					c-2.7,0.7-5.5,1.2-8.3,1.7c0.5-5.6,0-11.4-1.4-16.9c0.2,0.2,0.5,0.3,0.8,0.5c2.1,1.2,4.4,1.8,6.4,0.5c2-1.3,2.8-3.4,2.6-5.7
					C564,363.8,563.9,362.6,564.2,361.6z"/>
				<path class="st20" d="M566.7,391.1c-4,0.9-8,1.6-12.1,2.3c0.6-2.3,1-4.6,1.2-7c2.8-0.5,5.6-1,8.3-1.7c1.5-0.4,3.1-0.8,4.5-1.4
					C568.1,385.8,567.5,388.5,566.7,391.1z"/>
				<path class="st21" d="M555.8,358.9c-2.5,1.2-4.7-0.2-7.2-0.8c-2.2-2-5-3.4-7.7-4.8c-3.3-1.7-6.7-3.6-8.9-6.7
					c-1.8-2.5-2.4-6.1-1.1-8.8c3.7-0.3,7.3-0.8,10.7-1.4c-1,1.8-0.6,4.3,1.7,6.7c4.3,4.5,10,4,14.5,9.2c0.7,0.9,1.4,1.8,2.2,2.7
					c0,0-0.1,0.1-0.1,0.1C558.7,356.1,557.2,358.2,555.8,358.9z"/>
				<path class="st22" d="M554.6,393.4c-0.6,2.5-1.5,5-2.6,7.3c-3.6,7.4-10.1,13.6-17.8,16.4c0,0,0,0,0,0
					c-12.3,1.5-26.7,1.4-37.3-0.7c-10.7-2.5-18-13.1-20.8-25c5.8,2,11.9,2.8,18,3.4C514.1,396.7,534.6,396.5,554.6,393.4z"/>
				<path class="st22" d="M518.3,371.6c1.3-1.4,1.3-2.9,2.8-4.1c0.3-0.2,1.4-0.6,1.7-0.6c0.5,0,1.7,0.2,2,0.5
					c1.8,1.4,2.2,3.3,3.9,4.8c3.7,3.3,9.8,3.9,14.1,1.3c2-1.2,3.2-2.6,3.5-4.7c0.1-0.6,0.1-1.5,0.3-2c0.2-0.5,1.1-1.4,1.7-1.6
					c0.8-0.2,2.3,0,2.8,0.5c1.3,1.6,1.7,2.7,3.1,3.8c1.3,5.5,1.9,11.3,1.4,16.9c-7.7,1.3-15.5,2.1-23.3,2.6
					c-19.4,1.3-39.3,1.1-57.6-5.1c-0.5-6.3,0.2-12.5,2.3-17.8c0.1,1.9,1.7,5.4,3.4,6.2c2.8,1.4,6.3,0.1,8.8-1.7
					c1.3-0.9,3.3-4.2,4.8-4.8c0.8-0.3,1.7-0.6,2.6-0.5c0.7,0,1.4,0.2,2,0.5c1.6,1,1.9,2.4,2.6,4.1c1.3,2.9,4.5,5,8,5.3
					C512.6,375.4,516.1,374,518.3,371.6z"/>
				<path class="st23" d="M550.1,359.6c-0.5-0.6-1-1.1-1.5-1.5c2.5,0.6,4.7,2,7.2,0.8c1.4-0.7,2.9-2.8,4-3.9c0,0,0.1-0.1,0.1-0.1
					c1.5,2.1,3,4.4,4.3,6.7c-0.4,1-0.2,2.1-0.1,3.2c0.2,2.3-0.6,4.4-2.6,5.7c-2,1.3-4.3,0.7-6.4-0.5c-0.3-0.2-0.6-0.3-0.8-0.5
					c-0.1-0.4-0.2-0.8-0.3-1.1C553.2,365.2,552.1,362.1,550.1,359.6z"/>
				<path class="st21" d="M566.7,391.1c-3.6,11.2-11.6,21.6-22,24.1c-3.2,0.8-6.8,1.4-10.6,1.9c7.7-2.8,14.2-8.9,17.8-16.4
					c1.1-2.4,2-4.8,2.6-7.3C558.6,392.7,562.7,392,566.7,391.1z"/>
				<path class="st22" d="M540.8,353.3c2.7,1.4,5.5,2.8,7.7,4.8c-0.9-0.2-1.8-0.3-2.7-0.1c-2.3,0.4-3.6,3-5.5,4.1
					c-1.1,0.6-3.9,0.8-5.1,0.8c-3,0-4.7-0.7-7.5-1.7c-2-0.7-2.8-1.5-5.3-1.2c-1.6,0.2-3.9,1.3-4.8,1.9c-3.9,2.6-7.2,2.3-11.4,0.4
					c-2.6-1.2-4.7-3.3-7.6-3.4c-0.5,0-1,0-1.5,0.1c-1.3,0.3-2.8,0.8-4,1.1c-2.5,0.7-5.2,0.9-7.8,0.3c-1.3-0.3-2.7-0.9-3.8-1.7
					c0.1-0.1,0.2-0.3,0.4-0.4c3.6-4,10-8.7,14.6-11.4c1.5-0.9,4.2-1.8,5.1-4.2c0.7-2-0.2-4.6-0.8-5.4c9.3,1.2,20.1,1.4,30.1,0.5
					c-1.3,2.7-0.7,6.3,1.1,8.8C534.1,349.6,537.5,351.5,540.8,353.3z"/>
				<path class="st21" d="M540.5,331.8c-13.1,2.3-26,3.1-39.1,0.8C512.8,329.4,529,328.9,540.5,331.8z"/>
				<path class="st24" d="M524.9,367.4c-0.4-0.3-1.5-0.6-2-0.5c-0.3,0-1.4,0.4-1.7,0.6c-1.4,1.2-1.5,2.7-2.8,4.1
					c-2.2,2.4-5.7,3.9-9.2,3.6c-3.4-0.3-6.6-2.4-8-5.3c-0.7-1.7-1-3.1-2.6-4.1c-0.6-0.4-1.3-0.5-2-0.5l0.3-6.2
					c0.5-0.1,1-0.2,1.5-0.1c2.9,0.1,5,2.2,7.6,3.4c4.2,1.9,7.6,2.3,11.4-0.4c0.9-0.6,3.2-1.7,4.8-1.9c2.5-0.3,3.4,0.5,5.3,1.2
					c2.8,1,4.5,1.6,7.5,1.7c1.2,0,4-0.1,5.1-0.8c2-1.2,3.3-3.8,5.5-4.1c1-0.1,1.9-0.1,2.7,0.1c0.5,0.5,1.1,1,1.5,1.5
					c2.1,2.5,3.2,5.6,4,8.8c0.1,0.4,0.2,0.7,0.3,1.1c-1.4-1.1-1.8-2.3-3.1-3.8c-0.5-0.5-2-0.7-2.8-0.5c-0.6,0.2-1.5,1.1-1.7,1.6
					c-0.2,0.5-0.3,1.4-0.3,2c-0.3,2.1-1.5,3.5-3.5,4.7c-4.3,2.6-10.5,2-14.1-1.3C527.1,370.7,526.7,368.7,524.9,367.4z"/>
				<path class="st24" d="M497,359l-0.3,6.2c-0.9,0-1.8,0.2-2.6,0.5c-1.4,0.6-3.5,3.9-4.8,4.8c-2.5,1.8-6,3.2-8.8,1.7
					c-1.7-0.9-3.3-4.3-3.4-6.2c1.1-2.7,2.5-5.2,4.3-7.3c1.1,0.9,2.4,1.4,3.8,1.7c2.6,0.6,5.2,0.3,7.8-0.3
					C494.2,359.8,495.6,359.3,497,359z"/>
				<path class="st25" d="M554.6,393.4c-20,3.2-40.5,3.4-60.6,1.4c-6.1-0.6-12.2-1.4-18-3.4c-0.6-2.5-1-5-1.2-7.5
					c18.4,6.2,38.3,6.4,57.6,5.1c7.8-0.5,15.6-1.3,23.3-2.6C555.5,388.7,555.2,391.1,554.6,393.4z"/>
				<path class="st26" d="M540.5,331.8c-11.6-2.9-27.7-2.4-39.1,0.8C514.5,334.9,527.5,334.1,540.5,331.8z M568.6,374.2
					c-0.5-4.1-2.2-8.5-4.4-12.6c-1.3-2.4-2.8-4.7-4.3-6.7c-0.7-1-1.4-1.9-2.2-2.7c-4.4-5.2-10.2-4.7-14.5-9.2
					c-2.3-2.4-2.7-4.8-1.7-6.7c-3.4,0.6-7,1.1-10.7,1.4c-10.1,0.9-20.9,0.7-30.1-0.5c0.5,0.9,1.5,3.4,0.8,5.4
					c-0.9,2.4-3.6,3.3-5.1,4.2c-4.6,2.7-11,7.5-14.6,11.4c-0.1,0.1-0.2,0.3-0.4,0.4c-1.8,2.1-3.3,4.6-4.3,7.3
					c-2.1,5.3-2.8,11.6-2.3,17.8c0.2,2.5,0.6,5,1.2,7.5c2.8,11.9,10.1,22.5,20.8,25c10.6,2.2,25,2.3,37.3,0.7c0,0,0,0,0,0
					c3.8-0.5,7.4-1.1,10.6-1.9c10.4-2.5,18.4-13,22-24.1c0.9-2.6,1.5-5.3,1.8-7.8C568.9,380.1,569,377,568.6,374.2z M569.3,358.6
					c7.2,13,6.6,29.1-0.8,41.9c-7.2,12.4-15.1,18-28.9,19.5c-14.5,1.6-29.9,3.1-44.3,0.1c-0.3,0-0.5-0.1-0.7-0.2
					c-20.4-5.2-24.9-27.8-24.4-46.6c0.2-9.6,5.9-16.4,13-22.4c2.3-1.9,10.9-7.7,11.9-9.9c1.2-2.8-2.8-3.7-4.1-6.3
					c-0.2-0.4-0.2-0.8,0-1.1c-0.2-0.7,0.3-1.6,1.9-2.4c8.5-4,17.1-4.1,26.3-4.3c11-0.2,21.6-0.8,31.9,3.4c1.7,0.7,1,2.4,0.2,3.2
					c-0.8,1-1.5,1.7-2.9,2.7c-0.5,0.3-1.1,1.6-1.1,1.9c0.7,2.7,5.1,3.6,7.2,5C560.8,346.9,565.8,352.3,569.3,358.6z"/>
			</g>
			<g>
			</g>
		</g>
		<g id="XMLID_243_">
			<g>
				<path class="st27" d="M446.4,337.2c6.1,6.7,18.3,50.8,18.3,51c-3-0.9-9.9-1.5-10.1-1.6c-1.7-6.4-11-33.8-13.9-40.3
					C441.8,345.9,445.2,339.3,446.4,337.2z"/>
				<path class="st27" d="M464,393.3c-2.3,6.8-10.4,16.1-15,20c-0.4-3.8-1.7-7.7-2.1-11.5c2.4-1.9,5.3-6.4,7.7-9.7
					C457.8,392,461.1,392.4,464,393.3z"/>
				<path class="st28" d="M445.6,376.2c2.3,6,4.3,11.4,4.1,12.5c-0.2,1.1-4.9,9.5-7,8.9c-1.9-0.5-10-2.3-11.1-3.5
					c-2.3-2.5-4.7-11.4-5.5-14.5c-2.5-9.2-4.1-15.1-4.9-19.2C428.9,366.1,437,371.4,445.6,376.2z"/>
				<path class="st29" d="M444.5,373.4c0.3,0.9,0.7,1.8,1,2.7c-8.5-4.8-16.7-10.1-24.5-15.9c-0.2-0.9-0.3-1.7-0.4-2.4
					C428.5,363.2,436.4,368.4,444.5,373.4z"/>
				<path class="st28" d="M440.8,402.8c0.4,3.9,1.9,8.2,2.3,12.1c-2.9-0.7-7.1-1.8-9.6-2.6c-4.8-1.5-9.9-3.7-14.6-5.6
					c1.8-0.9,3.5-2,5.2-3.2c1.7-1.3,3.2-2.9,4.9-4.1c1.6,0.6,3.8,1,6.9,1.8C437.5,401.6,438.6,402.3,440.8,402.8z"/>
				<path class="st29" d="M441.1,364.1c0.4,1.1,0.8,2.4,1.3,3.7c-6.9-5.1-15.1-8.8-22-13.9c0.1-2.8,0.9-4.6,2-7.7
					c5.2,3.9,11.2,8.1,16.9,12.1C440,360.4,440.6,362.5,441.1,364.1z"/>
				<path class="st27" d="M441.9,334.1c-2,2.7-3.7,5.7-4.8,8.9c-3.5-1.9-9.8-5.3-13.7-6.3c-3.6-5.4-5.1-7.3-7.1-10.1
					C419.5,326.9,441.5,333.8,441.9,334.1z"/>
				<path class="st28" d="M423.5,343c4.4,1.1,9.1,3.1,11.6,6.2c1.9,2.2,3.1,5.8,4.2,9.2c-5.7-3.9-11.7-8.2-16.9-12.1
					C422.8,345.3,423.1,344.2,423.5,343z"/>
				<path class="st28" d="M422.9,387c0.6,2.1,3.1,8.2,3.1,8.2c-1.7,0.9-9.4,6.9-11.6,8.1c-4.1-5.7-5.5-14.6-7.5-23
					c-2.1-9.1-4.4-16.9-6.5-26l14.1,1.9C414.6,358.5,420,377.2,422.9,387z"/>
				<path class="st28" d="M444.5,373.4c-8.1-5-16-10.2-23.9-15.5c-0.2-1.6-0.3-2.8-0.3-3.9c6.9,5.1,15.1,8.8,22,13.9
					C443.1,369.6,443.8,371.5,444.5,373.4z"/>
				<path class="st28" d="M410.8,329.5c3.7,4.6,5.7,7.6,7.5,9.6c0,0-0.4,0.9-0.8,2.2c-3.3-2.2-6.6-4.3-9.9-6.5
					C408.9,332.5,410.1,330.6,410.8,329.5z"/>
				<path class="st29" d="M407.6,334.8c3.3,2.2,6.6,4.3,9.9,6.5c-0.1,0.4-0.3,1-0.5,1.5c-3.4-2.2-6.7-4.4-10.1-6.6
					C407.1,335.7,407.4,335.3,407.6,334.8z"/>
				<path class="st28" d="M406.9,336.2c3.4,2.2,6.8,4.4,10.1,6.6c-0.2,0.6-0.5,1.3-0.7,2c-3.5-2.3-6.9-4.6-10.4-6.9
					C406.2,337.4,406.5,336.8,406.9,336.2z"/>
				<path class="st28" d="M414.8,349.5c-0.1,0.5-0.3,0.9-0.3,1.3c-5.3-0.2-8.8-1.5-14.2-1.8c0.5-1.4,1.7-3.9,3.2-6.8
					C407.4,344.6,411.1,347,414.8,349.5z"/>
				<path class="st29" d="M405.9,338c3.5,2.3,7,4.6,10.4,6.9c-0.5,1.6-1.1,3.3-1.5,4.7c-3.7-2.5-7.5-4.9-11.3-7.2
					C404.3,340.9,405.1,339.4,405.9,338z"/>
				<path class="st30" d="M428.9,399.4c-1.7,1.2-3.2,2.8-4.9,4.1c-1.6,1.2-3.4,2.2-5.2,3.2c4.7,1.9,9.9,4.1,14.6,5.6
					c2.5,0.8,6.7,1.9,9.6,2.6c-0.4-3.9-1.9-8.2-2.3-12.1c-2.2-0.5-3.3-1.2-5-1.6C432.7,400.4,430.5,400,428.9,399.4z M454.5,392
					c-2.4,3.3-5.3,7.8-7.7,9.7c0.4,3.8,1.7,7.7,2.1,11.5c4.6-3.9,12.7-13.2,15-20C461.1,392.4,457.8,392,454.5,392z M457.9,347.3
					c2.5,7,4.6,14.1,6.7,21.2c1.9,6.7,5,14.8,6.1,21.6c1.5,9-20.4,30.8-23.7,32.3c-2.6,1.2-8-1.9-18.2-5.1c-6.1-1.9-7.1-2.3-13-4.7
					c-5.6-2.3-7.6-6.3-9.2-11.2c-5.3-15.4-13.5-48.2-12.4-52.1c3.2-8.7,11.5-25.5,15.2-26.6c7.2-2.4,19.6,1.4,25.7,3.5
					c5.8,2,12.1,2.9,16.8,7.2C455.1,336.4,456.4,343.1,457.9,347.3z M416.3,326.5c2,2.8,3.5,4.7,7.1,10.1c3.8,1,10.1,4.5,13.7,6.3
					c1.2-3.2,2.8-6.2,4.8-8.9C441.5,333.8,419.5,326.9,416.3,326.5z M421.1,360.3c0.8,4.1,2.3,10,4.9,19.2c0.9,3.1,3.3,12,5.5,14.5
					c1.1,1.2,9.2,3,11.1,3.5c2.1,0.5,6.8-7.9,7-8.9c0.2-1.1-1.8-6.5-4.1-12.5c-0.3-0.9-0.7-1.8-1-2.7c-0.7-1.9-1.4-3.8-2.1-5.6
					c-0.5-1.3-0.9-2.6-1.3-3.7c-0.6-1.7-1.1-3.7-1.8-5.8c-1.1-3.4-2.4-6.9-4.2-9.2c-2.6-3-7.2-5-11.6-6.2c-0.4,1.2-0.7,2.3-1.1,3.3
					c-1.1,3.1-1.9,4.9-2,7.7c0,1.1,0,2.4,0.3,3.9C420.8,358.6,420.9,359.4,421.1,360.3z M440.8,346.2c2.9,6.5,12.2,34,13.9,40.3
					c0.2,0.1,7.1,0.7,10.1,1.6c0-0.2-12.2-44.3-18.3-51C445.2,339.3,441.8,345.9,440.8,346.2z M422.9,387
					c-2.9-9.7-8.3-28.5-8.4-30.8l-14.1-1.9c2.1,9.1,4.4,16.9,6.5,26c2,8.4,3.4,17.3,7.5,23c2.2-1.2,9.9-7.2,11.6-8.1
					C425.9,395.2,423.5,389.1,422.9,387z M405.9,338c-0.8,1.5-1.6,2.9-2.3,4.3c-1.5,2.8-2.7,5.4-3.2,6.8c5.3,0.2,8.9,1.5,14.2,1.8
					c0.1-0.4,0.2-0.8,0.3-1.3c0.4-1.4,0.9-3.1,1.5-4.7c0.2-0.7,0.5-1.4,0.7-2c0.2-0.5,0.4-1.1,0.5-1.5c0.5-1.3,0.8-2.1,0.8-2.2
					c-1.8-2-3.8-5-7.5-9.6c-0.7,1.1-1.9,3-3.2,5.3c-0.3,0.4-0.5,0.9-0.7,1.4C406.5,336.8,406.2,337.4,405.9,338z"/>
			</g>
			<g>
			</g>
		</g>
		<g id="XMLID_242_">
			<g>
				<path class="st31" d="M552.2,384.6c13-1.4,25.4-2.2,25.4-2.2c-1.5,2.7-3.5,9.3-3.6,9.5c-1.4,0.1-3.9,0.3-7,0.6
					c-3.7-2.4-7.5-4.6-11.5-6.4C554.5,385.6,553.3,385.1,552.2,384.6z"/>
				<path class="st32" d="M582.5,384.2c6.2,3.7,13.7,13.4,16.5,18.8c-3.8-0.3-7.9,0.1-11.7-0.3c-1.4-2.7-5.2-6.5-7.9-9.5
					C580.1,390,581,386.9,582.5,384.2z"/>
				<path class="st29" d="M560.7,393.3c-5.1-2.7-10.2-5.3-15.4-7.9c2.3-0.3,4.6-0.6,7-0.8c1.1,0.6,2.2,1.1,3.4,1.6
					c4,1.8,7.8,4,11.5,6.4C565.1,392.8,563,393,560.7,393.3z"/>
				<path class="st31" d="M538.7,386.3c4.4,2.9,8.9,5.5,13.6,8c-8.6,1.1-17.1,2.3-20.5,3c-0.1-1.1-5.9-5.7-7.7-7.4
					C526.3,388.6,531.9,387.3,538.7,386.3z"/>
				<path class="st29" d="M548.9,390.2c2.4,1.2,4.8,2.4,7.1,3.6c-1.3,0.1-2.5,0.3-3.8,0.5c-4.6-2.4-9.2-5.1-13.6-8
					c0.8-0.1,1.6-0.2,2.4-0.3C543.5,387.6,546.2,388.9,548.9,390.2z"/>
				<path class="st31" d="M560.7,393.3c-1.5,0.2-3.1,0.4-4.7,0.6c-2.4-1.2-4.8-2.4-7.1-3.6c-2.7-1.3-5.4-2.7-7.9-4.3
					c1.4-0.2,2.8-0.4,4.3-0.6C550.5,387.9,555.6,390.5,560.7,393.3z"/>
				<path class="st31" d="M558.8,399.3c7.5-1.2,15.1-2.4,16.3-1.9c1,0.4,8.2,6.7,7.3,8.7c-0.6,1.3-2.5,5.5-4.1,8.1
					c-4.1-3.7-8.4-7.3-12.9-10.5C563.2,402,561,400.5,558.8,399.3z"/>
				<path class="st29" d="M549.3,400.7c2.7-0.3,6.1-0.8,9.5-1.4c2.3,1.2,4.4,2.7,6.5,4.3c4.5,3.3,8.8,6.8,12.9,10.5
					c-0.6,1.1-1.2,1.9-1.6,2.1c-2.5,1.4-9.3,2-13.4,2.3c-7.3-5.6-14.6-11.3-21.8-17.1C544.3,401.1,547.1,400.9,549.3,400.7z"/>
				<path class="st32" d="M587.1,408.9c3.9,0.3,8.4-0.2,12.3,0.2c-1.2,2.7-3.2,6.6-4.5,8.9c-2.5,4.4-5.7,9-8.5,13.2
					c-0.6-2-1.2-3.9-2.1-5.7c-0.9-1.9-2.2-3.7-3-5.6c0.9-1.4,1.7-3.5,3.2-6.4C585.3,411.8,586.1,410.9,587.1,408.9z"/>
				<path class="st31" d="M520,393.7c2.3,2.5,4.8,4.7,7.7,6.5c-1.3,1.6-3.2,3.8-4.9,6c-2.5-1.5-4.7-3.4-7.2-4.8
					C518,397.3,519.9,393.9,520,393.7z"/>
				<path class="st31" d="M533,403.7c1.8,1.9,4.2,3.1,6.4,4.5c5,3.2,8.9,7.9,14.1,10.9c-21.9,1.2-19-0.4-28.5-5.5
					C526.9,409.6,529.7,405.7,533,403.7z"/>
				<path class="st29" d="M512.4,407.3c1.1-2,2.2-4,3.2-5.8c2.5,1.4,4.7,3.3,7.2,4.8c-1.2,1.5-2.3,3.1-3.2,4.5
					C517.2,409.6,514.8,408.5,512.4,407.3z"/>
				<path class="st31" d="M557.5,418.9c-7.1-5.7-14.4-11.1-21.8-16.3c1.8-0.6,3.8-0.9,5.8-1.1c7.2,5.8,14.4,11.5,21.8,17.1
					c-0.8,0.1-1.5,0.1-2,0.1C559.9,418.7,558.7,418.8,557.5,418.9z"/>
				<path class="st31" d="M512.4,407.3c2.4,1.1,4.8,2.3,7.2,3.5c-0.3,0.6-0.6,1.1-0.9,1.6c-6,2.4-8.2,3.5-11.4,4.9
					C507.9,416,510,411.8,512.4,407.3z"/>
				<path class="st29" d="M535.7,402.5c7.4,5.2,14.7,10.6,21.8,16.3c-1.4,0.1-2.7,0.2-4,0.2c-5.1-2.9-9.1-7.6-14.1-10.9
					c-2.2-1.4-4.6-2.6-6.4-4.5c0.1-0.1,0.2-0.2,0.4-0.2C534.1,403.1,534.8,402.8,535.7,402.5z"/>
				<path class="st31" d="M568,423.2c2.2-0.2,8.6-1.3,8.6-1.3c0.5,1.9,4.9,10.6,5.5,13c-6.4,2.8-15.4,2.4-24,2.6
					c-9.3,0.2-17.5,0.9-26.8,1.1l4.7-13.4C538.4,425.5,557.8,424,568,423.2z"/>
				<path class="st31" d="M509.3,423.2c5.2-2.7,8.6-4,10.9-5.4c0.1,0.1,7.4,4.6,10.7,6.1c-1.3,5.2-3.3,8.4-4.6,13.5
					C522.9,435.4,512.1,426.2,509.3,423.2z"/>
				<path class="st33" d="M531.7,397.3c3.4-0.7,11.9-1.9,20.5-3c1.3-0.2,2.5-0.3,3.8-0.5c1.6-0.2,3.2-0.4,4.7-0.6
					c2.3-0.3,4.5-0.5,6.4-0.7c3.1-0.3,5.6-0.6,7-0.6c0.1-0.2,2.1-6.8,3.6-9.5c-0.1,0-12.5,0.8-25.4,2.2c-2.3,0.3-4.7,0.5-7,0.8
					c-1.4,0.2-2.9,0.4-4.3,0.6c-0.8,0.1-1.6,0.2-2.4,0.3c-6.7,1-12.4,2.3-14.6,3.6C525.8,391.6,531.6,396.2,531.7,397.3z
					 M531.3,438.5c9.3-0.2,17.4-0.8,26.8-1.1c8.6-0.2,17.6,0.2,24-2.6c-0.7-2.4-5-11.1-5.5-13c0,0-6.4,1.1-8.6,1.3
					c-10.1,0.9-29.6,2.3-31.9,2L531.3,438.5z M587.1,408.9c-1,2.1-1.8,3-2.6,4.5c-1.4,2.9-2.2,4.9-3.2,6.4c0.8,2,2.1,3.7,3,5.6
					c0.9,1.8,1.5,3.8,2.1,5.7c2.8-4.2,6-8.8,8.5-13.2c1.3-2.3,3.2-6.2,4.5-8.9C595.5,408.7,591,409.2,587.1,408.9z M509.3,423.2
					c2.8,3,13.7,12.2,17,14.2c1.3-5.1,3.3-8.3,4.6-13.5c-3.2-1.5-10.6-6-10.7-6.1C517.9,419.2,514.5,420.6,509.3,423.2z
					 M582.5,384.2c-1.5,2.6-2.4,5.8-3.1,9c2.7,3,6.6,6.8,7.9,9.5c3.8,0.3,7.9-0.1,11.7,0.3C596.2,397.7,588.7,387.9,582.5,384.2z
					 M578.2,414.1c1.6-2.6,3.5-6.8,4.1-8.1c1-1.9-6.3-8.3-7.3-8.7c-1.2-0.5-8.8,0.8-16.3,1.9c-3.3,0.5-6.7,1-9.5,1.4
					c-2.2,0.3-5.1,0.4-7.9,0.8c-2,0.2-4,0.6-5.8,1.1c-0.8,0.3-1.6,0.6-2.3,0.9c-0.1,0.1-0.3,0.2-0.4,0.2c-3.3,2-6.1,5.9-8,9.9
					c9.5,5.1,6.6,6.7,28.5,5.5c1.2-0.1,2.6-0.1,4-0.2c1.2-0.1,2.5-0.2,3.8-0.2c0.5,0,1.2-0.1,2-0.1c4-0.3,10.9-0.9,13.4-2.3
					C577,415.9,577.6,415.1,578.2,414.1z M520,393.7c-0.1,0.1-2.1,3.5-4.4,7.8c-1,1.9-2.1,3.9-3.2,5.8c-2.4,4.5-4.6,8.7-5,10
					c3.2-1.4,5.4-2.5,11.4-4.9c0.3-0.5,0.6-1,0.9-1.6c0.9-1.4,2-3,3.2-4.5c1.7-2.2,3.6-4.4,4.9-6C524.9,398.5,522.3,396.3,520,393.7
					z M578.6,442c-16.1,2-50,3.4-53.5,1.5c-7.8-4.9-22.5-16.5-23-20.3c-0.8-7.5,5.4-18.9,8.7-24.4c3.1-5.2,5.3-11.2,10.5-14.9
					c3.7-2.7,10.5-2.6,15-3.2c7.4-1,14.8-1.7,22.2-2.2c6.9-0.5,15.5-1.9,22.4-1.6c9.1,0.3,26,26.2,26.8,29.8
					c0.6,2.8-3.4,7.4-8.7,16.8c-3.1,5.6-3.7,6.5-7.3,11.8C588.1,440.2,583.7,441.4,578.6,442z"/>
			</g>
			<g>
			</g>
		</g>
		<g>
			<g id="XMLID_241_">
				<g>
					<path class="st34" d="M461.4,411.5c4.8,9.1,7.1,18-0.7,19.9c-1.2,0.3-2.6,0.6-4.2,1c1.8-1.9,1.5-5.7-0.1-9.9
						c1.5-0.6,2.8-1.6,3.6-2.9c1.2-2.1,0.9-4.8-0.2-7.2L461.4,411.5z"/>
					<path class="st35" d="M449.5,411.3c0.6-0.4,1.4-0.6,2.1-0.6c2.3,0.1,3.5,1.3,4.2,3.7c0.3,0.9,0.7,3-1.2,4
						C453.1,415.9,451.5,413.5,449.5,411.3z"/>
					<path class="st36" d="M453.5,418.8c-2.1,0.5-4.2-1.2-4.9-3.2c-0.3-1-0.3-2.2,0.1-3.2c0.2-0.5,0.5-0.8,0.8-1.1
						c1.9,2.2,3.6,4.7,5,7.1C454.2,418.5,453.9,418.7,453.5,418.8z"/>
					<path class="st34" d="M448.4,401.7c1.1,0.5,4.8-0.6,5.8-1.8c2.4,3.5,5.1,7.5,7.2,11.5l-1.6,0.8c-0.8-1.6-1.9-3.1-3.2-4
						c0,0-0.1,0-0.1,0c-0.1-0.1-0.2-0.1-0.3-0.2c-2.8-1.5-6.5-1.2-9.4,0.4c-2.9-2.7-6.1-4.5-9.4-5c1.5-1.1,3-2.3,4.6-3.5
						C443.5,398.9,445.2,400.3,448.4,401.7z"/>
					<path class="st25" d="M451.6,410.6c-0.7,0-1.5,0.2-2.1,0.6c-0.9-1-1.8-2-2.8-2.8c2.9-1.6,6.6-1.9,9.4-0.4
						c0.1,0.1,0.2,0.1,0.3,0.2c0,0,0.1,0,0.1,0c1.3,0.9,2.4,2.4,3.2,4c1.1,2.4,1.4,5.1,0.2,7.2c-0.7,1.3-2,2.3-3.6,2.9
						c-0.5-1.3-1.1-2.7-1.9-4.1c2-1,1.5-3.1,1.2-4C455,412,453.9,410.8,451.6,410.6z"/>
					<path class="st25" d="M443.5,411.6c0.8-1.3,1.9-2.4,3.3-3.1c0.9,0.8,1.9,1.8,2.8,2.8c-0.3,0.3-0.6,0.6-0.8,1.1
						c-0.4,1-0.4,2.2-0.1,3.2c0.7,2,2.8,3.7,4.9,3.2c0.4-0.1,0.7-0.2,1-0.4c0.7,1.4,1.4,2.7,1.9,4.1c-2.7,1.1-6.1,1-8.2-0.2
						C444.7,420.2,441.2,415.6,443.5,411.6z"/>
					<path class="st25" d="M432.9,375.7c0.6,0.9-0.1,2.1-1.1,2.4c-0.2,0.1-0.3,0.1-0.5,0.2c-0.9-0.8-1.8-1.7-2.8-2.5
						c0.4-0.2,0.8-0.4,1.2-0.6C430.7,374.9,432.3,374.7,432.9,375.7z"/>
					<path class="st30" d="M425.8,386.3c0.3,0.4,3.5,6.7,3.1,7c-0.1,0-0.5,0-1.1-0.2c-1.7-2.8-4-5.9-6.6-9
						C423.3,384.9,425.5,386,425.8,386.3z"/>
					<path class="st25" d="M427.2,369.5c0.5,1.6,0.5,3.1-0.1,4.7c0,0.1-0.1,0.2-0.1,0.3c-1.4-1.2-2.9-2.5-4.4-3.7c0,0,0-0.1,0-0.1
						C422,368.6,426.6,367.3,427.2,369.5z"/>
					<path class="st30" d="M428.7,375.9c-0.3,0.2-0.6,0.4-0.9,0.5c-0.4-0.4-0.8-0.9-1.2-1c0,0,0-0.1,0.1-0.1
						c0.2-0.2,0.3-0.6,0.4-0.9C427.6,374.9,428.1,375.4,428.7,375.9z"/>
					<path class="st37" d="M443.6,394c-1.4-0.5-3.9,1.8-5.5,2.9c-1.8,1.3-4.5,2.7-6.9,4.3c-0.1-0.8-0.3-1.8-0.7-2.8
						c1.5-0.1,3.2-0.9,3.4-2.5c0.3-2.2-1.1-5.1-1.8-7.1c-0.7-1.9-1.4-4.9-3.3-6c-1-0.6-2.2-1-3.3-1.4l0.4-1.1
						c0.5,0.2,0.9,0.2,1.5,0.1c1.5-0.3,2.7-1.4,4-2.1c1.9,1.7,3.8,3.5,5.7,5.4c3.6,4.5,7.1,6.5,9.4,11.3
						C444.9,394.4,445.2,394.6,443.6,394z"/>
					<path class="st25" d="M428.7,375.9c0.9,0.8,1.8,1.6,2.8,2.5c-1.3,0.7-2.6,1.8-4,2.1c-0.5,0.1-1,0-1.5-0.1
						c-1-0.4-1.8-1.2-2.6-1.9c-1.1-0.9-2-1.7-1.3-3.2c0.7-1.6,1.2-2.6,0.7-4.4c1.5,1.2,3,2.4,4.4,3.7c-0.1,0.3-0.2,0.6-0.4,0.9
						c0,0,0,0.1-0.1,0.1c0.4,0.1,0.8,0.5,1.2,1C428.1,376.3,428.4,376.1,428.7,375.9z"/>
					<path class="st28" d="M421.3,384.1c2.6,3.1,4.9,6.2,6.6,9c-2.4-0.7-7.8-2.7-8.3-3.1c-0.8-0.5-2-6.6-1.7-6.9
						C418.2,382.8,419.7,383.4,421.3,384.1z"/>
					<path class="st25" d="M432.1,388.9c0.7,2,2.1,4.9,1.8,7.1c-0.2,1.6-1.9,2.4-3.4,2.5c-0.6-1.6-1.5-3.4-2.6-5.3
						c0.6,0.1,0.9,0.2,1.1,0.2c0.4-0.3-2.8-6.6-3.1-7c-0.3-0.3-2.6-1.4-4.6-2.3c-1.6-1.9-3.4-3.9-5.2-5.8c0.6,0,1.2,0.1,1.6,0.4
						c1.8,0.7,3.5,1.3,5.3,2c0.8,0.3,1.6,0.5,2.4,0.8c1.2,0.4,2.4,0.8,3.3,1.4C430.7,384,431.4,386.9,432.1,388.9z"/>
					<path class="st25" d="M406.4,369c5.4,0.8,11.8,2.3,12.8,3.4c1.3,1.4-0.9,2.5-1.8,2.7c-1.2,0.3-2.3,0.6-3.3,1.1
						c-0.8-0.8-1.6-1.6-2.4-2.4c0.4-0.1,0.8-0.3,1.3-0.4c-0.7-0.2-1.5-0.3-2.2-0.4C409.3,371.5,407.9,370.2,406.4,369z"/>
					<path class="st25" d="M427.9,393.1c1.2,1.9,2.1,3.7,2.6,5.3c-0.5,0-1,0-1.4-0.2c-2.8-1-5.7-1.9-8.5-2.9
						c-1.4-0.5-3.9-0.9-4.8-2.1c-0.9-1.1-1.1-3.4-1.4-4.7c-0.6-2.2-1.2-4.5-1.8-6.7c-0.1-0.2-0.2-0.5-0.1-0.8
						c-0.1-1.6,1.9-2.7,3.7-2.8c1.8,1.9,3.5,3.9,5.2,5.8c-1.6-0.7-3.1-1.2-3.3-1c-0.3,0.3,0.9,6.4,1.7,6.9
						C420.1,390.4,425.5,392.4,427.9,393.1z"/>
					<path class="st30" d="M410.8,372.9c0.7,0.1,1.5,0.2,2.2,0.4c-0.4,0.1-0.9,0.3-1.3,0.4C411.4,373.5,411.1,373.2,410.8,372.9z"/>
					<path class="st28" d="M410.8,372.9c0.3,0.3,0.6,0.5,0.9,0.8c-1.1,0.4-2.2,0.9-3.2,1.4c-1.7,0.9-2.9,2-4,3.2
						c-0.5-2.1-0.7-4.3-1.2-6.3c1.5,0.1,3,0.2,4.5,0.4C408.7,372.6,409.7,372.8,410.8,372.9z"/>
					<path class="st25" d="M407.9,372.5c-1.5-0.2-3-0.3-4.5-0.4c0.4,1.9,0.7,4.2,1.2,6.3c1.1-1.2,2.3-2.3,4-3.2
						c1-0.6,2.1-1.1,3.2-1.4c0.8,0.8,1.6,1.6,2.4,2.4c-2.8,1.1-5.2,2.8-7.2,5.1c-0.8,1-1.5,2-2.8,2.4c-0.4,0.1-0.9,0.2-1.5,0.2
						c-2,0-4.7-14.2-3.8-15.1c0.6-0.5,3.9-0.3,7.7,0.2c1.4,1.2,2.9,2.5,4.3,3.9C409.7,372.8,408.7,372.6,407.9,372.5z"/>
					<path class="st38" d="M404,387.2c-0.3,0-7.7,3.2-12.1,2.6c-2.6-0.4-7.3-2.5-9.9-2.6c-0.6,0-6.7,1.9-13.3,4.3l-0.9-2.5
						c2.7-1.5,6.1-7.7,13.8-10.7c1.9-0.8-7.1-4.7-10.9-4.7l0-3.4c1.3,0.1,2.6-0.1,4-1c5.8-3.7,10.8-7.4,17.5-9.3
						c5,2.7,10.3,5.7,14.4,9.1c-3.8-0.6-7.1-0.8-7.7-0.2c-1,0.8,1.8,15.1,3.8,15.1c0.6,0,1.1-0.1,1.5-0.2L404,387.2L404,387.2z"/>
					<path class="st37" d="M421.9,375.2c-0.7,1.5,0.3,2.2,1.3,3.2c0.8,0.7,1.6,1.6,2.6,1.9l-0.4,1.1c-0.8-0.3-1.7-0.5-2.4-0.8
						c-1.8-0.7-3.5-1.3-5.3-2c-0.4-0.3-1-0.4-1.6-0.4c-0.7-0.7-1.4-1.4-2.1-2.1c1.1-0.4,2.2-0.8,3.3-1.1c0.9-0.2,3.2-1.3,1.8-2.7
						c-1-1.1-7.4-2.6-12.8-3.4c-4-3.4-9.4-6.5-14.4-9.1c0.3-0.1,0.7-0.2,1.1-0.3c1.5-0.4,3.7-2.4,1.8-3.8c-0.7-0.5-1.5-1-2.4-1.4
						l0.6-1.4c0.8,0.3,1.6,0.7,2.3,1c1.7,0.8,4.5,1.9,6.2,2.8c0,0.8-4.6,1.6-3.8,2.4c1.1,1,6.5,4.4,7.6,4.5c1.8,0.2,3.4-1.2,5.7-1.1
						c4.1,2.6,7.9,5.3,11.5,8.2C423.1,372.6,422.7,373.6,421.9,375.2z"/>
					<path class="st39" d="M384.6,355.4c1.5-0.2,5.2,1.4,5.2,1.6c-0.3,0.1-0.9,0.3-1.8,0.7c0,0,0,0,0,0c-1.4-0.7-2.8-1.4-4.2-2
						C384,355.6,384.3,355.4,384.6,355.4z"/>
					<path class="st25" d="M389.7,357c0-0.2-3.6-1.9-5.2-1.6c-0.3,0.1-0.6,0.2-0.9,0.3c0,0,0,0,0,0c-1.3-0.6-2.5-1.1-3.8-1.6
						c2-1,3.9-2,5.8-1.5c1.8,0.5,4.5,0.8,7,1.9c0.8,0.4,1.6,0.8,2.4,1.4c1.9,1.4-0.3,3.4-1.8,3.8c-0.4,0.1-0.7,0.2-1.1,0.3
						c-1.4-0.8-2.8-1.5-4.2-2.2C388.8,357.3,389.4,357.1,389.7,357z"/>
					<path class="st39" d="M387.9,357.7c-3.9,1.7-12.6,5.8-16.1,8.7c-1.1,0.3-4.6-1.2-4.6-1.8c3.7-2.3,11.8-7.1,16.5-8.9
						c0,0,0,0,0,0C385,356.3,386.4,357,387.9,357.7z"/>
					<path class="st25" d="M379.8,354c1.3,0.5,2.5,1.1,3.8,1.6c-4.8,1.9-12.8,6.6-16.5,8.9c0,0.6,3.5,2.1,4.6,1.8
						c3.5-2.9,12.2-7,16.1-8.7c0,0,0,0,0,0c1.4,0.7,2.8,1.4,4.2,2.2c-6.7,1.9-11.6,5.6-17.5,9.3c-1.4,0.9-2.7,1.1-4,1
						c-2.8-0.2-5.6-2-8.5-2.8c-1.8-0.5-1.5-2.5-0.3-3.4c5.3-3.8,11.1-6.7,17-9.4C379.2,354.3,379.5,354.2,379.8,354z"/>
					<path class="st28" d="M393.6,396.5c-0.1-1.1-2.9-0.5-3.4,0.2c-2.7,3.3-5.2,6.7-7.6,10.7c-0.6,1.6-5.1-0.4-4.4-1.9
						c0.6-1.4,6.6-7.4,8.4-9.1c0.7-0.7,0.1-1.9-0.9-2.2c-6.2-1.4-6.1-1-11.9,2.1c-2.6,1.4-7.9,5.1-10.5,5.4c-2.2,0.3-3-1-6-2.2
						c5.6-1.9,7.8-3.1,13.4-5c3.6-1.2,8-3,10.1-2.9c4.2,0.2,8.1,2.3,12.6,1.8c3.4-0.4,7.9-1.5,10.9-3.2c1.8,0.3,1,0.5-1.6,1.9
						c-0.4,0.2-0.4,1.2,0.4,1.8c2.6,2.3,6.6,5.4,7.7,7.3c0.4,0.7-0.7,1.2-1.4,1.2c-2.9-3.4-5.9-5.2-8.4-7.5
						c-0.4-0.3-3.8,0.7-3.6,1.5c0.4,2.7,0.5,5.4,0.8,8.1c0.3,2.9,0.8,3.7-1.4,4.5c-3.5,1.2-3.1,0.6-3.1-1
						C393.7,405.2,393.9,401.1,393.6,396.5z"/>
					<path class="st25" d="M369,350c-1.8-0.6-3.5-1.2-5.1-1.8c1.7-0.6,3.3-0.9,5.4-0.5c2.4,0.5,5.6,0.9,8.6,2.9
						c1.3,0.9,0.3,1.6-1,2.2C374.3,351.9,371.8,351,369,350z"/>
					<path class="st38" d="M373.2,412.4c-2.4-1.7-6.4-2.2-10.2-2.5l0.4-4.5c1.2,0.1,2.2,0.1,2.7-0.1c2.4-1.3,12.8-8.5,14-8.8
						c0,0,2.4-0.2,1.7,0.5c-2.2,2.3-10.6,9.2-10.4,9.6c0.6,1.9,12.5,7.9,14.3,5.7c1.9-2.4,2.7-7,4.3-10c-0.1,4-2,9.1,0.3,11.1
						c2.8,2.3,10.3-2,12.7-3.4c0.4-0.2-0.7-6.6-1.3-9.3c2.4,2.2,4.7,4.8,6.3,6.8c0.7,0.8,9.8-4.5,9.3-5.1c-3-3.6-6.8-6.2-10.3-9.2
						c1.3-0.6,2.4-1.4,3.3-2.7c0.2-0.3-3.5-3.4-6.1-3.3v-3.5c1.3-0.4,2-1.4,2.8-2.4c1.9-2.3,4.3-4,7.2-5.1c0.7,0.7,1.4,1.4,2.1,2.1
						c-1.8,0-3.8,1.2-3.7,2.8c0,0.3,0,0.5,0.1,0.8c0.6,2.2,1.2,4.5,1.8,6.7c0.4,1.4,0.5,3.6,1.4,4.7c0.9,1.2,3.5,1.6,4.8,2.1
						c2.8,1,5.7,2,8.5,2.9c0.4,0.1,0.9,0.2,1.4,0.2c0.4,1,0.6,2,0.7,2.8c-3.5,2.3-6.6,4.9-6.6,8.2c0,2.5,6.9,9.6,6.4,11.8
						c-0.7,2.7-5.3,2.2-8.5,2.6c-3.6,0.4-7.2,0.7-10.8,1c-9.5,0.7-20.2,1.9-29.7,1C374.7,425,375,413.7,373.2,412.4z"/>
					<path class="st39" d="M349.4,359.6c4-2.6,12.5-7.1,16.9-9.2c0.7-0.3,3.9,1,5.7,1.3c-2.5,0.9-15.7,8.3-17.7,9.1
						C353.7,361.1,349.7,360.3,349.4,359.6z"/>
					<path class="st25" d="M363.4,401.7c2.6-0.3,8-4,10.5-5.4c5.8-3.1,5.7-3.5,11.9-2.1c0.9,0.2,1.6,1.5,0.9,2.2
						c-1.8,1.7-7.8,7.7-8.4,9.1c-0.7,1.5,3.8,3.5,4.4,1.9c2.3-3.9,4.8-7.4,7.6-10.7c0.5-0.7,3.3-1.2,3.4-0.2
						c0.4,4.5,0.1,8.7,0.1,11.5c0,1.6-0.4,2.2,3.1,1c2.2-0.8,1.8-1.6,1.4-4.5c-0.3-2.7-0.4-5.4-0.8-8.1c-0.1-0.8,3.3-1.9,3.6-1.5
						c2.5,2.3,5.5,4.1,8.4,7.5c0.7,0,1.8-0.5,1.4-1.2c-1.1-1.9-5.1-5-7.7-7.3c-0.8-0.7-0.8-1.7-0.4-1.8c2.6-1.4,3.4-1.6,1.6-1.9
						c-3,1.6-7.5,2.7-10.9,3.2c-4.5,0.5-8.4-1.5-12.6-1.8c-2-0.1-6.5,1.7-10.1,2.9c-5.6,1.9-7.8,3.1-13.4,5
						C360.4,400.7,361.2,401.9,363.4,401.7z M363.4,405.4c-4.7-0.5-13.1-3.5-12.3-5.8c0-0.1,0.1-0.2,0.2-0.3c1.3-1.6,9.7-5,17.4-7.8
						c6.6-2.4,12.7-4.4,13.3-4.3c2.6,0.1,7.3,2.2,9.9,2.6c4.4,0.6,11.9-2.6,12.1-2.6h0c2.6-0.1,6.3,3,6.1,3.3c-0.9,1.3-2,2-3.3,2.7
						c3.5,3,7.4,5.6,10.3,9.2c0.5,0.6-8.7,6-9.3,5.1c-1.6-2-3.9-4.7-6.3-6.8c0.7,2.7,1.7,9.1,1.3,9.3c-2.4,1.3-9.9,5.7-12.7,3.4
						c-2.4-2-0.5-7.1-0.3-11.1c-1.6,3-2.3,7.6-4.3,10c-1.8,2.2-13.7-3.8-14.3-5.7c-0.1-0.5,8.2-7.4,10.4-9.6
						c0.7-0.7-1.6-0.4-1.7-0.5c-1.2,0.3-11.6,7.5-14,8.8C365.6,405.5,364.6,405.6,363.4,405.4z"/>
					<path class="st36" d="M353.5,420.7c1.4,0.3,2.9,7.3,2.4,8.5c-0.3,0.7-7.4,0.1-7.4-0.8C348.5,427.5,352.3,420.7,353.5,420.7z"/>
					<path class="st25" d="M349.4,359.6c0.3,0.7,4.3,1.5,4.8,1.3c2-0.8,15.2-8.2,17.7-9.1c-1.8-0.3-4.9-1.6-5.7-1.3
						C362,352.5,353.4,356.9,349.4,359.6z M357.3,363.6c-4.6,2.6-8.2,0.7-12.9-0.6c-1.8-0.5-1.5-2.5-0.2-3.4
						c5.5-4,11.3-7.4,17.4-10.3c0.8-0.4,1.5-0.8,2.3-1c1.6,0.5,3.3,1.1,5.1,1.8c2.8,1,5.4,1.9,7.9,2.8c-0.7,0.3-1.4,0.5-1.9,0.7
						C367.7,356.5,363.9,359.9,357.3,363.6z"/>
					<path class="st23" d="M385,438.3c-12.8,0.1-25.2-0.7-37.4-2.3l0.5-3.8c0.9,0.1,1.8,0.2,2.8,0.3c1.9,0.3,3.9,0.3,5.9,0.3
						c0.9,0,2.9-0.9,3.1-2c0.4-2-0.4-4.8-0.7-6.8c-0.4-1.9-0.8-4.4-2.1-5.9c-0.2-0.3-0.8-0.4-1.4-0.5l0.5-3.6
						c0.8,0.1,1.5,0.2,2.3,0.3c2.3,0.4,7.6,0.1,9.4,1.6c4.6,3.5,3.4,11.7,6.1,13.1c5.2,2.7,16.5,1.3,22.1,1.1c7-0.3,14-0.8,20.9-1.4
						c5.5-0.5,15.5,0.8,19.2-4.5c0.5-0.7,2-3,0.5-5.3c-2.4-3.8-5.9-6.2-6.1-9.5c-0.1-1.6,2.7-2.9,5.1-4.7c0.5-0.4,1-0.8,1.6-1.1
						c3.2,0.4,6.4,2.3,9.4,5c-1.4,0.8-2.5,1.8-3.3,3.1c-2.3,4,1.2,8.7,4.7,10.7c2.2,1.2,5.6,1.3,8.2,0.2c1.6,4.2,1.9,8,0.1,9.9
						c-3.8,0.8-8.3,1.7-11.1,2.1c-6.4,0.8-14.2,1.5-20.6,2.2C411.5,438.1,398.4,438.2,385,438.3z"/>
					<path class="st25" d="M348.2,343.9c-0.2,0-0.3,0-0.5-0.1c0.8-0.1,1.7-0.1,2.4,0c1,0.2,7.2,0.6,10.2,2.4c0.5,0.3,0.7,0.7,0.7,1
						C356.6,345.7,352.7,344.5,348.2,343.9z"/>
					<path class="st25" d="M345.5,431.5c-1.5-0.7-1.4-3.3-0.8-4.4c1.2-2.2,1.9-3.1,3.1-5.2c0.3-0.6,1.2-2.5,1.8-3.1
						c1.1-0.8,2-1.4,3.5-1.3c0.4,0,1.6,0.1,2.6,0.2c0.6,0.1,1.1,0.3,1.4,0.5c1.4,1.5,1.8,3.9,2.1,5.9c0.4,1.9,1.1,4.8,0.7,6.8
						c-0.3,1.2-2.2,2.1-3.1,2c-2,0-4-0.1-5.9-0.3c-1-0.1-1.9-0.2-2.8-0.3C347.2,432.1,346.4,431.9,345.5,431.5z M348.5,428.4
						c0,0.9,7.1,1.5,7.4,0.8c0.4-1.2-1.1-8.2-2.4-8.5C352.3,420.7,348.5,427.5,348.5,428.4z"/>
					<path class="st39" d="M354.4,347.5c-1.3,0.3-7.6,3.3-9.8,4.5c-2,1.1-6.7,3.5-8.5,4.7c-0.4,0.3-5.3-0.5-5.3-1.1
						c3.9-2.6,12.3-7,16.5-9C348.3,346.4,354.4,347,354.4,347.5z"/>
					<path class="st25" d="M343.1,345.3c1.2-0.7,2.9-1.3,4.5-1.5c0.2,0,0.4,0,0.5,0.1c4.5,0.7,8.4,1.9,12.8,3.4
						c-0.1,0.8-2.2,1.5-3.4,1.9c-6.8,2.4-11.5,6.1-17.6,9.7c-4.5,2.6-8.4,1.2-13.3,0.3c-2-0.4-2.8-2.2-0.9-3.5
						C331.2,351.6,337,348.2,343.1,345.3z M354.4,347.5c0-0.6-6.1-1.2-7.1-0.9c-4.2,2-12.6,6.4-16.5,9c0,0.6,4.9,1.4,5.3,1.1
						c1.9-1.2,6.6-3.7,8.5-4.7C346.8,350.8,353.1,347.8,354.4,347.5z"/>
					<path class="st37" d="M351.3,342.6c1.7,0.4,3.3-0.4,4.8-0.9c0.6-0.1,2-0.9,3-0.7c11.7,2.8,23.2,7.4,34,11.9l-0.6,1.4
						c-2.5-1.1-5.2-1.4-7-1.9c-1.9-0.5-3.8,0.4-5.8,1.5c-1-0.4-2-0.8-3-1.2c1.3-0.6,2.3-1.3,1-2.2c-3-2-6.2-2.5-8.6-2.9
						c-2-0.4-3.7-0.1-5.4,0.5c-1-0.4-1.9-0.7-2.8-1c0.1-0.3-0.1-0.6-0.7-1c-3.1-1.9-9.3-2.2-10.2-2.4c-0.7-0.2-1.6-0.2-2.4,0
						c-4.1-0.5-10.3-0.2-15.2,1.7c0.4-0.4,0.7-0.8,1-1.3c0.3-0.5,0.2-1.2-0.1-1.7c-1.1-1.6-2.9-1.8-4.6-2.3
						c-0.6-0.2-1.2-0.3-1.9-0.4c1.4-0.4,4.7-1.4,6.3-1.5c2.5,0,5.1,0,7.6,0.1c1.7,0,4.8,0.3,6.5,0.5c-0.5,0.4-2.4,0.9-2.8,1.5
						c-0.3,0.3,1.8,0.8,2,0.9C348.2,341.8,349.7,342.2,351.3,342.6z"/>
					<path class="st38" d="M311.9,372.5c17.1,6.7,50,16.9,54.6,16.9c0.4,0,0.7-0.1,1.1-0.3l0.9,2.5c-7.7,2.8-16.1,6.2-17.4,7.8
						l-5-1.1c1.9-1.6,3.5-3.3,4.8-4.9c1.4-1.8-5-3.8-5.7-3.6c-4.5,1.3-6.6,1.9-10.1,3.3c-1.4,0.5-2.9-0.2-3.4-1.6
						c-1.5-4.5-3.3-6.8-8.5-9.1c-4.6-2-8.8-3.7-13.2-5.4L311.9,372.5z"/>
					<path class="st34" d="M308,338.2c-0.3-1.1,15.9-4.3,18-1.9c-1.1,0.2-3.8,1.2-4.2,3c-0.1,0.6-0.2,1.1,0,1.6
						c-1.1-0.3-2.3-0.3-3.5-0.4c-1.9-0.1-3,0.1-4.8,0.4c-1.1,0.1-1.9,0.2-2.7,0.4C309.7,340.2,308.4,338.7,308,338.2z"/>
					<path class="st38" d="M344.4,363c4.7,1.4,8.3,3.2,12.9,0.6c6.6-3.7,10.4-7.1,17.6-10c0.5-0.2,1.2-0.5,1.9-0.7
						c1,0.4,2,0.8,3,1.2c-0.3,0.1-0.6,0.3-0.9,0.5c-5.9,2.7-11.7,5.6-17,9.4c-1.3,0.9-1.6,2.9,0.3,3.4c2.9,0.8,5.7,2.6,8.5,2.8
						l0,3.4c-0.4,0-0.7,0.1-1,0.1c-2.2,0.8-6,3.4-7.1,3.5c-1.8,0.2-41.1-11.8-43.6-14.5c-1.1-1.1,3.1-3.2,2.6-3.4
						c-3.5-1.2-8.3-2.3-9.1-2L312,356c3.4-1.1,6.7-3.1,9.8-4.6c3.2-1.5,8-3.1,10.7-6c4.9-1.9,11.1-2.2,15.2-1.7
						c-1.6,0.2-3.3,0.8-4.5,1.5c-6.1,2.9-11.9,6.3-17.4,10.3c-1.8,1.3-1,3.2,0.9,3.5c4.9,0.9,8.9,2.3,13.3-0.3
						c6.1-3.6,10.8-7.3,17.6-9.7c1.2-0.4,3.3-1.1,3.4-1.9c0.9,0.3,1.9,0.6,2.8,1c-0.7,0.3-1.5,0.6-2.3,1
						c-6.1,2.9-11.9,6.3-17.4,10.3C342.9,360.5,342.6,362.5,344.4,363z"/>
					<path class="st39" d="M363.2,380.9c1.9,0,6.5-3.5,7.5-3.5c0.8-0.1,4.2,0.4,3.3,1c-2.6,1.3-8.4,6.9-8.9,7.4
						c-14.6-3.5-54.2-15.9-58-19.9c-1-1,4.2-5,5.2-5.7c0.6-0.4,4,0.3,3.3,0.7c-1.2,0.7-3.5,2.8-3,3.4
						C315.7,367.9,359.5,380.9,363.2,380.9z"/>
					<path class="st38" d="M327.6,410.1c5.5-2.7,13-7.1,18.6-11.9l5,1.1c-0.1,0.1-0.1,0.2-0.2,0.3c-0.8,2.3,7.6,5.3,12.3,5.8
						l-0.4,4.5c-2.4-0.2-4.8-0.3-6.6-0.5c-5.1-0.7-12.3-2.9-17.3-0.9c-4,1.6-5.1,7.4-8.4,9.1c-4.4,2.3-16.2-1.4-21-2.3
						c-14.9-3.1-31.3-8.2-44.7-15.9c4.8-3,5.8-3.1,5.7-5.3c-0.2-4.4-1.1-15.4-2.4-17c-0.7-0.8-1.3-0.8-4.4-1
						c5.9-7.5,13.9-15.9,21.7-20c7.3-3.8,16.1,1.6,24,0.4c0.8-0.1,1.6-0.3,2.4-0.5l0.5,1.4c-4.5,1.8-8.5,4.7-10.9,9.7
						c-0.2,0.9,4,2.9,10.3,5.4l-1.7,4.5c-3-1.2-5.9-2.3-9.1-3.6c-3.7-1.5-6.5-3.5-10.3-1.9c-4.3,1.9-10.4,7.2-12.8,9.9
						c-0.7,0.8-0.1,5.1,0,5.8c0.3,2.4,0.2,6.6,1.1,8.8c1.4,3.5,7.2,3.4,8.3,2.7c1.2-0.7,2.2-8.1,4.7-13c0.6-1.2,1.9-2.1,3.2-1.6
						c4.7,1.7,18.9,6.6,21.5,8.8C320.3,395.8,322.7,412.5,327.6,410.1z"/>
					<path class="st25" d="M312.7,364.2c-0.4-0.6,1.9-2.6,3-3.4c0.8-0.4-2.7-1.2-3.3-0.7c-1,0.8-6.2,4.7-5.2,5.7
						c3.8,3.9,43.3,16.3,58,19.9c0.5-0.5,6.2-6.2,8.9-7.4c0.9-0.6-2.6-1.1-3.3-1c-1,0.1-5.6,3.5-7.5,3.5
						C359.5,380.9,315.7,367.9,312.7,364.2z M318.9,362.8c2.5,2.7,41.8,14.7,43.6,14.5c1.1-0.1,4.9-2.7,7.1-3.5
						c0.3-0.1,0.6-0.1,1-0.1c3.7,0,12.8,3.9,10.9,4.7c-7.7,3.1-11.1,9.2-13.8,10.7c-0.4,0.2-0.8,0.3-1.1,0.3
						c-4.6,0-37.5-10.2-54.6-16.9c-6.4-2.5-10.6-4.5-10.3-5.4c2.4-5,6.4-7.9,10.9-9.7c0.8-0.3,5.6,0.8,9.1,2
						C322,359.6,317.9,361.7,318.9,362.8z"/>
					<path class="st36" d="M302.8,338.6c0.3,0.3,2.8,3,3.1,3.3c0.2,0.1-0.7,0.5-1.2,0.4c-3.1-0.6-9.1-1-11.1-1.6
						C295.9,339.6,301.6,338.3,302.8,338.6z"/>
					<path class="st23" d="M321,386.3c5.2,2.5,5.9,6.2,7.5,11.9c0.4,1.5,11.8-2.7,15.6-4.1c-3.1,2.5-14.2,9.5-16.4,10.3
						c-0.6-1.1-3.8-11.4-6.2-14c-2.2-2.3-26.1-12-28.3-11.2c-0.7,0.3-3.8,2.3-5.3,3.8c-0.9,1-2,10-2.9,12.1
						c-0.9-0.3-1.6-0.6-2.1-0.9c-0.8-0.5-1-7.6-1-9.7c0-1.3,7.6-8.2,11.4-10c0,0,9.1,3.7,11.7,4.8
						C310.3,381.7,315.8,383.8,321,386.3z"/>
					<path class="st25" d="M344.1,394.2c-3.8,1.4-15.2,5.6-15.6,4.1c-1.6-5.7-2.3-9.4-7.5-11.9c-5.2-2.5-10.7-4.6-16.1-6.9
						c-2.6-1.1-11.6-4.8-11.7-4.8c-3.8,1.8-11.4,8.7-11.4,10c0,2.1,0.2,9.2,1,9.7c0.5,0.3,1.2,0.6,2.1,0.9c0.9-2.2,2-11.1,2.9-12.1
						c1.4-1.5,4.6-3.5,5.3-3.8c2.2-0.9,26.1,8.8,28.3,11.2c2.4,2.6,5.6,12.9,6.2,14C330,403.7,341,396.6,344.1,394.2z M351,393.3
						c-1.3,1.6-2.9,3.3-4.8,4.9c-5.6,4.8-13.1,9.1-18.6,11.9c-4.9,2.4-7.3-14.2-11-17.2c-2.6-2.1-16.7-7-21.5-8.8
						c-1.2-0.4-2.6,0.5-3.2,1.6c-2.5,4.9-3.5,12.3-4.7,13c-1.1,0.7-6.9,0.8-8.3-2.7c-0.8-2.2-0.8-6.3-1.1-8.8
						c-0.1-0.8-0.7-5.1,0-5.8c2.4-2.7,8.5-8,12.8-9.9c3.8-1.6,6.6,0.4,10.3,1.9c3.1,1.3,6.1,2.4,9.1,3.6c4.3,1.7,8.6,3.4,13.2,5.4
						c5.2,2.3,7,4.6,8.5,9.1c0.5,1.4,2,2.1,3.4,1.6c3.5-1.3,5.5-2,10.1-3.3C346,389.5,352.4,391.5,351,393.3z"/>
					<path class="st36" d="M251.4,389.6c0.1,1.5-0.6,2.9-1.8,3.6c-1.7,0.4-3.7,0.8-4.1-1.5c-0.3-1.4-0.1-1.9,0.6-3.1
						c0.2-0.3,1.4-1.2,1.9-1.3C249.6,387,251.2,387.3,251.4,389.6z"/>
					<path class="st25" d="M251.4,389.6c-0.2-2.4-1.8-2.6-3.5-2.3c-0.4,0.1-1.7,1-1.9,1.3c-0.7,1.2-0.8,1.8-0.6,3.1
						c0.5,2.3,2.4,1.9,4.1,1.5C250.8,392.6,251.6,391.2,251.4,389.6z M252.5,395.7c-0.8,0.5-2.4,1-3.3,1.1c-3.4,0.5-7.2,0.2-8.3-3.5
						c-1.1-3.6,1.6-7.2,4.8-8.5c3.1-1.2,8.8-0.9,10.4,2.5C257.8,390.5,255.3,394,252.5,395.7z"/>
					<path class="st23" d="M245.7,384.7c-3.3,1.3-5.9,4.9-4.8,8.5c1.1,3.7,4.9,4.1,8.3,3.5c1-0.1,2.5-0.6,3.3-1.1
						c2.8-1.7,5.3-5.1,3.7-8.4C254.5,383.9,248.8,383.5,245.7,384.7z M346.2,412.7c3.4,0.4,6.7,0.8,10,1.3l-0.5,3.6
						c-1-0.2-2.2-0.2-2.6-0.2c-1.4-0.1-2.4,0.5-3.5,1.3c-0.6,0.6-1.5,2.5-1.8,3.1c-1.2,2.2-1.9,3-3.1,5.2c-0.6,1.2-0.7,3.8,0.8,4.4
						c0.9,0.4,1.8,0.6,2.7,0.8l-0.5,3.8c-22.9-2.9-45.2-8.4-68-15.9c-9.6-3.1-19.1-6.8-28.1-11.4c-4.5-2.3-14.5-6.9-17.6-10.9
						c-1.2-1.5,2.6-7.1,5.5-12.2c5-8.8,12.7-15.9,20.2-22.5c7.8-6.8,16.3-15.1,25.7-19.4c0.9-0.4,1.8-0.8,2.7-1.1
						c0.1,0.3,0,0.4,0.2,0.8c0.2,0.2,4.1,0.8,7.1,1c1.5,0.1,3.9,0.3,5.4,0.4c1.8,0.1,3.6,0.5,5.4,0.4c1.3,0,5.6-1.9,5.2-2.7
						c-0.2-0.3-0.5-0.7-1-1.3c0.8-0.2,1.6-0.3,2.7-0.4c1.8-0.2,3-0.5,4.8-0.4c1.2,0.1,2.4,0,3.5,0.4c0.2,0.5,0.7,0.9,1.7,1.2
						c3.8,1.2,5.3,1.6,4.3,2.2c-3.7,1.9-11,5.6-15.2,7.2c-3.8,1.4-3.3,1-8.2,0.5c-7.8-0.7-13.8-2.2-16.5-1.2
						c-10.2,4.1-22.6,14.9-29.3,24c-1.4,1.9-0.1,5.7,1.8,5.7c0.8,0,4-0.3,4.5,0.2c0.9,1.2,1.2,10.7,1.2,12.2c0,0.6-1.3,1.3-5.9,4.2
						c-2.2,1.4-1.3,4.7,0,5.5c11.1,6.8,21.4,9.5,33.8,13.4c5.7,1.8,11.4,3.1,17.2,4.2c5.8,1.1,13.6,3.6,19.4,2.7
						c3-0.4,3.3-1.1,5.4-3.7C339.3,415,340.4,412.1,346.2,412.7z"/>
					<path class="st25" d="M304.7,342.4c0.5,0.1,1.4-0.3,1.2-0.4c-0.3-0.3-2.8-3.1-3.1-3.3c-1.2-0.3-6.9,1-9.2,2.1
						C295.6,341.4,301.5,341.7,304.7,342.4z M346,335.3c18.6,0.9,37.5,8.7,54.5,15.9c21.8,9.9,40.3,24.1,48.4,37.6
						c1.1,1.8,3.6,0.1,7.1,3.8c4.1,4.2,18.3,28.8,15.5,35.5c-1.5,3.5-6.9,6.5-10.3,7.6c-12,3.9-26.7,3.8-39.2,5.1
						c-16.7,1.8-33.6,2-50.5,1.6c-19.2-0.5-37.7-3.7-56.3-8.3c-24.3-6-49.4-12.2-71.6-24.3c-3.4-1.9-11.6-5.5-13.7-8.8
						c-1.9-2.9-0.6-4.2,0.5-7.5c3.3-9.3,8.9-16.3,15.8-23.2c11.6-11.6,29.2-28.3,45.7-32.7c10.4-2.8,19.4-4.7,31.8-5.1
						c5.8-0.5,6.4,2.5,11,2.5C337.9,335.1,344.3,335.2,346,335.3z M346.2,412.7c-5.8-0.6-6.9,2.3-10.4,6.6c-2.1,2.6-2.4,3.2-5.4,3.7
						c-5.8,0.9-13.7-1.6-19.4-2.7c-5.8-1.1-11.6-2.4-17.2-4.2c-12.4-3.9-22.7-6.6-33.8-13.4c-1.3-0.8-2.2-4.1,0-5.5
						c4.6-2.9,5.9-3.6,5.9-4.2c0.1-1.5-0.2-11-1.2-12.2c-0.5-0.5-3.6-0.3-4.5-0.2c-1.9,0.1-3.2-3.8-1.8-5.7c6.7-9.2,19-20,29.3-24
						c2.6-1,8.7,0.4,16.5,1.2c5,0.5,4.4,0.9,8.2-0.5c4.2-1.6,11.5-5.2,15.2-7.2c1-0.5-0.4-1-4.3-2.2c-1-0.3-1.5-0.7-1.7-1.2
						c-0.2-0.5-0.1-1,0-1.6c0.5-1.8,3.2-2.7,4.2-3c-2-2.4-18.2,0.7-18,1.9c0.4,0.5,1.7,2,2.7,3.1c0.4,0.5,0.8,1,1,1.3
						c0.4,0.8-3.9,2.6-5.2,2.7c-1.8,0-3.6-0.3-5.4-0.4c-1.5-0.1-3.9-0.3-5.4-0.4c-3-0.3-6.9-0.8-7.1-1c-0.3-0.4-0.2-0.5-0.2-0.8
						c-0.9,0.3-1.9,0.7-2.7,1.1c-9.5,4.4-18,12.6-25.7,19.4c-7.5,6.6-15.2,13.7-20.2,22.5c-2.9,5.1-6.7,10.7-5.5,12.2
						c3.1,4,13.1,8.5,17.6,10.9c9,4.6,18.4,8.3,28.1,11.4c22.7,7.5,45,13,68,15.9c12.2,1.6,24.6,2.3,37.4,2.3
						c13.3-0.1,26.5-0.1,39.7-1.6c6.4-0.7,14.2-1.4,20.6-2.2c2.9-0.4,7.3-1.2,11.1-2.1c1.6-0.3,3-0.7,4.2-1
						c7.7-1.9,5.4-10.9,0.7-19.9c-2.1-4-4.7-8.1-7.2-11.5c-1,1.1-4.7,2.2-5.8,1.8c-3.1-1.4-4.9-2.9-6.4-1.8
						c-1.6,1.2-3.1,2.4-4.6,3.5c-0.5,0.4-1.1,0.8-1.6,1.1c-2.4,1.8-5.2,3.1-5.1,4.7c0.2,3.3,3.7,5.7,6.1,9.5c1.5,2.3,0,4.6-0.5,5.3
						c-3.7,5.3-13.7,4-19.2,4.5c-6.9,0.6-13.9,1.1-20.9,1.4c-5.6,0.3-16.9,1.7-22.1-1.1c-2.6-1.4-1.4-9.5-6.1-13.1
						c-1.9-1.4-7.1-1.2-9.4-1.6c-0.8-0.1-1.5-0.2-2.3-0.3C352.9,413.5,349.5,413.1,346.2,412.7z M356.1,341.7
						c-1.5,0.4-3.1,1.3-4.8,0.9c-1.6-0.4-3.1-0.8-4.7-1.3c-0.3-0.1-2.3-0.6-2-0.9c0.4-0.6,2.3-1.1,2.8-1.5c-1.7-0.2-4.8-0.5-6.5-0.5
						c-2.6-0.1-5.1-0.1-7.6-0.1c-1.6,0.1-5,1.1-6.3,1.5c0.7,0.1,1.3,0.2,1.9,0.4c1.8,0.5,3.5,0.7,4.6,2.3c0.3,0.4,0.4,1.2,0.1,1.7
						c-0.3,0.5-0.6,0.9-1,1.3c-2.7,2.8-7.5,4.4-10.7,6c-3.1,1.5-6.4,3.5-9.8,4.6c-0.8,0.3-1.6,0.4-2.4,0.5c-7.9,1.1-16.7-4.2-24-0.4
						c-7.8,4.1-15.9,12.5-21.7,20c3.1,0.2,3.7,0.1,4.4,1c1.3,1.5,2.2,12.6,2.4,17c0.1,2.1-0.9,2.3-5.7,5.3
						c13.4,7.7,29.8,12.7,44.7,15.9c4.7,1,16.5,4.7,21,2.3c3.3-1.7,4.4-7.5,8.4-9.1c5-2,12.2,0.2,17.3,0.9c1.8,0.3,4.1,0.4,6.6,0.5
						c3.8,0.3,7.8,0.8,10.2,2.5c1.8,1.3,1.6,12.6,8.8,13.3c9.5,0.9,20.2-0.2,29.7-1c3.6-0.3,7.2-0.6,10.8-1c3.3-0.4,7.9,0.2,8.5-2.6
						c0.5-2.2-6.4-9.3-6.4-11.8c0-3.2,3.1-5.9,6.6-8.2c2.4-1.6,5-3,6.9-4.3c1.5-1.1,4.1-3.5,5.5-2.9c1.6,0.6,1.3,0.4,2.9,1.1
						c-2.2-4.8-5.7-6.8-9.4-11.3c-1.9-1.9-3.8-3.7-5.7-5.4c0.1-0.1,0.3-0.2,0.5-0.2c0.9-0.4,1.7-1.5,1.1-2.4c-0.7-1-2.2-0.8-3.1-0.4
						c-0.4,0.2-0.8,0.4-1.2,0.6c-0.5-0.5-1.1-1-1.6-1.4c0-0.1,0.1-0.2,0.1-0.3c0.5-1.5,0.5-3.1,0.1-4.7c-0.6-2.2-5.2-0.9-4.6,1.2
						c0,0,0,0.1,0,0.1c-3.6-2.9-7.4-5.6-11.5-8.2c-2.3,0-3.9,1.3-5.7,1.1c-1.2-0.1-6.6-3.5-7.6-4.5c-0.8-0.8,3.8-1.6,3.8-2.4
						c-1.7-0.9-4.4-2-6.2-2.8c-0.8-0.3-1.5-0.7-2.3-1c-10.8-4.5-22.3-9.1-34-11.9C358.2,340.8,356.7,341.6,356.1,341.7z"/>
				</g>
				<g>
				</g>
			</g>
		</g>
	</g>
</g>
</svg>
