<?xml version="1.0" encoding="utf-8"?>
<!-- Generator: Adobe Illustrator 23.0.3, SVG Export Plug-In . SVG Version: 6.00 Build 0)  -->
<svg version="1.1" id="Calque_1" xmlns="http://www.w3.org/2000/svg" xmlns:xlink="http://www.w3.org/1999/xlink" x="0px" y="0px"
	 viewBox="0 0 841.9 595.3" style="enable-background:new 0 0 841.9 595.3;" xml:space="preserve">
<style type="text/css">
	.st0{fill:#007580;}
	.st1{enable-background:new    ;}
	.st2{fill:#009ABF;}
	.st3{fill:#46A7C8;}
	.st4{clip-path:url(#SVGID_2_);}
	.st5{fill:#B74654;}
	.st6{fill:#FFFFFF;}
	.st7{fill:#00707D;}
	.st8{fill:#F6B6C1;}
	.st9{fill:#007C98;}
	.st10{clip-path:url(#SVGID_4_);}
	.st11{fill:#0096BF;}
	.st12{fill:#9D414E;}
	.st13{fill:#EDECED;}
	.st14{fill:#4F331E;}
	.st15{fill:#58A132;}
	.st16{fill:#5D3C26;}
	.st17{fill:#34312E;}
	.st18{fill:#7C6757;}
	.st19{fill:#5C4B42;}
	.st20{fill:#EB8A3A;}
	.st21{fill:#E94E18;}
	.st22{fill:#F6C43F;}
	.st23{fill:#7E4F20;}
	.st24{fill:#946533;}
	.st25{fill:#683C15;}
	.st26{fill:#3B3735;}
	.st27{fill:#524E4C;}
	.st28{fill:#BDBBBA;}
	.st29{fill:#54504F;}
	.st30{fill:#474443;}
	.st31{fill:#482816;}
</style>
<g id="Sticker_3">
	<path class="st0" d="M263.3,193.9h-2v-34.6h2c1.8,0,3.3-1.5,3.3-3.3c0-1.8-1.5-3.3-3.3-3.3H258c-1.8,0-3.3,1.5-3.3,3.3v41.3
		c0,1.8,1.5,3.3,3.3,3.3h5.4c1.8,0,3.3-1.5,3.3-3.3S265.2,193.9,263.3,193.9z"/>
	<g class="st1">
		<g>
			<g id="XMLID_215_">
				<g>
					<polygon class="st2" points="308.6,73.9 309.3,108.8 300.1,143.7 299.1,102.5 					"/>
					<polygon class="st3" points="308.6,73.9 299.1,102.5 256.5,102.8 272.8,74.2 					"/>
					<polygon class="st3" points="299.1,102.5 300.1,143.7 258,143.7 256.5,102.8 					"/>
				</g>
				<g>
				</g>
			</g>
		</g>
	</g>
	<g>
		<g class="st1">
			<g>
				<polygon class="st3" points="353.6,268.1 311.1,267.7 257.1,254.1 306.5,254.3 				"/>
			</g>
			<g>
				<polygon class="st3" points="306.5,254.3 257.1,254.1 259.1,211.9 308.3,211.3 				"/>
			</g>
			<g>
				<polygon class="st3" points="354.8,231.7 353.6,268.1 306.5,254.3 308.3,211.3 				"/>
			</g>
		</g>
	</g>
	<path class="st0" d="M314.3,73.5C314.3,73.4,314.3,73.4,314.3,73.5c0-0.1,0-0.1,0-0.1c0-0.1,0-0.2,0-0.2c0-0.1,0-0.2,0-0.3
		c0-0.1-0.1-0.2-0.1-0.4c0-0.1,0-0.1-0.1-0.2c-0.1-0.1-0.1-0.2-0.2-0.3c0-0.1-0.1-0.1-0.1-0.2c0-0.1-0.1-0.1-0.1-0.2
		c-0.6-0.7-1.4-1.1-2.3-1.1c0,0,0,0-0.1,0c0,0,0,0,0,0l-40.5,1.8c0,0,0,0-0.1,0c-0.1,0-0.2,0-0.3,0c-0.1,0-0.2,0-0.3,0.1
		c-0.1,0-0.2,0.1-0.2,0.1c-0.1,0-0.2,0.1-0.3,0.1c-0.1,0-0.2,0.1-0.2,0.1c-0.1,0.1-0.2,0.1-0.3,0.2c-0.1,0.1-0.1,0.1-0.2,0.2
		c-0.1,0.1-0.1,0.1-0.2,0.2c-0.1,0.1-0.1,0.1-0.2,0.2c-0.1,0.1-0.1,0.2-0.2,0.3c0,0,0,0,0,0.1l-17,30.9c0,0.1-0.1,0.1-0.1,0.2
		c0,0.1-0.1,0.2-0.1,0.3c0,0.1-0.1,0.2-0.1,0.3c0,0.1,0,0.2-0.1,0.3c0,0.1,0,0.3,0,0.4c0,0.1,0,0.1,0,0.2l0,0.1c0,0,0,0,0,0l2.7,38
		c0,0,0,0,0,0.1c0,0.3,0.1,0.7,0.3,1c0,0,0,0.1,0.1,0.1c0.1,0.3,0.3,0.5,0.6,0.8c0,0,0.1,0.1,0.1,0.1c0.2,0.2,0.5,0.4,0.8,0.5
		c0,0,0.1,0,0.1,0c0.3,0.1,0.6,0.2,0.9,0.2l7.9,0.3c0,0,0.1,0,0.1,0c1.6,0,2.9-1.3,3-2.8c0.1-1.6-1.2-3-2.8-3.1l-5.3-0.2l-2.4-34.6
		l15.8-28.6l35.8-1.6l0.2,14.8c0,1.6,1.3,2.9,3,2.9c0,0,0,0,0,0c1.6,0,3-1.4,2.9-3L314.3,73.5z"/>
	<path class="st0" d="M265.2,214.6c1.8,0,3.3-1.5,3.3-3.3s-1.5-3.3-3.3-3.3h-8.1c-0.1,0-0.2,0-0.3,0c-0.1,0-0.2,0-0.3,0
		c-0.2,0-0.3,0.1-0.4,0.1c-0.1,0-0.1,0-0.2,0c-0.2,0.1-0.4,0.2-0.5,0.3c0,0,0,0,0,0c-0.4,0.2-0.7,0.5-0.9,0.8c0,0,0,0,0,0
		c-0.1,0.1-0.2,0.3-0.3,0.5c0,0,0,0.1-0.1,0.1c-0.1,0.1-0.1,0.3-0.2,0.4c0,0.1-0.1,0.2-0.1,0.2c0,0.1,0,0.2-0.1,0.4
		c0,0.1,0,0.2,0,0.2l-2.1,40.8c0,0,0,0.1,0,0.1c0,0.1,0,0.2,0,0.4c0,0.1,0,0.2,0,0.3c0,0.1,0.1,0.2,0.1,0.3c0,0.1,0.1,0.2,0.1,0.3
		c0,0.1,0.1,0.2,0.1,0.3c0,0.1,0.1,0.2,0.2,0.3c0.1,0.1,0.1,0.2,0.2,0.3c0.1,0.1,0.1,0.2,0.2,0.2c0.1,0.1,0.2,0.2,0.2,0.2
		c0.1,0.1,0.2,0.1,0.3,0.2c0.1,0.1,0.2,0.1,0.3,0.2c0.1,0.1,0.2,0.1,0.3,0.2c0,0,0.1,0,0.1,0.1l8.2,3.1c0.4,0.1,0.8,0.2,1.2,0.2
		c1.3,0,2.6-0.8,3.1-2.1c0.7-1.7-0.2-3.6-1.9-4.3l-5.9-2.2l1.8-35.2H265.2z"/>
	<g>
		<g class="st1">
			<defs>
				<polygon id="SVGID_1_" class="st1" points="265.5,271.9 265.5,93.3 440,88.4 440,276.9 				"/>
			</defs>
			<clipPath id="SVGID_2_">
				<use xlink:href="#SVGID_1_"  style="overflow:visible;"/>
			</clipPath>
			<g class="st4">
				<polyline class="st3" points="440,253.3 417.2,252.8 417.2,276.2 440,276.9 440,253.3 				"/>
				<polyline class="st5" points="440,229.8 417.2,229.4 417.2,252.8 440,253.3 440,229.8 				"/>
				<polyline class="st5" points="440,206.2 417.2,206 417.2,229.4 440,229.8 440,206.2 				"/>
				<polyline class="st3" points="440,182.6 417.2,182.6 417.2,206 440,206.2 440,182.6 				"/>
				<polyline class="st6" points="440,159.1 417.2,159.2 417.2,182.6 440,182.6 440,159.1 				"/>
				<polyline class="st6" points="440,135.5 417.2,135.8 417.2,159.2 440,159.1 440,135.5 				"/>
				<polyline class="st6" points="440,112 417.2,112.4 417.2,135.8 440,135.5 440,112 				"/>
				<polyline class="st3" points="440,88.4 417.2,89 417.2,112.4 440,112 440,88.4 				"/>
				<polyline class="st5" points="417.2,252.8 394.6,252.4 394.6,275.6 417.2,276.2 417.2,252.8 				"/>
				<polyline class="st5" points="417.2,229.4 394.6,229.1 394.6,252.4 417.2,252.8 417.2,229.4 				"/>
				<polyline class="st3" points="417.2,206 394.6,205.9 394.6,229.1 417.2,229.4 417.2,206 				"/>
				<polyline class="st3" points="417.2,182.6 394.6,182.6 394.6,205.9 417.2,206 417.2,182.6 				"/>
				<polyline class="st7" points="417.2,159.2 394.6,159.4 394.6,182.6 417.2,182.6 417.2,159.2 				"/>
				<polyline class="st7" points="417.2,135.8 394.6,136.1 394.6,159.4 417.2,159.2 417.2,135.8 				"/>
				<polyline class="st6" points="417.2,112.4 394.6,112.9 394.6,136.1 417.2,135.8 417.2,112.4 				"/>
				<polyline class="st3" points="417.2,89 394.6,89.7 394.6,112.9 417.2,112.4 417.2,89 				"/>
				<polyline class="st8" points="394.6,252.4 372.3,251.9 372.3,275 394.6,275.6 394.6,252.4 				"/>
				<polyline class="st9" points="394.6,229.1 372.3,228.8 372.3,251.9 394.6,252.4 394.6,229.1 				"/>
				<polyline class="st3" points="394.6,205.9 372.3,205.7 372.3,228.8 394.6,229.1 394.6,205.9 				"/>
				<polyline class="st7" points="394.6,182.6 372.3,182.6 372.3,205.7 394.6,205.9 394.6,182.6 				"/>
				<polyline class="st3" points="394.6,159.4 372.3,159.6 372.3,182.6 394.6,182.6 394.6,159.4 				"/>
				<polyline class="st3" points="394.6,136.1 372.3,136.5 372.3,159.6 394.6,159.4 394.6,136.1 				"/>
				<polyline class="st3" points="394.6,112.9 372.3,113.4 372.3,136.5 394.6,136.1 394.6,112.9 				"/>
				<polyline class="st3" points="394.6,89.7 372.3,90.3 372.3,113.4 394.6,112.9 394.6,89.7 				"/>
				<polyline class="st8" points="372.3,251.9 350.4,251.4 350.4,274.3 372.3,275 372.3,251.9 				"/>
				<polyline class="st9" points="372.3,228.8 350.4,228.5 350.4,251.4 372.3,251.9 372.3,228.8 				"/>
				<polyline class="st9" points="372.3,205.7 350.4,205.6 350.4,228.5 372.3,228.8 372.3,205.7 				"/>
				<polyline class="st3" points="372.3,182.6 350.4,182.6 350.4,205.6 372.3,205.7 372.3,182.6 				"/>
				<polyline class="st3" points="372.3,159.6 350.4,159.7 350.4,182.6 372.3,182.6 372.3,159.6 				"/>
				<polyline class="st3" points="372.3,136.5 350.4,136.8 350.4,159.7 372.3,159.6 372.3,136.5 				"/>
				<polyline class="st3" points="372.3,113.4 350.4,113.9 350.4,136.8 372.3,136.5 372.3,113.4 				"/>
				<polyline class="st3" points="372.3,90.3 350.4,90.9 350.4,113.9 372.3,113.4 372.3,90.3 				"/>
				<polyline class="st8" points="350.4,251.4 328.7,250.9 328.7,273.7 350.4,274.3 350.4,251.4 				"/>
				<polyline class="st9" points="350.4,228.5 328.7,228.2 328.7,250.9 350.4,251.4 350.4,228.5 				"/>
				<polyline class="st9" points="350.4,205.6 328.7,205.4 328.7,228.2 350.4,228.5 350.4,205.6 				"/>
				<polyline class="st3" points="350.4,182.6 328.7,182.6 328.7,205.4 350.4,205.6 350.4,182.6 				"/>
				<polyline class="st3" points="350.4,159.7 328.7,159.9 328.7,182.6 350.4,182.6 350.4,159.7 				"/>
				<polyline class="st3" points="350.4,136.8 328.7,137.1 328.7,159.9 350.4,159.7 350.4,136.8 				"/>
				<polyline class="st3" points="350.4,113.9 328.7,114.3 328.7,137.1 350.4,136.8 350.4,113.9 				"/>
				<polyline class="st3" points="350.4,90.9 328.7,91.5 328.7,114.3 350.4,113.9 350.4,90.9 				"/>
				<polyline class="st8" points="328.7,250.9 307.3,250.5 307.3,273.1 328.7,273.7 328.7,250.9 				"/>
				<polyline class="st9" points="328.7,228.2 307.3,227.9 307.3,250.5 328.7,250.9 328.7,228.2 				"/>
				<polyline class="st3" points="328.7,205.4 307.3,205.3 307.3,227.9 328.7,228.2 328.7,205.4 				"/>
				<polyline class="st7" points="328.7,182.6 307.3,182.6 307.3,205.3 328.7,205.4 328.7,182.6 				"/>
				<polyline class="st3" points="328.7,159.9 307.3,160 307.3,182.6 328.7,182.6 328.7,159.9 				"/>
				<polyline class="st3" points="328.7,137.1 307.3,137.4 307.3,160 328.7,159.9 328.7,137.1 				"/>
				<polyline class="st3" points="328.7,114.3 307.3,114.8 307.3,137.4 328.7,137.1 328.7,114.3 				"/>
				<polyline class="st3" points="328.7,91.5 307.3,92.1 307.3,114.8 328.7,114.3 328.7,91.5 				"/>
				<polyline class="st5" points="307.3,250.5 286.3,250 286.3,272.5 307.3,273.1 307.3,250.5 				"/>
				<polyline class="st5" points="307.3,227.9 286.3,227.6 286.3,250 307.3,250.5 307.3,227.9 				"/>
				<polyline class="st3" points="307.3,205.3 286.3,205.1 286.3,227.6 307.3,227.9 307.3,205.3 				"/>
				<polyline class="st3" points="307.3,182.6 286.3,182.6 286.3,205.1 307.3,205.3 307.3,182.6 				"/>
				<polyline class="st7" points="307.3,160 286.3,160.2 286.3,182.6 307.3,182.6 307.3,160 				"/>
				<polyline class="st7" points="307.3,137.4 286.3,137.7 286.3,160.2 307.3,160 307.3,137.4 				"/>
				<polyline class="st6" points="307.3,114.8 286.3,115.2 286.3,137.7 307.3,137.4 307.3,114.8 				"/>
				<polyline class="st3" points="307.3,92.1 286.3,92.7 286.3,115.2 307.3,114.8 307.3,92.1 				"/>
				<polyline class="st3" points="286.3,250 265.5,249.6 265.5,271.9 286.3,272.5 286.3,250 				"/>
				<polyline class="st5" points="286.3,227.6 265.5,227.3 265.5,249.6 286.3,250 286.3,227.6 				"/>
				<polyline class="st5" points="286.3,205.1 265.5,205 265.5,227.3 286.3,227.6 286.3,205.1 				"/>
				<polyline class="st3" points="286.3,182.6 265.5,182.6 265.5,205 286.3,205.1 286.3,182.6 				"/>
				<polyline class="st6" points="286.3,160.2 265.5,160.3 265.5,182.6 286.3,182.6 286.3,160.2 				"/>
				<polyline class="st6" points="286.3,137.7 265.5,138 265.5,160.3 286.3,160.2 286.3,137.7 				"/>
				<polyline class="st6" points="286.3,115.2 265.5,115.7 265.5,138 286.3,137.7 286.3,115.2 				"/>
				<polyline class="st3" points="286.3,92.7 265.5,93.3 265.5,115.7 286.3,115.2 286.3,92.7 				"/>
			</g>
		</g>
	</g>
	<g>
		<g class="st1">
			<defs>
				<polygon id="SVGID_3_" class="st1" points="439.8,276.4 439.8,88.8 493.5,102.5 493.5,262.7 				"/>
			</defs>
			<clipPath id="SVGID_4_">
				<use xlink:href="#SVGID_3_"  style="overflow:visible;"/>
			</clipPath>
			<g class="st10">
				<polyline class="st11" points="493.5,242.7 487.7,243.8 487.7,264.2 493.5,262.7 493.5,242.7 				"/>
				<polyline class="st11" points="493.5,222.7 487.7,223.4 487.7,243.8 493.5,242.7 493.5,222.7 				"/>
				<polyline class="st11" points="493.5,202.7 487.7,203 487.7,223.4 493.5,222.7 493.5,202.7 				"/>
				<polyline class="st11" points="493.5,182.6 487.7,182.6 487.7,203 493.5,202.7 493.5,182.6 				"/>
				<polyline class="st11" points="493.5,162.6 487.7,162.2 487.7,182.6 493.5,182.6 493.5,162.6 				"/>
				<polyline class="st11" points="493.5,142.6 487.7,141.8 487.7,162.2 493.5,162.6 493.5,142.6 				"/>
				<polyline class="st11" points="493.5,122.5 487.7,121.4 487.7,141.8 493.5,142.6 493.5,122.5 				"/>
				<polyline class="st11" points="493.5,102.5 487.7,101 487.7,121.4 493.5,122.5 493.5,102.5 				"/>
				<polyline class="st11" points="487.7,243.8 481.6,245 481.6,265.8 487.7,264.2 487.7,243.8 				"/>
				<polyline class="st11" points="487.7,223.4 481.6,224.2 481.6,245 487.7,243.8 487.7,223.4 				"/>
				<polyline class="st11" points="487.7,203 481.6,203.4 481.6,224.2 487.7,223.4 487.7,203 				"/>
				<polyline class="st11" points="487.7,182.6 481.6,182.6 481.6,203.4 487.7,203 487.7,182.6 				"/>
				<polyline class="st11" points="487.7,162.2 481.6,161.8 481.6,182.6 487.7,182.6 487.7,162.2 				"/>
				<polyline class="st11" points="487.7,141.8 481.6,141 481.6,161.8 487.7,162.2 487.7,141.8 				"/>
				<polyline class="st11" points="487.7,121.4 481.6,120.3 481.6,141 487.7,141.8 487.7,121.4 				"/>
				<polyline class="st11" points="487.7,101 481.6,99.5 481.6,120.3 487.7,121.4 487.7,101 				"/>
				<polyline class="st11" points="481.6,245 475.3,246.2 475.3,267.4 481.6,265.8 481.6,245 				"/>
				<polyline class="st11" points="481.6,224.2 475.3,225 475.3,246.2 481.6,245 481.6,224.2 				"/>
				<polyline class="st11" points="481.6,203.4 475.3,203.8 475.3,225 481.6,224.2 481.6,203.4 				"/>
				<polyline class="st11" points="481.6,182.6 475.3,182.6 475.3,203.8 481.6,203.4 481.6,182.6 				"/>
				<polyline class="st11" points="481.6,161.8 475.3,161.4 475.3,182.6 481.6,182.6 481.6,161.8 				"/>
				<polyline class="st11" points="481.6,141 475.3,140.2 475.3,161.4 481.6,161.8 481.6,141 				"/>
				<polyline class="st11" points="481.6,120.3 475.3,119.1 475.3,140.2 481.6,141 481.6,120.3 				"/>
				<polyline class="st11" points="481.6,99.5 475.3,97.9 475.3,119.1 481.6,120.3 481.6,99.5 				"/>
				<polyline class="st11" points="475.3,246.2 468.7,247.4 468.7,269 475.3,267.4 475.3,246.2 				"/>
				<polyline class="st11" points="475.3,225 468.7,225.8 468.7,247.4 475.3,246.2 475.3,225 				"/>
				<polyline class="st11" points="475.3,203.8 468.7,204.2 468.7,225.8 475.3,225 475.3,203.8 				"/>
				<polyline class="st11" points="475.3,182.6 468.7,182.6 468.7,204.2 475.3,203.8 475.3,182.6 				"/>
				<polyline class="st11" points="475.3,161.4 468.7,161 468.7,182.6 475.3,182.6 475.3,161.4 				"/>
				<polyline class="st11" points="475.3,140.2 468.7,139.4 468.7,161 475.3,161.4 475.3,140.2 				"/>
				<polyline class="st11" points="475.3,119.1 468.7,117.8 468.7,139.4 475.3,140.2 475.3,119.1 				"/>
				<polyline class="st11" points="475.3,97.9 468.7,96.2 468.7,117.8 475.3,119.1 475.3,97.9 				"/>
				<polyline class="st11" points="468.7,247.4 461.9,248.7 461.9,270.8 468.7,269 468.7,247.4 				"/>
				<polyline class="st11" points="468.7,225.8 461.9,226.7 461.9,248.7 468.7,247.4 468.7,225.8 				"/>
				<polyline class="st11" points="468.7,204.2 461.9,204.7 461.9,226.7 468.7,225.8 468.7,204.2 				"/>
				<polyline class="st11" points="468.7,182.6 461.9,182.6 461.9,204.7 468.7,204.2 468.7,182.6 				"/>
				<polyline class="st11" points="468.7,161 461.9,160.6 461.9,182.6 468.7,182.6 468.7,161 				"/>
				<polyline class="st11" points="468.7,139.4 461.9,138.6 461.9,160.6 468.7,161 468.7,139.4 				"/>
				<polyline class="st11" points="468.7,117.8 461.9,116.5 461.9,138.6 468.7,139.4 468.7,117.8 				"/>
				<polyline class="st11" points="468.7,96.2 461.9,94.5 461.9,116.5 468.7,117.8 468.7,96.2 				"/>
				<polyline class="st11" points="461.9,248.7 454.8,250.1 454.8,272.6 461.9,270.8 461.9,248.7 				"/>
				<polyline class="st11" points="461.9,226.7 454.8,227.6 454.8,250.1 461.9,248.7 461.9,226.7 				"/>
				<polyline class="st11" points="461.9,204.7 454.8,205.1 454.8,227.6 461.9,226.7 461.9,204.7 				"/>
				<polyline class="st11" points="461.9,182.6 454.8,182.6 454.8,205.1 461.9,204.7 461.9,182.6 				"/>
				<polyline class="st11" points="461.9,160.6 454.8,160.1 454.8,182.6 461.9,182.6 461.9,160.6 				"/>
				<polyline class="st11" points="461.9,138.6 454.8,137.6 454.8,160.1 461.9,160.6 461.9,138.6 				"/>
				<polyline class="st11" points="461.9,116.5 454.8,115.2 454.8,137.6 461.9,138.6 461.9,116.5 				"/>
				<polyline class="st11" points="461.9,94.5 454.8,92.7 454.8,115.2 461.9,116.5 461.9,94.5 				"/>
				<polyline class="st11" points="454.8,250.1 447.5,251.5 447.5,274.5 454.8,272.6 454.8,250.1 				"/>
				<polyline class="st11" points="454.8,227.6 447.5,228.5 447.5,251.5 454.8,250.1 454.8,227.6 				"/>
				<polyline class="st12" points="454.8,205.1 447.5,205.6 447.5,228.5 454.8,227.6 454.8,205.1 				"/>
				<polyline class="st11" points="454.8,182.6 447.5,182.6 447.5,205.6 454.8,205.1 454.8,182.6 				"/>
				<polyline class="st11" points="454.8,160.1 447.5,159.7 447.5,182.6 454.8,182.6 454.8,160.1 				"/>
				<polyline class="st11" points="454.8,137.6 447.5,136.7 447.5,159.7 454.8,160.1 454.8,137.6 				"/>
				<polyline class="st11" points="454.8,115.2 447.5,113.8 447.5,136.7 454.8,137.6 454.8,115.2 				"/>
				<polyline class="st11" points="454.8,92.7 447.5,90.8 447.5,113.8 454.8,115.2 454.8,92.7 				"/>
				<polyline class="st11" points="447.5,251.5 439.8,253 439.8,276.4 447.5,274.5 447.5,251.5 				"/>
				<polyline class="st12" points="447.5,228.5 439.8,229.5 439.8,253 447.5,251.5 447.5,228.5 				"/>
				<polyline class="st12" points="447.5,205.6 439.8,206.1 439.8,229.5 447.5,228.5 447.5,205.6 				"/>
				<polyline class="st11" points="447.5,182.6 439.8,182.6 439.8,206.1 447.5,205.6 447.5,182.6 				"/>
				<polyline class="st13" points="447.5,159.7 439.8,159.2 439.8,182.6 447.5,182.6 447.5,159.7 				"/>
				<polyline class="st13" points="447.5,136.7 439.8,135.7 439.8,159.2 447.5,159.7 447.5,136.7 				"/>
				<polyline class="st11" points="447.5,113.8 439.8,112.3 439.8,135.7 447.5,136.7 447.5,113.8 				"/>
				<polyline class="st11" points="447.5,90.8 439.8,88.8 439.8,112.3 447.5,113.8 447.5,90.8 				"/>
			</g>
		</g>
	</g>
	<path class="st0" d="M499.4,263.9c0-0.1,0.1-0.2,0.1-0.3c0-0.1,0.1-0.2,0.1-0.3c0-0.1,0-0.2,0.1-0.3c0-0.1,0-0.2,0-0.4
		c0-0.1,0-0.1,0-0.2V102.3c0-0.1,0-0.1,0-0.2c0-0.1,0-0.2,0-0.4c0-0.1,0-0.2-0.1-0.3c0-0.1-0.1-0.2-0.1-0.3c0-0.1-0.1-0.2-0.1-0.3
		c0-0.1-0.1-0.2-0.2-0.3c-0.1-0.1-0.1-0.2-0.2-0.3c-0.1-0.1-0.1-0.2-0.2-0.2c-0.1-0.1-0.1-0.1-0.2-0.2c-0.1-0.1-0.2-0.1-0.3-0.2
		c-0.1-0.1-0.2-0.1-0.3-0.2c-0.1-0.1-0.2-0.1-0.3-0.2c-0.1-0.1-0.2-0.1-0.3-0.1c-0.1,0-0.1-0.1-0.2-0.1L439,82.4
		c-0.3-0.1-0.6-0.2-0.9-0.2c-0.1,0-0.2,0-0.3,0c-0.1,0-0.1,0-0.2,0l-174.8,7.6c-0.1,0-0.2,0-0.3,0c-0.1,0-0.2,0-0.3,0
		c-0.1,0-0.2,0.1-0.3,0.1c-0.1,0-0.2,0.1-0.3,0.1c-0.1,0-0.2,0.1-0.3,0.2c-0.1,0.1-0.2,0.1-0.3,0.2c-0.1,0.1-0.2,0.1-0.2,0.2
		c-0.1,0.1-0.2,0.1-0.2,0.2c-0.1,0.1-0.1,0.2-0.2,0.2c-0.1,0.1-0.1,0.2-0.2,0.3c-0.1,0.1-0.1,0.2-0.2,0.3c0,0.1-0.1,0.2-0.1,0.3
		c0,0.1-0.1,0.2-0.1,0.3c0,0.1-0.1,0.2-0.1,0.3c0,0.1,0,0.2,0,0.4c0,0.1,0,0.2,0,0.2V273c0,0.1,0,0.2,0,0.3c0,0.1,0,0.2,0,0.3
		c0,0.1,0.1,0.2,0.1,0.3c0,0.1,0.1,0.2,0.1,0.3c0,0.1,0.1,0.2,0.1,0.3c0.1,0.1,0.1,0.2,0.2,0.3c0.1,0.1,0.1,0.2,0.2,0.2
		c0.1,0.1,0.1,0.2,0.2,0.3c0.1,0.1,0.2,0.1,0.2,0.2c0.1,0.1,0.2,0.1,0.3,0.2c0.1,0.1,0.2,0.1,0.3,0.2c0.1,0.1,0.2,0.1,0.3,0.2
		c0.1,0,0.2,0.1,0.3,0.1c0.1,0,0.2,0.1,0.3,0.1c0.1,0,0.2,0,0.3,0c0.1,0,0.2,0,0.3,0l176.6,6.4c0,0,0.1,0,0.1,0c0,0,0,0,0,0
		c0,0,0,0,0,0c0.3,0,0.6-0.1,0.8-0.1c0,0,0.1,0,0.1,0l56.9-16.8c0.1,0,0.1,0,0.2-0.1c0.1,0,0.2-0.1,0.3-0.1c0.1,0,0.2-0.1,0.3-0.2
		c0.1-0.1,0.2-0.1,0.3-0.2c0.1-0.1,0.2-0.1,0.3-0.2c0.1-0.1,0.1-0.1,0.2-0.2c0.1-0.1,0.1-0.2,0.2-0.2c0.1-0.1,0.1-0.2,0.2-0.3
		C499.3,264.1,499.4,264,499.4,263.9z M439.1,276l-172.8-6.2V96.3l171.1-7.4l55.7,15.9V260L439.1,276z"/>
	<g class="st1">
		<g>
			<g id="XMLID_214_">
				<g>
					<polygon class="st2" points="597.4,64.1 605,102.7 517.3,147.2 507.8,104.2 					"/>
					<polygon class="st2" points="597.4,64.1 507.8,104.2 468.4,106.3 559.5,67.2 					"/>
					<polygon class="st3" points="507.8,104.2 517.3,147.2 477.8,147.9 468.4,106.3 					"/>
				</g>
				<g>
				</g>
			</g>
		</g>
	</g>
	<g class="st1">
		<g>
			<g id="XMLID_213_">
				<g>
					<polygon class="st2" points="610,160.6 610,200.4 518.3,203.1 518.3,157.9 					"/>
					<polygon class="st3" points="518.3,157.9 518.3,203.1 478.2,202.3 478.2,158.7 					"/>
				</g>
				<g>
				</g>
			</g>
		</g>
	</g>
	<g class="st1">
		<g>
			<g id="XMLID_212_">
				<g>
					<polygon class="st2" points="599.2,240.6 593.2,280.5 506.5,257.2 513.5,213.6 					"/>
					<polygon class="st2" points="593.2,280.5 558.2,278.3 471.5,255.7 506.5,257.2 					"/>
					<polygon class="st3" points="513.5,213.6 506.5,257.2 471.5,255.7 478.5,213.8 					"/>
				</g>
				<g>
				</g>
			</g>
		</g>
	</g>
	<path class="st0" d="M610.5,106c0.1-0.1,0.1-0.2,0.2-0.2c0.1-0.1,0.1-0.2,0.1-0.3c0-0.1,0.1-0.2,0.1-0.3c0-0.1,0.1-0.2,0.1-0.3
		c0-0.1,0.1-0.2,0.1-0.3c0-0.1,0-0.2,0-0.3c0-0.1,0-0.2,0-0.3c0-0.1,0-0.2,0-0.3c0-0.1,0-0.1,0-0.2l-8.7-42.1c0,0,0-0.1,0-0.1
		c0-0.1-0.1-0.2-0.1-0.3c0-0.1-0.1-0.2-0.1-0.3c0-0.1-0.1-0.1-0.1-0.2c-0.1-0.1-0.1-0.2-0.2-0.3c0-0.1-0.1-0.1-0.1-0.2
		c-0.1-0.1-0.2-0.2-0.3-0.3c-0.1,0-0.1-0.1-0.2-0.1c-0.1-0.1-0.2-0.2-0.3-0.2c-0.1,0-0.1-0.1-0.2-0.1c-0.1-0.1-0.2-0.1-0.3-0.1
		c-0.1,0-0.2,0-0.2-0.1c-0.1,0-0.2-0.1-0.3-0.1c-0.1,0-0.2,0-0.3,0c-0.1,0-0.2,0-0.3,0c0,0-0.1,0-0.1,0l-40.6,3.7
		c-0.1,0-0.1,0-0.2,0c-0.1,0-0.2,0-0.3,0.1c-0.1,0-0.2,0.1-0.3,0.1c0,0-0.1,0-0.1,0l-92.9,38.6c0,0,0,0,0,0c-0.1,0-0.2,0.1-0.3,0.2
		c-0.1,0-0.2,0.1-0.2,0.1c-0.1,0.1-0.1,0.1-0.2,0.2c-0.1,0.1-0.2,0.1-0.2,0.2c-0.1,0.1-0.1,0.1-0.2,0.2c-0.1,0.1-0.1,0.2-0.2,0.3
		c-0.1,0.1-0.1,0.2-0.1,0.2c0,0.1-0.1,0.2-0.1,0.3c0,0.1-0.1,0.2-0.1,0.3c0,0.1-0.1,0.2-0.1,0.3c0,0.1,0,0.2,0,0.3
		c0,0.1,0,0.2,0,0.3c0,0.1,0,0.2,0,0.2c0,0.1,0,0.2,0,0.4c0,0,0,0,0,0l9.9,45.6c0.1,0.3,0.2,0.6,0.4,0.9c0,0,0,0.1,0.1,0.1
		c0.2,0.3,0.4,0.5,0.6,0.7c0,0,0.1,0.1,0.1,0.1c0.2,0.2,0.5,0.3,0.8,0.4c0,0,0.1,0,0.1,0c0.3,0.1,0.6,0.2,0.9,0.2c0,0,0,0,0,0
		c0,0,0,0,0,0c0,0,0,0,0,0l41.5-0.7c0,0,0,0,0,0c0,0,0,0,0,0l0,0c0.2,0,0.4,0,0.6-0.1c0,0,0.1,0,0.1,0c0.2,0,0.4-0.1,0.5-0.2
		c0,0,0,0,0.1,0l90.8-45.1c0.1,0,0.1-0.1,0.2-0.1c0.1-0.1,0.2-0.1,0.3-0.2c0.1-0.1,0.2-0.1,0.2-0.2c0.1-0.1,0.1-0.1,0.2-0.2
		C610.4,106.1,610.5,106.1,610.5,106z M516.5,146.2l-38.4,0.6l-8.8-40.6l90.1-37.5l37.4-3.4l7.7,37.1L516.5,146.2z"/>
	<path class="st0" d="M614.1,203.4c0-0.1,0.1-0.2,0.1-0.3c0-0.1,0.1-0.2,0.1-0.3c0-0.1,0.1-0.2,0.1-0.3c0-0.1,0-0.2,0-0.3
		c0-0.1,0-0.2,0-0.3v-42.6c0-0.1,0-0.2,0-0.3c0-0.1,0-0.2,0-0.3c0-0.1-0.1-0.2-0.1-0.3c0-0.1-0.1-0.2-0.1-0.3c0-0.1-0.1-0.2-0.1-0.3
		c0-0.1-0.1-0.2-0.1-0.3c-0.1-0.1-0.1-0.2-0.2-0.2c-0.1-0.1-0.1-0.2-0.2-0.2c-0.1-0.1-0.1-0.1-0.2-0.2c-0.1-0.1-0.2-0.1-0.2-0.2
		c-0.1-0.1-0.2-0.1-0.2-0.1c-0.1-0.1-0.2-0.1-0.3-0.1c-0.1,0-0.2-0.1-0.3-0.1c-0.1,0-0.2-0.1-0.3-0.1c-0.1,0-0.2,0-0.3,0
		c-0.1,0-0.2,0-0.3,0l-93.1-3.4c0,0,0,0-0.1,0c0,0,0,0-0.1,0c0,0,0,0,0,0l-42,0.6c-0.1,0-0.2,0-0.2,0c-0.1,0-0.3,0-0.4,0
		c0,0,0,0,0,0c-1,0.2-1.8,0.9-2.1,1.8c0,0,0,0,0,0c-0.1,0.2-0.1,0.3-0.2,0.5c0,0.1,0,0.2,0,0.3c0,0.1,0,0.2,0,0.3l-0.3,48.4
		c0,0,0,0,0,0c0,0,0,0,0,0c0,0.1,0,0.2,0,0.3c0,0.1,0,0.2,0,0.3c0,0.1,0.1,0.2,0.1,0.4c0,0.1,0,0.2,0.1,0.2c0.1,0.1,0.1,0.2,0.2,0.3
		c0,0.1,0.1,0.1,0.1,0.2c0.1,0.1,0.2,0.2,0.2,0.3c0,0,0.1,0.1,0.1,0.2c0.1,0.1,0.2,0.2,0.3,0.2c0.1,0,0.1,0.1,0.2,0.1
		c0.1,0.1,0.2,0.1,0.3,0.2c0.1,0,0.1,0.1,0.2,0.1c0.1,0,0.2,0.1,0.3,0.1c0.1,0,0.2,0.1,0.3,0.1c0.1,0,0.2,0,0.3,0c0.1,0,0.2,0,0.3,0
		c0,0,0,0,0,0h42.3c0,0,0,0,0,0c0,0,0.1,0,0.1,0l93.1-2.9c0.1,0,0.2,0,0.2,0c0.1,0,0.2,0,0.3,0c0.1,0,0.2-0.1,0.3-0.1
		c0.1,0,0.2-0.1,0.3-0.1c0.1,0,0.2-0.1,0.2-0.1c0.1-0.1,0.2-0.1,0.3-0.2c0.1-0.1,0.1-0.1,0.2-0.2c0.1-0.1,0.2-0.1,0.2-0.2
		c0.1-0.1,0.1-0.1,0.2-0.2c0.1-0.1,0.1-0.2,0.2-0.2C614,203.5,614.1,203.5,614.1,203.4z M518.2,201.8h-39.1l0.2-42.3l38.9-0.6
		l90.1,3.3V199L518.2,201.8z"/>
	<path class="st0" d="M604,239.7c0-0.1,0-0.2,0-0.3c0-0.1,0-0.2,0-0.3c0-0.1,0-0.2-0.1-0.3c0-0.1-0.1-0.2-0.1-0.2
		c0-0.1-0.1-0.2-0.1-0.3c0-0.1-0.1-0.2-0.1-0.2c-0.1-0.1-0.1-0.2-0.2-0.3c-0.1-0.1-0.1-0.1-0.2-0.2c-0.1-0.1-0.1-0.2-0.2-0.2
		c-0.1-0.1-0.1-0.1-0.2-0.2c-0.1-0.1-0.2-0.1-0.3-0.2c-0.1,0-0.2-0.1-0.2-0.1c-0.1-0.1-0.2-0.1-0.3-0.1c0,0,0,0,0,0l-86.5-28.2
		c-0.1,0-0.1,0-0.2,0c-0.1,0-0.2-0.1-0.3-0.1c-0.1,0-0.2,0-0.3,0c-0.1,0-0.1,0-0.2,0c0,0,0,0,0,0l-38.4,0.3c0,0,0,0,0,0
		c-0.1,0-0.2,0-0.3,0c-0.1,0-0.2,0-0.3,0c-0.1,0-0.1,0-0.2,0.1c-0.1,0-0.3,0.1-0.4,0.1c0,0,0,0-0.1,0c-0.2,0.1-0.3,0.2-0.4,0.3
		c0,0,0,0-0.1,0c-0.1,0.1-0.3,0.2-0.4,0.3c0,0-0.1,0.1-0.1,0.1c-0.1,0.1-0.2,0.2-0.3,0.3c0,0.1-0.1,0.1-0.1,0.2
		c-0.1,0.1-0.1,0.2-0.2,0.3c0,0.1,0,0.2-0.1,0.2c0,0.1-0.1,0.2-0.1,0.3c0,0,0,0,0,0l-7.7,45.5c0,0.1,0,0.1,0,0.2c0,0.1,0,0.2,0,0.3
		c0,0.1,0,0.2,0,0.3c0,0.1,0,0.2,0,0.3c0,0.1,0,0.2,0.1,0.3c0,0.1,0.1,0.2,0.1,0.2c0,0.1,0.1,0.2,0.1,0.3c0,0.1,0.1,0.2,0.1,0.2
		c0.1,0.1,0.1,0.2,0.2,0.3c0.1,0.1,0.1,0.1,0.2,0.2c0.1,0.1,0.1,0.1,0.2,0.2c0.1,0.1,0.2,0.1,0.2,0.2c0.1,0.1,0.2,0.1,0.3,0.2
		c0.1,0,0.2,0.1,0.3,0.1c0.1,0,0.2,0.1,0.3,0.1c0.1,0,0.1,0,0.2,0.1l89,23.2c0,0,0,0,0,0c0.2,0.1,0.4,0.1,0.6,0.1l37.3,1.6
		c0,0,0.1,0,0.1,0c0,0,0,0,0,0c0,0,0,0,0,0c0,0,0,0,0,0c0.4,0,0.7-0.1,1-0.2c0,0,0.1,0,0.1,0c0.3-0.1,0.6-0.3,0.8-0.5
		c0,0,0.1-0.1,0.1-0.1c0.2-0.2,0.4-0.5,0.6-0.7c0,0,0-0.1,0.1-0.1c0.2-0.3,0.3-0.6,0.3-0.9c0,0,0,0,0-0.1l6.3-42.4c0,0,0,0,0,0
		C604,239.9,604,239.8,604,239.7z M592,278.8l-34.2-1.4l-86-22.4l6.8-40.2l35.4-0.3l83.6,27.3L592,278.8z"/>
	<g>
		<g class="st1">
			<g>
				<g id="XMLID_211_">
					<g>
						<polygon class="st14" points="609.4,347.6 610.3,411.9 574.7,426.7 573.8,362.4 						"/>
						<polygon class="st15" points="609.4,347.6 573.8,362.4 519.2,353.7 554.8,339 						"/>
						<polygon class="st16" points="573.8,362.4 574.7,426.7 520.1,418 519.2,353.7 						"/>
					</g>
					<g>
					</g>
				</g>
			</g>
		</g>
		<path class="st17" d="M615.1,415.4c0-0.1,0.1-0.1,0.1-0.2c0.1-0.1,0.1-0.2,0.2-0.3c0-0.1,0.1-0.2,0.1-0.3c0-0.1,0.1-0.2,0.1-0.4
			c0-0.1,0.1-0.2,0.1-0.3c0-0.2,0.1-0.4,0.1-0.7c0,0,0,0,0,0l-0.8-68c0,0,0,0,0-0.1c0-0.1,0-0.2,0-0.3c0-0.1,0-0.3-0.1-0.4
			c0,0,0-0.1,0-0.1c-0.3-1.3-1.3-2.2-2.7-2.4l-56.4-8.8c-0.1,0-0.1,0-0.2,0c-0.1,0-0.3,0-0.4,0c-0.1,0-0.1,0-0.2,0
			c-0.1,0-0.3,0-0.4,0.1c-0.1,0-0.1,0-0.2,0.1c-0.1,0-0.3,0.1-0.4,0.1l-38.4,16.5c0,0,0,0,0,0c-0.2,0.1-0.3,0.2-0.5,0.3
			c0,0-0.1,0-0.1,0.1c-0.2,0.1-0.3,0.3-0.5,0.4c-0.1,0.1-0.1,0.1-0.2,0.2c-0.1,0.1-0.2,0.2-0.2,0.3c0,0,0,0.1-0.1,0.1
			c-0.2,0.4-0.4,0.8-0.4,1.3c0,0.2,0,0.3,0,0.5c0,0,0,0,0,0l1.2,66.8c0,0,0,0,0,0c0,0.1,0,0.2,0,0.4c0,0.1,0,0.2,0,0.3
			c0,0.1,0.1,0.2,0.1,0.3c0,0.1,0.1,0.2,0.1,0.3c0,0.1,0.1,0.1,0.1,0.2c0.1,0.1,0.1,0.2,0.2,0.3c0.1,0.1,0.1,0.2,0.2,0.2
			c0.1,0.1,0.1,0.2,0.2,0.2c0.1,0.1,0.2,0.1,0.3,0.2c0.1,0.1,0.1,0.1,0.2,0.2c0.1,0.1,0.2,0.1,0.3,0.1c0.1,0.1,0.2,0.1,0.3,0.2
			c0.1,0,0.2,0.1,0.3,0.1c0.1,0,0.2,0.1,0.4,0.1c0,0,0,0,0,0l56.7,9.7c0.2,0,0.4,0,0.6,0c0,0,0,0,0,0c0,0,0,0,0,0c0,0,0,0,0,0
			c0,0,0,0,0,0c0.3,0,0.7-0.1,1-0.2c0.1,0,0.1,0,0.2,0c0,0,0.1,0,0.1,0l37.7-16.3c0,0,0,0,0,0c0.2-0.1,0.3-0.2,0.5-0.3
			c0.2-0.1,0.3-0.2,0.5-0.4c0,0,0.1-0.1,0.1-0.1C614.9,415.6,615,415.5,615.1,415.4z M574.3,426.2l-53-9.1l-1.2-61.8l35.5-15.3
			l52.7,8.2l0.8,63L574.3,426.2z"/>
	</g>
	<g>
		<g class="st1">
			<g>
				<g id="XMLID_210_">
					<g>
						<polygon class="st14" points="521.2,307.7 521.6,372.2 485.8,385.9 485.4,321.4 						"/>
						<polygon class="st15" points="521.2,307.7 485.4,321.4 449.7,335.1 413.9,348.8 359.4,340.3 323.7,354 305,351.1 304.9,331.7 
							286.3,328.7 286.2,309.4 231.7,300.8 267.5,287 322,295.6 376.5,304.2 412.2,290.5 466.7,299.1 						"/>
						<polygon class="st14" points="485.4,321.4 485.8,385.9 450,399.7 449.7,335.1 						"/>
						<polygon class="st14" points="449.7,335.1 450,399.7 414.3,413.4 413.9,348.8 						"/>
						<polygon class="st16" points="413.9,348.8 414.3,413.4 359.8,404.8 359.4,340.3 						"/>
						<polygon class="st14" points="359.4,340.3 359.8,404.8 324,418.6 323.7,354 						"/>
						<polygon class="st16" points="323.7,354 324,418.6 269.5,410 269.4,390.6 305.3,396.2 305,351.1 						"/>
						<polygon class="st16" points="305,351.1 305.3,396.2 269.4,390.6 269.3,371.2 286.6,373.9 286.4,348.1 						"/>
						<polygon class="st15" points="304.9,331.7 305,351.1 286.4,348.1 286.4,338.8 						"/>
						<polygon class="st16" points="304.9,331.7 286.4,338.8 286.3,328.7 						"/>
						<polygon class="st16" points="286.4,348.1 286.6,373.9 269.3,371.2 269.2,345.4 						"/>
						<polygon class="st15" points="286.4,338.8 286.4,348.1 269.2,345.4 						"/>
						<polygon class="st16" points="286.3,328.7 286.4,338.8 269.2,345.4 269.3,371.2 250.7,368.2 250.4,323.1 						"/>
						<polygon class="st15" points="286.2,309.4 286.3,328.7 250.4,323.1 						"/>
						<polygon class="st16" points="286.2,309.4 250.4,323.1 250.7,368.2 232.1,365.3 231.7,300.8 						"/>
						<polygon class="st16" points="269.3,371.2 269.4,390.6 250.8,387.6 250.7,368.2 						"/>
					</g>
					<g>
					</g>
				</g>
			</g>
		</g>
		<g id="XMLID_209_">
			<g>
				<path class="st17" d="M526.7,373.2C526.7,373.2,526.7,373.2,526.7,373.2c0,0.2,0,0.3,0,0.4c0,0.1,0,0.2,0,0.3
					c0,0.1-0.1,0.2-0.1,0.3c0,0.1-0.1,0.2-0.1,0.3c0,0.1-0.1,0.2-0.1,0.3c-0.1,0.1-0.1,0.2-0.2,0.3c-0.1,0.1-0.1,0.2-0.2,0.3
					c-0.1,0.1-0.1,0.2-0.2,0.2c-0.1,0.1-0.2,0.2-0.3,0.2c-0.1,0.1-0.2,0.1-0.2,0.2c-0.1,0-0.2,0.1-0.2,0.1c-0.1,0.1-0.2,0.1-0.3,0.2
					c0,0,0,0,0,0l-109.1,42.5c0,0,0,0,0,0c0,0,0,0-0.1,0c-0.4,0.1-0.7,0.2-1.1,0.2c-0.2,0-0.4,0-0.5,0l-54-8.5l-34.6,13.2
					c0,0,0,0,0,0c-0.4,0.1-0.8,0.2-1.2,0.2c0,0,0,0,0,0c-0.2,0-0.4,0-0.6,0l-56.7-9.7c0,0,0,0-0.1,0c-0.1,0-0.2-0.1-0.4-0.1
					c-0.1,0-0.2,0-0.3-0.1c-0.1,0-0.2-0.1-0.3-0.1c-0.1-0.1-0.2-0.1-0.3-0.2c-0.1-0.1-0.2-0.1-0.2-0.2c-0.1-0.1-0.2-0.1-0.3-0.2
					c-0.1-0.1-0.1-0.2-0.2-0.2c-0.1-0.1-0.2-0.2-0.2-0.2c-0.1-0.1-0.1-0.2-0.2-0.3c0-0.1-0.1-0.2-0.1-0.3c0-0.1-0.1-0.2-0.1-0.3
					c0-0.1-0.1-0.2-0.1-0.3c0-0.1,0-0.2,0-0.3c0-0.1,0-0.2,0-0.4c0,0,0,0,0-0.1l0.1-15.7l-16.3-3.3c-0.2,0-0.4-0.1-0.6-0.2
					c-0.1-0.1-0.2-0.1-0.4-0.2c-0.1,0-0.2-0.1-0.2-0.1c-0.1-0.1-0.2-0.2-0.3-0.3c0,0-0.1-0.1-0.2-0.2c-0.1-0.1-0.2-0.2-0.2-0.3
					c-0.1-0.1-0.1-0.1-0.2-0.2c0-0.1-0.1-0.2-0.2-0.3c0-0.1-0.1-0.2-0.1-0.3c-0.1-0.1-0.1-0.3-0.1-0.4c0-0.1,0-0.1-0.1-0.2
					c0-0.2-0.1-0.4-0.1-0.7v-15.8l-16.2-2.9c0,0,0,0,0,0c-0.1,0-0.2-0.1-0.4-0.1c-0.1,0-0.2,0-0.3-0.1c-0.1,0-0.2-0.1-0.3-0.2
					c-0.1-0.1-0.2-0.1-0.3-0.2c-0.1-0.1-0.1-0.1-0.2-0.2c-0.1-0.1-0.2-0.2-0.3-0.2c-0.1-0.1-0.1-0.2-0.2-0.2
					c-0.1-0.1-0.2-0.2-0.2-0.3c-0.1-0.1-0.1-0.2-0.2-0.3c-0.1-0.1-0.1-0.2-0.2-0.3c0-0.1-0.1-0.2-0.1-0.3c0-0.1-0.1-0.2-0.1-0.4
					c0-0.1,0-0.2,0-0.2c0-0.1,0-0.3,0-0.4c0,0,0,0,0,0v-67.7v0c0-0.2,0-0.3,0-0.5c0-0.1,0-0.1,0-0.2c0-0.1,0.1-0.3,0.1-0.4
					c0-0.1,0-0.2,0.1-0.2c0.1-0.1,0.1-0.2,0.2-0.4c0-0.1,0-0.1,0.1-0.2c0.1-0.2,0.2-0.3,0.4-0.4c0,0,0,0,0-0.1
					c0.1-0.1,0.2-0.2,0.3-0.3c0.1,0,0.1-0.1,0.2-0.2c0.1,0,0.2-0.1,0.2-0.1c0.1,0,0.2-0.1,0.3-0.2c0,0,0,0,0,0l37.9-15.1
					c0.1,0,0.1,0,0.2,0c0.1,0,0.3-0.1,0.4-0.1c0.1,0,0.2,0,0.2,0c0.1,0,0.3,0,0.4,0c0.1,0,0.2,0,0.3,0c0.1,0,0.2,0,0.2,0l108.2,17
					l34.9-13.4c0,0,0.1,0,0.2,0c0.1,0,0.2-0.1,0.4-0.1c0.1,0,0.2,0,0.3,0c0.1,0,0.2,0,0.3,0c0.1,0,0.2,0,0.4,0c0.1,0,0.1,0,0.2,0
					L523.5,302c0,0,0,0,0.1,0c0.1,0,0.3,0.1,0.4,0.1c0.1,0,0.2,0,0.2,0.1c0.1,0,0.3,0.1,0.4,0.2c0.1,0,0.1,0.1,0.2,0.1
					c0.1,0.1,0.2,0.2,0.4,0.3c0,0,0.1,0.1,0.2,0.1c0.1,0.1,0.2,0.3,0.3,0.4c0,0,0,0,0.1,0.1c0.1,0.1,0.2,0.3,0.3,0.4
					c0,0,0,0.1,0,0.1c0.1,0.2,0.1,0.3,0.2,0.5c0,0,0,0.1,0,0.2c0,0.1,0,0.3,0.1,0.4c0,0.1,0,0.1,0,0.2c0,0,0,0.1,0,0.1L526.7,373.2z
					 M520.1,370.9l-0.4-62.8l-107.1-17.6l-34.9,13.4c0,0,0,0,0,0c-0.4,0.1-0.7,0.2-1.1,0.2c0,0,0,0,0,0h0c-0.2,0-0.3,0-0.5,0
					l-108.2-16.9l-35,13.9v62.7l16.2,2.9h0c0.1,0,0.3,0.1,0.4,0.1c0.1,0,0.2,0,0.2,0.1c0.1,0,0.2,0.1,0.3,0.1
					c0.1,0.1,0.2,0.1,0.3,0.2c0.1,0.1,0.2,0.1,0.2,0.2c0.1,0.1,0.2,0.2,0.3,0.2c0.1,0.1,0.1,0.1,0.2,0.2c0.1,0.1,0.2,0.2,0.2,0.2
					c0.1,0.1,0.1,0.2,0.2,0.3c0,0.1,0.1,0.2,0.2,0.3c0,0.1,0.1,0.2,0.1,0.3c0,0.1,0.1,0.2,0.1,0.4c0,0.1,0,0.2,0,0.2
					c0,0.1,0,0.3,0,0.4v0v15.9l16.3,3.4c0.4,0.1,0.8,0.3,1.2,0.5c0,0,0.1,0,0.1,0.1c0.2,0.1,0.3,0.2,0.4,0.4c0,0,0,0,0,0
					c0.5,0.6,0.9,1.3,0.9,2.1c0,0.1,0,0.1,0,0.2l-0.1,15.6l53,9.1l34.5-13.2c0.1,0,0.1,0,0.2-0.1c0.1,0,0.2,0,0.3-0.1
					c0.1,0,0.2,0,0.3,0c0.1,0,0.2,0,0.3,0c0.1,0,0.2,0,0.4,0c0,0,0.1,0,0.2,0l54,8.5L520.1,370.9z"/>
			</g>
			<g>
			</g>
		</g>
	</g>
	<g>
		<g>
			<g class="st1">
				<g>
					<g id="XMLID_208_">
						<g>
							<polygon class="st18" points="525.9,288 549.3,300.7 530.7,306.2 507.3,293.4 							"/>
							<polygon class="st19" points="549.3,300.7 507.4,401.7 488.7,407.1 530.7,306.2 							"/>
							<polygon class="st18" points="507.3,293.4 530.7,306.2 488.7,407.1 465.4,394.4 							"/>
						</g>
						<g>
						</g>
					</g>
				</g>
			</g>
			<g class="st1">
				<g>
					<g id="XMLID_207_">
						<g>
							<polygon class="st20" points="536.5,263 559.8,275.7 541.2,281.2 517.8,268.5 							"/>
							<polygon class="st21" points="559.8,275.7 549.5,300.6 530.9,306.1 541.2,281.2 							"/>
							<polygon class="st22" points="517.8,268.5 541.2,281.2 530.9,306.1 507.5,293.3 							"/>
						</g>
						<g>
						</g>
					</g>
				</g>
			</g>
		</g>
		<path class="st17" d="M565.3,274.6c0-0.1,0-0.2-0.1-0.3c0-0.1-0.1-0.2-0.1-0.3c0-0.1-0.1-0.2-0.1-0.3c0-0.1-0.1-0.2-0.2-0.3
			c-0.1-0.1-0.1-0.2-0.2-0.3c-0.1-0.1-0.1-0.2-0.2-0.2c-0.1-0.1-0.1-0.2-0.2-0.2c-0.1-0.1-0.2-0.1-0.2-0.2c-0.1-0.1-0.2-0.1-0.3-0.2
			c0,0-0.1,0-0.1-0.1l-25.6-14.9c0,0-0.1,0-0.1-0.1c-0.1-0.1-0.2-0.1-0.3-0.1c-0.1,0-0.2-0.1-0.3-0.1c-0.1,0-0.2-0.1-0.3-0.1
			c-0.1,0-0.2,0-0.3,0c-0.1,0-0.2,0-0.3,0c-0.1,0-0.2,0-0.3,0c-0.1,0-0.2,0-0.3,0.1c-0.1,0-0.2,0-0.3,0.1c-0.1,0-0.1,0-0.2,0
			l-19.4,7.3c0,0,0,0-0.1,0c-0.1,0-0.1,0.1-0.2,0.1c-0.1,0.1-0.3,0.1-0.4,0.2c0,0,0,0-0.1,0.1c-0.2,0.1-0.3,0.2-0.4,0.3
			c0,0,0,0-0.1,0.1c-0.1,0.1-0.3,0.3-0.4,0.4c0,0-0.1,0.1-0.1,0.2c-0.1,0.1-0.2,0.3-0.2,0.4c0,0,0,0,0,0l-53.8,128c0,0,0,0.1,0,0.1
			c0,0.1-0.1,0.2-0.1,0.3c0,0.1-0.1,0.2-0.1,0.3c0,0.1,0,0.2,0,0.3c0,0.1,0,0.2,0,0.3c0,0.1,0,0.2,0,0.3c0,0.1,0,0.2,0.1,0.3
			c0,0.1,0.1,0.2,0.1,0.3c0,0.1,0.1,0.2,0.1,0.3c0,0.1,0.1,0.2,0.1,0.3c0.1,0.1,0.1,0.2,0.2,0.3c0.1,0.1,0.1,0.2,0.2,0.2
			c0.1,0.1,0.1,0.2,0.2,0.2c0.1,0.1,0.2,0.1,0.2,0.2c0.1,0.1,0.2,0.1,0.3,0.2c0,0,0.1,0,0.1,0.1l23,13.6c0,0,0.1,0,0.1,0
			c0.3,0.1,0.5,0.2,0.8,0.3c0,0,0,0,0.1,0c0.3,0.1,0.6,0.1,0.9,0.1c0.1,0,0.1,0,0.2,0c0.1,0,0.2,0,0.3,0l21.4-4.1
			c0.2,0,0.3-0.1,0.5-0.2c0.1,0,0.2,0,0.3-0.1c0.3-0.1,0.5-0.3,0.7-0.4c0,0,0,0,0,0s0,0,0,0c0.2-0.2,0.4-0.4,0.6-0.6
			c0.1-0.1,0.1-0.2,0.1-0.3c0.1-0.1,0.2-0.3,0.3-0.4l54.4-130.1c0,0,0-0.1,0-0.1c0-0.1,0.1-0.2,0.1-0.3c0-0.1,0.1-0.2,0.1-0.3
			c0-0.1,0-0.2,0-0.3c0-0.1,0-0.2,0-0.3C565.4,274.8,565.3,274.7,565.3,274.6z M505.2,402.1l-18.4,3.5l-19.4-11.5l52.1-124l16.6-6.3
			l21.7,12.6L505.2,402.1z"/>
	</g>
	<g>
		<g>
			<g class="st1">
				<g>
					<g id="XMLID_206_">
						<g>
							<polygon class="st23" points="551.9,425.1 552.1,430.4 539.1,435.7 539,430.4 							"/>
							<polygon class="st24" points="546.6,412.4 551.9,425.1 539,430.4 535.5,422.2 546.7,417.6 							"/>
							<polygon class="st24" points="546.6,412.4 546.7,417.6 535.5,422.2 533.7,417.7 							"/>
							<polygon class="st23" points="541.2,399.6 546.6,412.4 533.7,417.7 528.3,404.9 							"/>
							<polygon class="st25" points="539,430.4 539.1,435.7 537.2,431.2 							"/>
							<polygon class="st25" points="537.2,431.2 539.1,435.7 526.2,441 526.1,435.7 							"/>
							<polygon class="st23" points="535.5,422.2 539,430.4 537.2,431.2 533.8,422.9 							"/>
							<polygon class="st23" points="533.8,422.9 537.2,431.2 526.1,435.7 522.6,427.5 							"/>
							<polygon class="st23" points="533.7,417.7 535.5,422.2 533.8,422.9 							"/>
							<polygon class="st23" points="533.7,417.7 533.8,422.9 531.9,418.4 							"/>
							<polygon class="st23" points="531.9,418.4 533.8,422.9 522.6,427.5 520.7,423 							"/>
							<polygon class="st24" points="528.3,404.9 533.7,417.7 531.9,418.4 528.4,410.1 							"/>
							<polygon class="st24" points="528.4,410.1 531.9,418.4 520.7,423 517.2,414.7 							"/>
							<polygon class="st24" points="528.3,404.9 528.4,410.1 517.2,414.7 515.4,410.2 							"/>
							<polygon class="st23" points="522.9,392.1 528.3,404.9 515.4,410.2 510,397.4 							"/>
							<polygon class="st25" points="526.1,435.7 526.2,441 520.8,428.2 522.6,427.5 							"/>
							<polygon class="st25" points="520.7,423 522.6,427.5 520.8,428.2 							"/>
							<polygon class="st25" points="520.7,423 520.8,428.2 519,423.7 							"/>
							<polygon class="st25" points="519,423.7 520.8,428.2 507.9,433.5 507.8,428.3 							"/>
							<polygon class="st23" points="517.2,414.7 520.7,423 519,423.7 515.5,415.4 							"/>
							<polygon class="st23" points="519,423.7 507.8,428.3 504.3,420 515.5,415.4 							"/>
							<polygon class="st23" points="515.4,410.2 517.2,414.7 515.5,415.4 							"/>
							<polygon class="st23" points="515.4,410.2 515.5,415.4 513.6,411 							"/>
							<polygon class="st23" points="513.6,411 515.5,415.4 504.3,420 502.5,415.5 							"/>
							<polygon class="st24" points="510,397.4 515.4,410.2 513.6,411 510.1,402.7 							"/>
							<polygon class="st24" points="510.1,402.7 513.6,411 502.5,415.5 499,407.2 							"/>
							<polygon class="st24" points="510,397.4 510.1,402.7 499,407.2 497.1,402.7 							"/>
							<polygon class="st23" points="504.6,384.7 510,397.4 497.1,402.7 491.7,390 							"/>
							<polygon class="st25" points="507.8,428.3 507.9,433.5 502.5,420.7 504.3,420 							"/>
							<polygon class="st25" points="502.5,415.5 504.3,420 502.5,420.7 							"/>
							<polygon class="st25" points="502.5,415.5 502.5,420.7 500.7,416.3 							"/>
							<polygon class="st25" points="500.7,416.3 502.5,420.7 489.6,426.1 489.5,420.8 							"/>
							<polygon class="st23" points="499,407.2 502.5,415.5 500.7,416.3 497.2,408 							"/>
							<polygon class="st23" points="497.2,408 500.7,416.3 489.5,420.8 486,412.6 							"/>
							<polygon class="st23" points="497.1,402.7 499,407.2 497.2,408 							"/>
							<polygon class="st23" points="497.1,402.7 497.2,408 495.3,403.5 							"/>
							<polygon class="st23" points="495.3,403.5 497.2,408 486,412.6 484.1,408 							"/>
							<polygon class="st24" points="491.7,390 497.1,402.7 495.3,403.5 491.8,395.2 							"/>
							<polygon class="st24" points="495.3,403.5 484.1,408 480.7,399.8 491.8,395.2 							"/>
							<polygon class="st24" points="491.7,390 491.8,395.2 480.7,399.8 478.8,395.3 							"/>
							<polygon class="st23" points="486.3,377.2 491.7,390 478.8,395.3 473.4,382.5 							"/>
							<polygon class="st25" points="489.5,420.8 489.6,426.1 484.3,413.3 486,412.6 							"/>
							<polygon class="st25" points="484.1,408 486,412.6 484.3,413.3 							"/>
							<polygon class="st25" points="484.1,408 484.3,413.3 482.4,408.8 							"/>
							<polygon class="st25" points="482.4,408.8 484.3,413.3 471.3,418.6 471.2,413.4 							"/>
							<polygon class="st23" points="480.7,399.8 484.1,408 482.4,408.8 478.9,400.5 							"/>
							<polygon class="st23" points="482.4,408.8 471.2,413.4 467.7,405.1 478.9,400.5 							"/>
							<polygon class="st23" points="478.8,395.3 480.7,399.8 478.9,400.5 							"/>
							<polygon class="st23" points="478.8,395.3 478.9,400.5 477,396 							"/>
							<polygon class="st23" points="477,396 478.9,400.5 467.7,405.1 465.8,400.6 							"/>
							<polygon class="st24" points="473.4,382.5 478.8,395.3 477,396 473.5,387.8 							"/>
							<polygon class="st24" points="473.5,387.8 477,396 465.8,400.6 462.4,392.3 							"/>
							<polygon class="st24" points="473.4,382.5 473.5,387.8 462.4,392.3 460.5,387.8 							"/>
							<polygon class="st23" points="468,369.8 473.4,382.5 460.5,387.8 455.1,375.1 							"/>
							<polygon class="st25" points="471.2,413.4 471.3,418.6 466,405.8 467.7,405.1 							"/>
							<polygon class="st25" points="465.8,400.6 467.7,405.1 466,405.8 							"/>
							<polygon class="st25" points="465.8,400.6 466,405.8 464.1,401.3 							"/>
							<polygon class="st25" points="464.1,401.3 466,405.8 453,411.1 452.9,405.9 							"/>
							<polygon class="st23" points="462.4,392.3 465.8,400.6 464.1,401.3 460.6,393.1 							"/>
							<polygon class="st23" points="460.6,393.1 464.1,401.3 452.9,405.9 449.4,397.6 							"/>
							<polygon class="st23" points="460.5,387.8 462.4,392.3 460.6,393.1 							"/>
							<polygon class="st23" points="460.5,387.8 460.6,393.1 458.7,388.6 							"/>
							<polygon class="st23" points="458.7,388.6 460.6,393.1 449.4,397.6 447.5,393.1 							"/>
							<polygon class="st24" points="455.1,375.1 460.5,387.8 458.7,388.6 455.2,380.3 							"/>
							<polygon class="st24" points="458.7,388.6 447.5,393.1 444.1,384.9 455.2,380.3 							"/>
							<polygon class="st24" points="455.1,375.1 455.2,380.3 444.1,384.9 442.2,380.4 							"/>
							<polygon class="st23" points="449.7,362.3 455.1,375.1 442.2,380.4 436.8,367.6 							"/>
							<polygon class="st26" points="454.2,300.6 454.2,305.9 443.1,310.4 441.2,306 							"/>
							<polygon class="st27" points="448.8,287.9 454.2,300.6 441.2,306 435.9,293.2 							"/>
							<polygon class="st25" points="452.9,405.9 453,411.1 447.7,398.4 449.4,397.6 							"/>
							<polygon class="st25" points="447.5,393.1 449.4,397.6 447.7,398.4 							"/>
							<polygon class="st25" points="447.5,393.1 447.7,398.4 445.8,393.9 							"/>
							<polygon class="st25" points="445.8,393.9 447.7,398.4 434.7,403.7 434.6,398.4 							"/>
							<polygon class="st23" points="444.1,384.9 447.5,393.1 445.8,393.9 442.3,385.6 							"/>
							<polygon class="st26" points="446.6,318.7 446.7,323.9 433.7,329.3 433.7,324 							"/>
							<polygon class="st27" points="443.1,310.4 446.6,318.7 433.7,324 420.7,329.3 407.8,334.6 394.9,339.9 391.4,331.7 
								402.5,327.1 415.5,321.8 428.4,316.5 441.3,311.2 							"/>
							<polygon class="st23" points="442.3,385.6 445.8,393.9 434.6,398.4 431.1,390.2 							"/>
							<polygon class="st23" points="442.2,380.4 444.1,384.9 442.3,385.6 							"/>
							<polygon class="st27" points="441.2,306 443.1,310.4 441.3,311.2 							"/>
							<polygon class="st23" points="442.2,380.4 442.3,385.6 440.4,381.1 							"/>
							<polygon class="st23" points="440.4,381.1 442.3,385.6 431.1,390.2 429.3,385.7 							"/>
							<polygon class="st24" points="436.8,367.6 442.2,380.4 440.4,381.1 436.9,372.8 							"/>
							<polygon class="st27" points="441.2,306 441.3,311.2 439.5,306.7 							"/>
							<polygon class="st27" points="439.5,306.7 441.3,311.2 428.4,316.5 428.3,311.3 							"/>
							<polygon class="st28" points="435.9,293.2 441.2,306 439.5,306.7 436,298.4 							"/>
							<polygon class="st24" points="436.9,372.8 440.4,381.1 429.3,385.7 425.8,377.4 							"/>
							<polygon class="st28" points="436,298.4 439.5,306.7 428.3,311.3 424.8,303 							"/>
							<polygon class="st24" points="436.8,367.6 436.9,372.8 425.8,377.4 423.9,372.9 							"/>
							<polygon class="st23" points="431.5,354.9 436.8,367.6 423.9,372.9 418.5,360.2 							"/>
							<polygon class="st28" points="435.9,293.2 436,298.4 424.8,303 422.9,298.5 							"/>
							<polygon class="st27" points="430.5,280.4 435.9,293.2 422.9,298.5 410,303.8 397.1,309.1 384.1,314.4 371.2,319.7 
								365.9,307 378.8,301.7 391.7,296.4 404.6,291 417.6,285.7 							"/>
							<polygon class="st25" points="434.6,398.4 434.7,403.7 429.4,390.9 431.1,390.2 							"/>
							<polygon class="st26" points="433.7,324 433.7,329.3 420.8,334.6 420.7,329.3 							"/>
							<polygon class="st25" points="429.3,385.7 431.1,390.2 429.4,390.9 							"/>
							<polygon class="st25" points="429.3,385.7 429.4,390.9 427.5,386.4 							"/>
							<polygon class="st25" points="427.5,386.4 429.4,390.9 416.4,396.2 416.3,391 							"/>
							<polygon class="st23" points="425.8,377.4 429.3,385.7 427.5,386.4 424,378.1 							"/>
							<polygon class="st27" points="428.3,311.3 428.4,316.5 426.5,312 							"/>
							<polygon class="st27" points="426.5,312 428.4,316.5 415.5,321.8 415.4,316.6 							"/>
							<polygon class="st28" points="424.8,303 428.3,311.3 426.5,312 423,303.7 							"/>
							<polygon class="st23" points="427.5,386.4 416.3,391 412.8,382.7 424,378.1 							"/>
							<polygon class="st28" points="423,303.7 426.5,312 415.4,316.6 411.9,308.3 							"/>
							<polygon class="st23" points="423.9,372.9 425.8,377.4 424,378.1 							"/>
							<polygon class="st28" points="422.9,298.5 424.8,303 423,303.7 							"/>
							<polygon class="st23" points="423.9,372.9 424,378.1 422.1,373.7 							"/>
							<polygon class="st23" points="422.1,373.7 424,378.1 412.8,382.7 411,378.2 							"/>
							<polygon class="st24" points="418.5,360.2 423.9,372.9 422.1,373.7 418.6,365.4 							"/>
							<polygon class="st28" points="422.9,298.5 423,303.7 411.9,308.3 410,303.8 							"/>
							<polygon class="st24" points="418.6,365.4 422.1,373.7 411,378.2 407.5,370 							"/>
							<polygon class="st26" points="420.7,329.3 420.8,334.6 407.9,339.9 407.8,334.6 							"/>
							<polygon class="st24" points="418.5,360.2 418.6,365.4 407.5,370 405.6,365.5 							"/>
							<polygon class="st23" points="413.2,347.4 418.5,360.2 405.6,365.5 400.2,352.7 							"/>
							<polygon class="st25" points="416.3,391 416.4,396.2 411.1,383.5 412.8,382.7 							"/>
							<polygon class="st27" points="415.4,316.6 415.5,321.8 413.6,317.3 							"/>
							<polygon class="st27" points="413.6,317.3 415.5,321.8 402.5,327.1 402.4,321.9 							"/>
							<polygon class="st28" points="411.9,308.3 415.4,316.6 413.6,317.3 410.1,309 							"/>
							<polygon class="st28" points="410.1,309 413.6,317.3 402.4,321.9 399,313.6 							"/>
							<polygon class="st25" points="411,378.2 412.8,382.7 411.1,383.5 							"/>
							<polygon class="st28" points="410,303.8 411.9,308.3 410.1,309 							"/>
							<polygon class="st25" points="411,378.2 411.1,383.5 409.2,379 							"/>
							<polygon class="st25" points="409.2,379 411.1,383.5 398.2,388.8 398.1,383.5 							"/>
							<polygon class="st23" points="407.5,370 411,378.2 409.2,379 405.7,370.7 							"/>
							<polygon class="st28" points="410,303.8 410.1,309 399,313.6 397.1,309.1 							"/>
							<polygon class="st23" points="405.7,370.7 409.2,379 398.1,383.5 394.6,375.3 							"/>
							<polygon class="st26" points="407.8,334.6 407.9,339.9 396.8,344.4 394.9,339.9 							"/>
							<polygon class="st23" points="405.6,365.5 407.5,370 405.7,370.7 							"/>
							<polygon class="st23" points="405.6,365.5 405.7,370.7 403.8,366.2 							"/>
							<polygon class="st23" points="403.8,366.2 405.7,370.7 394.6,375.3 392.7,370.8 							"/>
							<polygon class="st24" points="400.2,352.7 405.6,365.5 403.8,366.2 400.3,357.9 							"/>
							<polygon class="st24" points="403.8,366.2 392.7,370.8 389.2,362.5 400.3,357.9 							"/>
							<polygon class="st27" points="402.4,321.9 402.5,327.1 400.6,322.6 							"/>
							<polygon class="st27" points="400.6,322.6 402.5,327.1 391.4,331.7 389.5,327.2 							"/>
							<polygon class="st28" points="399,313.6 402.4,321.9 400.6,322.6 397.2,314.3 							"/>
							<polygon class="st26" points="401.2,427.1 401.3,432.3 390.2,436.9 388.3,432.4 							"/>
							<polygon class="st27" points="395.9,414.4 401.2,427.1 388.3,432.4 382.9,419.7 377.5,406.9 372.2,394.1 368.7,385.9 
								379.9,381.3 381.6,380.6 385.1,388.8 390.5,401.6 							"/>
							<polygon class="st28" points="397.2,314.3 400.6,322.6 389.5,327.2 386,318.9 							"/>
							<polygon class="st24" points="400.2,352.7 400.3,357.9 389.2,362.5 387.3,358 							"/>
							<polygon class="st29" points="396.8,344.4 400.2,352.7 387.3,358 383.8,349.7 395,345.2 							"/>
							<polygon class="st28" points="397.1,309.1 399,313.6 397.2,314.3 							"/>
							<polygon class="st25" points="398.1,383.5 398.2,388.8 392.8,376 394.6,375.3 							"/>
							<polygon class="st28" points="397.1,309.1 397.2,314.3 386,318.9 384.1,314.4 							"/>
							<polygon class="st29" points="396.8,344.4 395,345.2 394.9,339.9 							"/>
							<polygon class="st29" points="394.9,339.9 395,345.2 393.1,340.7 							"/>
							<polygon class="st29" points="393.1,340.7 395,345.2 383.8,349.7 381.9,345.2 							"/>
							<polygon class="st28" points="391.4,331.7 394.9,339.9 393.1,340.7 389.6,332.4 							"/>
							<polygon class="st25" points="392.7,370.8 394.6,375.3 392.8,376 							"/>
							<polygon class="st26" points="393.7,445.2 393.8,450.4 380.8,455.7 380.7,450.5 							"/>
							<polygon class="st27" points="390.2,436.9 393.7,445.2 380.7,450.5 377.3,442.2 388.4,437.7 							"/>
							<polygon class="st28" points="389.6,332.4 393.1,340.7 381.9,345.2 378.5,337 							"/>
							<polygon class="st26" points="392.7,370.8 392.8,376 390.9,371.5 							"/>
							<polygon class="st26" points="390.9,371.5 392.8,376 381.6,380.6 379.7,376.1 							"/>
							<polygon class="st29" points="389.2,362.5 392.7,370.8 390.9,371.5 387.4,363.2 							"/>
							<polygon class="st28" points="389.5,327.2 391.4,331.7 389.6,332.4 							"/>
							<polygon class="st29" points="387.4,363.2 390.9,371.5 379.7,376.1 376.3,367.8 							"/>
							<polygon class="st27" points="388.3,432.4 390.2,436.9 388.4,437.7 							"/>
							<polygon class="st28" points="389.5,327.2 389.6,332.4 387.7,327.9 							"/>
							<polygon class="st28" points="387.7,327.9 389.6,332.4 378.5,337 376.6,332.5 							"/>
							<polygon class="st28" points="386,318.9 389.5,327.2 387.7,327.9 384.3,319.6 							"/>
							<polygon class="st29" points="387.3,358 389.2,362.5 387.4,363.2 							"/>
							<polygon class="st27" points="388.3,432.4 388.4,437.7 386.5,433.2 							"/>
							<polygon class="st27" points="386.5,433.2 388.4,437.7 377.3,442.2 375.4,437.7 							"/>
							<polygon class="st28" points="382.9,419.7 388.3,432.4 386.5,433.2 383,424.9 							"/>
							<polygon class="st28" points="384.3,319.6 387.7,327.9 376.6,332.5 373.1,324.2 							"/>
							<polygon class="st29" points="387.3,358 387.4,363.2 385.5,358.7 							"/>
							<polygon class="st29" points="385.5,358.7 387.4,363.2 376.3,367.8 374.4,363.3 							"/>
							<polygon class="st28" points="383.8,349.7 387.3,358 385.5,358.7 382.1,350.5 							"/>
							<polygon class="st28" points="383,424.9 386.5,433.2 375.4,437.7 371.9,429.5 							"/>
							<polygon class="st28" points="386,318.9 384.3,319.6 384.1,314.4 							"/>
							<polygon class="st28" points="382.1,350.5 385.5,358.7 374.4,363.3 370.9,355 							"/>
							<polygon class="st28" points="384.1,314.4 384.3,319.6 373.1,324.2 371.2,319.7 							"/>
							<polygon class="st28" points="381.9,345.2 383.8,349.7 382.1,350.5 							"/>
							<polygon class="st28" points="382.9,419.7 383,424.9 381.1,420.4 							"/>
							<polygon class="st28" points="381.1,420.4 383,424.9 371.9,429.5 370,425 							"/>
							<polygon class="st28" points="377.5,406.9 382.9,419.7 381.1,420.4 377.7,412.1 							"/>
							<polygon class="st28" points="381.9,345.2 382.1,350.5 380.2,346 							"/>
							<polygon class="st28" points="380.2,346 382.1,350.5 370.9,355 369,350.6 							"/>
							<polygon class="st28" points="378.5,337 381.9,345.2 380.2,346 376.7,337.7 							"/>
							<polygon class="st27" points="379.7,376.1 381.6,380.6 379.9,381.3 							"/>
							<polygon class="st28" points="381.1,420.4 370,425 366.5,416.7 377.7,412.1 							"/>
							<polygon class="st26" points="380.7,450.5 380.8,455.7 375.5,443 377.3,442.2 							"/>
							<polygon class="st28" points="376.7,337.7 380.2,346 369,350.6 365.6,342.3 							"/>
							<polygon class="st27" points="379.7,376.1 379.9,381.3 378,376.8 							"/>
							<polygon class="st27" points="378,376.8 379.9,381.3 368.7,385.9 366.8,381.4 							"/>
							<polygon class="st28" points="376.3,367.8 379.7,376.1 378,376.8 374.5,368.5 							"/>
							<polygon class="st28" points="376.6,332.5 378.5,337 376.7,337.7 							"/>
							<polygon class="st28" points="374.5,368.5 378,376.8 366.8,381.4 363.4,373.1 							"/>
							<polygon class="st28" points="377.5,406.9 377.7,412.1 375.8,407.6 							"/>
							<polygon class="st28" points="375.8,407.6 377.7,412.1 366.5,416.7 364.6,412.2 							"/>
							<polygon class="st28" points="372.2,394.1 377.5,406.9 375.8,407.6 372.3,399.4 							"/>
							<polygon class="st26" points="375.4,437.7 377.3,442.2 375.5,443 							"/>
							<polygon class="st28" points="376.6,332.5 376.7,337.7 374.8,333.2 							"/>
							<polygon class="st28" points="374.8,333.2 376.7,337.7 365.6,342.3 363.7,337.8 							"/>
							<polygon class="st27" points="373.1,324.2 376.6,332.5 374.8,333.2 371.3,324.9 							"/>
							<polygon class="st28" points="374.4,363.3 376.3,367.8 374.5,368.5 							"/>
							<polygon class="st28" points="372.3,399.4 375.8,407.6 364.6,412.2 361.2,403.9 							"/>
							<polygon class="st26" points="375.4,437.7 375.5,443 373.6,438.5 							"/>
							<polygon class="st26" points="373.6,438.5 375.5,443 362.6,448.3 362.4,443 							"/>
							<polygon class="st27" points="371.9,429.5 375.4,437.7 373.6,438.5 370.1,430.2 							"/>
							<polygon class="st27" points="371.3,324.9 374.8,333.2 363.7,337.8 358.3,325 369.4,320.5 							"/>
							<polygon class="st28" points="374.4,363.3 374.5,368.5 372.6,364 							"/>
							<polygon class="st28" points="372.6,364 374.5,368.5 363.4,373.1 361.5,368.6 							"/>
							<polygon class="st28" points="370.9,355 374.4,363.3 372.6,364 369.1,355.8 							"/>
							<polygon class="st27" points="370.1,430.2 373.6,438.5 362.4,443 357.1,430.3 351.7,417.5 346.3,404.8 341,392 335.6,379.2 
								346.8,374.7 348.6,379.1 354,391.9 359.4,404.7 364.7,417.4 							"/>
							<polygon class="st27" points="371.2,319.7 373.1,324.2 371.3,324.9 							"/>
							<polygon class="st28" points="372.6,364 361.5,368.6 358,360.4 369.1,355.8 							"/>
							<polygon class="st28" points="372.2,394.1 372.3,399.4 370.4,394.9 							"/>
							<polygon class="st28" points="370.4,394.9 372.3,399.4 361.2,403.9 359.3,399.4 							"/>
							<polygon class="st28" points="368.7,385.9 372.2,394.1 370.4,394.9 366.9,386.6 							"/>
							<polygon class="st27" points="370,425 371.9,429.5 370.1,430.2 							"/>
							<polygon class="st27" points="371.2,319.7 371.3,324.9 369.4,320.5 							"/>
							<polygon class="st30" points="365.9,307 371.2,319.7 369.4,320.5 366,312.2 							"/>
							<polygon class="st28" points="369,350.6 370.9,355 369.1,355.8 							"/>
							<polygon class="st28" points="370.4,394.9 359.3,399.4 355.8,391.2 366.9,386.6 							"/>
							<polygon class="st27" points="370,425 370.1,430.2 364.7,417.4 366.5,416.7 							"/>
							<polygon class="st28" points="369,350.6 369.1,355.8 367.2,351.3 							"/>
							<polygon class="st28" points="367.2,351.3 369.1,355.8 358,360.4 356.1,355.9 							"/>
							<polygon class="st24" points="365.6,342.3 369,350.6 367.2,351.3 363.8,343 							"/>
							<polygon class="st28" points="366.8,381.4 368.7,385.9 366.9,386.6 							"/>
							<polygon class="st24" points="363.8,343 367.2,351.3 356.1,355.9 352.6,347.6 							"/>
							<polygon class="st28" points="366.8,381.4 366.9,386.6 365,382.1 							"/>
							<polygon class="st28" points="365,382.1 366.9,386.6 355.8,391.2 353.9,386.7 							"/>
							<polygon class="st28" points="363.4,373.1 366.8,381.4 365,382.1 361.6,373.9 							"/>
							<polygon class="st27" points="364.6,412.2 366.5,416.7 364.7,417.4 							"/>
							<polygon class="st24" points="363.7,337.8 365.6,342.3 363.8,343 							"/>
							<polygon class="st28" points="361.6,373.9 365,382.1 353.9,386.7 350.4,378.4 							"/>
							<polygon class="st27" points="364.6,412.2 364.7,417.4 359.4,404.7 361.2,403.9 							"/>
							<polygon class="st24" points="363.7,337.8 363.8,343 361.9,338.5 							"/>
							<polygon class="st24" points="361.9,338.5 363.8,343 352.6,347.6 350.7,343.1 							"/>
							<polygon class="st23" points="358.3,325 363.7,337.8 361.9,338.5 358.4,330.3 							"/>
							<polygon class="st28" points="361.5,368.6 363.4,373.1 361.6,373.9 							"/>
							<polygon class="st26" points="362.4,443 362.6,448.3 357.2,435.5 357.1,430.3 							"/>
							<polygon class="st23" points="361.9,338.5 350.7,343.1 345.4,330.3 358.3,325 358.4,330.3 							"/>
							<polygon class="st28" points="361.5,368.6 361.6,373.9 359.7,369.3 							"/>
							<polygon class="st28" points="359.7,369.3 361.6,373.9 350.4,378.4 348.5,373.9 							"/>
							<polygon class="st27" points="358,360.4 361.5,368.6 359.7,369.3 356.2,361.1 							"/>
							<polygon class="st27" points="359.3,399.4 361.2,403.9 359.4,404.7 							"/>
							<polygon class="st27" points="359.7,369.3 348.5,373.9 345.1,365.7 356.2,361.1 							"/>
							<polygon class="st27" points="359.3,399.4 359.4,404.7 354,391.9 355.8,391.2 							"/>
							<polygon class="st27" points="356.1,355.9 358,360.4 356.2,361.1 							"/>
							<polygon class="st26" points="357.1,430.3 357.2,435.5 351.8,422.7 351.7,417.5 							"/>
							<polygon class="st27" points="356.1,355.9 356.2,361.1 354.3,356.6 							"/>
							<polygon class="st27" points="354.3,356.6 356.2,361.1 345.1,365.7 343.2,361.2 							"/>
							<polygon class="st23" points="352.6,347.6 356.1,355.9 354.3,356.6 350.8,348.3 							"/>
							<polygon class="st27" points="353.9,386.7 355.8,391.2 354,391.9 							"/>
							<polygon class="st23" points="350.8,348.3 354.3,356.6 343.2,361.2 339.7,352.9 							"/>
							<polygon class="st27" points="353.9,386.7 354,391.9 348.6,379.1 350.4,378.4 							"/>
							<polygon class="st23" points="352.6,347.6 350.8,348.3 350.7,343.1 							"/>
							<polygon class="st26" points="351.7,417.5 351.8,422.7 346.5,410 346.3,404.8 							"/>
							<polygon class="st23" points="350.7,343.1 350.8,348.3 349,343.8 							"/>
							<polygon class="st23" points="349,343.8 350.8,348.3 339.7,352.9 337.8,348.4 							"/>
							<polygon class="st24" points="345.4,330.3 350.7,343.1 349,343.8 345.5,335.6 							"/>
							<polygon class="st27" points="348.5,373.9 350.4,378.4 348.6,379.1 							"/>
							<polygon class="st24" points="345.5,335.6 349,343.8 337.8,348.4 332.4,335.6 345.4,330.3 							"/>
							<polygon class="st27" points="348.5,373.9 348.6,379.1 346.8,374.7 							"/>
							<polygon class="st26" points="345.1,365.7 348.5,373.9 346.8,374.7 343.3,366.4 							"/>
							<polygon class="st26" points="346.3,404.8 346.5,410 341.1,397.2 341,392 							"/>
							<polygon class="st26" points="343.2,361.2 345.1,365.7 343.3,366.4 							"/>
							<polygon class="st31" points="343.2,361.2 343.3,366.4 337.9,353.6 339.7,352.9 							"/>
							<polygon class="st26" points="341,392 341.1,397.2 335.7,384.5 335.6,379.2 							"/>
							<polygon class="st31" points="337.8,348.4 339.7,352.9 337.9,353.6 							"/>
							<polygon class="st31" points="337.8,348.4 337.9,353.6 332.5,340.9 332.4,335.6 							"/>
						</g>
						<g>
						</g>
					</g>
				</g>
			</g>
		</g>
		<path class="st17" d="M558.1,424.2c0-0.1,0-0.2,0-0.3c0-0.1-0.1-0.2-0.1-0.3c0-0.1-0.1-0.2-0.1-0.4c0,0,0,0,0,0l-12-27.7
			c0-0.1-0.1-0.2-0.2-0.3c0-0.1-0.1-0.2-0.1-0.3c-0.1-0.1-0.2-0.2-0.2-0.3c-0.1-0.1-0.1-0.1-0.2-0.2c-0.1-0.1-0.2-0.2-0.3-0.3
			c-0.1,0-0.1-0.1-0.2-0.2c-0.1-0.1-0.2-0.1-0.4-0.2c-0.1,0-0.1-0.1-0.2-0.1c-0.1-0.1-0.2-0.1-0.4-0.1c-0.1,0-0.2-0.1-0.2-0.1
			c-0.1,0-0.2,0-0.4,0c-0.1,0-0.2,0-0.3,0c-0.1,0-0.2,0-0.4,0c-0.1,0-0.2,0-0.3,0c-0.1,0-0.2,0.1-0.4,0.1c-0.1,0-0.2,0-0.2,0.1
			l-0.1,0c0,0,0,0,0,0c0,0,0,0,0,0l-10.2,4.1l-4.5-9.8c0-0.1-0.1-0.2-0.1-0.2c-0.1-0.1-0.1-0.2-0.2-0.3c-0.1-0.1-0.1-0.2-0.2-0.3
			c-0.1-0.1-0.1-0.1-0.2-0.2c-0.1-0.1-0.2-0.2-0.3-0.2c-0.1-0.1-0.1-0.1-0.2-0.2c-0.1-0.1-0.2-0.1-0.3-0.2c-0.1,0-0.1-0.1-0.2-0.1
			c-0.1,0-0.2-0.1-0.4-0.1c-0.1,0-0.2-0.1-0.3-0.1c-0.1,0-0.2,0-0.4,0c-0.1,0-0.2,0-0.3,0c-0.1,0-0.2,0-0.4,0c-0.1,0-0.2,0-0.3,0
			c-0.1,0-0.2,0.1-0.3,0.1c-0.1,0-0.2,0-0.2,0.1l-9.6,3.8l-4.6-9.4c0-0.1-0.1-0.1-0.1-0.2c-0.1-0.1-0.1-0.2-0.2-0.3
			c-0.1-0.1-0.1-0.2-0.2-0.2c-0.1-0.1-0.2-0.2-0.2-0.3c-0.1-0.1-0.1-0.1-0.2-0.2c-0.1-0.1-0.2-0.2-0.3-0.2c-0.1,0-0.1-0.1-0.2-0.1
			c-0.1-0.1-0.2-0.1-0.4-0.2c-0.1,0-0.1,0-0.2-0.1c-0.1,0-0.3-0.1-0.4-0.1c-0.1,0-0.2,0-0.2,0c-0.1,0-0.3,0-0.4,0
			c-0.1,0-0.2,0-0.3,0c-0.1,0-0.2,0-0.4,0.1c-0.1,0-0.2,0.1-0.3,0.1c-0.1,0-0.1,0-0.2,0.1l-9.4,3.8l-4.4-9.8c0,0,0,0,0,0
			c0,0,0,0,0,0c0-0.1-0.1-0.2-0.2-0.3c-0.1-0.1-0.1-0.2-0.2-0.3c-0.1-0.1-0.2-0.2-0.2-0.3c-0.1-0.1-0.1-0.2-0.2-0.2
			c-0.1-0.1-0.2-0.1-0.2-0.2c-0.1-0.1-0.2-0.1-0.3-0.2c-0.1,0-0.2-0.1-0.2-0.1c-0.1-0.1-0.2-0.1-0.4-0.2c-0.1,0-0.1,0-0.2-0.1
			c-0.1,0-0.3-0.1-0.4-0.1c-0.1,0-0.2,0-0.2,0c-0.1,0-0.3,0-0.4,0c-0.1,0-0.2,0-0.3,0c-0.1,0-0.2,0-0.3,0c-0.1,0-0.2,0.1-0.3,0.1
			c-0.1,0-0.2,0.1-0.3,0.1c0,0,0,0,0,0c0,0,0,0,0,0l-9.1,4.2l-4.5-10.5c-0.1-0.3-0.3-0.5-0.4-0.7c-0.8-1-2.1-1.5-3.4-1.2
			c-0.2,0-0.3,0.1-0.5,0.2c0,0,0,0,0,0l-9.9,4.2l-3.9-9.6c0,0,0,0,0-0.1c0,0,0-0.1,0-0.1c0-0.1-0.1-0.1-0.1-0.2
			c-0.1-0.1-0.1-0.2-0.2-0.3c-0.1-0.1-0.1-0.2-0.2-0.3c-0.1-0.1-0.1-0.2-0.2-0.2c-0.1-0.1-0.2-0.2-0.3-0.2c-0.1-0.1-0.2-0.1-0.2-0.2
			c-0.1-0.1-0.2-0.1-0.3-0.2c-0.1,0-0.2-0.1-0.3-0.1c-0.1,0-0.2-0.1-0.3-0.1c-0.1,0-0.2-0.1-0.3-0.1c-0.1,0-0.2,0-0.3,0
			c-0.1,0-0.2,0-0.3,0c-0.1,0-0.2,0-0.3,0c-0.1,0-0.2,0-0.3,0c-0.1,0-0.2,0.1-0.3,0.1c-0.1,0-0.2,0-0.2,0.1c0,0,0,0-0.1,0
			c0,0-0.1,0-0.1,0l-10.3,4.7l-4.8-10.3c0-0.1-0.1-0.2-0.2-0.3c-0.1-0.1-0.1-0.2-0.2-0.3c-0.1-0.1-0.1-0.2-0.2-0.2
			c-0.1-0.1-0.1-0.2-0.2-0.3c-0.1-0.1-0.2-0.1-0.3-0.2c-0.1-0.1-0.2-0.1-0.3-0.2c-0.1-0.1-0.2-0.1-0.3-0.2c-0.1,0-0.2-0.1-0.3-0.1
			c-0.1,0-0.2-0.1-0.4-0.1c-0.1,0-0.2-0.1-0.2-0.1c-0.1,0-0.3,0-0.4,0c-0.1,0-0.2,0-0.2,0c-0.1,0-0.3,0-0.4,0c-0.1,0-0.2,0-0.2,0
			c-0.1,0-0.3,0.1-0.4,0.1c-0.1,0-0.2,0-0.2,0.1l-0.1,0c0,0,0,0,0,0c0,0,0,0,0,0l-9.1,4l-4.5-10.3c0,0-0.1-0.1-0.1-0.1l34.6-14.6
			c0,0,0.1,0,0.1-0.1c0.1,0,0.2-0.1,0.3-0.2c0.1-0.1,0.2-0.1,0.3-0.2c0.1-0.1,0.2-0.1,0.2-0.2c0.1-0.1,0.2-0.2,0.2-0.2
			c0.1-0.1,0.1-0.2,0.2-0.2c0.1-0.1,0.1-0.2,0.2-0.3c0.1-0.1,0.1-0.2,0.1-0.3c0-0.1,0.1-0.2,0.1-0.3c0-0.1,0.1-0.2,0.1-0.3
			c0-0.1,0.1-0.2,0.1-0.3c0-0.1,0-0.2,0-0.3c0-0.1,0-0.2,0-0.4c0,0,0-0.1,0-0.1l-0.4-5.4c0-0.1,0-0.1,0-0.2c0-0.1,0-0.2-0.1-0.3
			c0-0.1-0.1-0.3-0.1-0.4c0,0,0-0.1,0-0.1l-0.1-0.1c0,0,0,0,0-0.1l-2-4.4l7.7-3c0,0,0,0,0,0c0.1-0.1,0.3-0.1,0.4-0.2
			c0.1,0,0.1-0.1,0.2-0.1c0.1-0.1,0.2-0.2,0.3-0.3c0.1-0.1,0.2-0.2,0.3-0.3c0.1-0.1,0.2-0.2,0.3-0.3c0,0,0-0.1,0.1-0.1
			c0.1-0.1,0.2-0.3,0.2-0.4c0,0,0,0,0-0.1c0.1-0.2,0.1-0.4,0.2-0.6c0-0.2,0.1-0.4,0.1-0.6c0,0,0,0,0,0l0.1-6.9c0,0,0,0,0-0.1
			c0-0.1,0-0.2,0-0.3c0-0.1,0-0.2,0-0.3c0-0.1,0-0.2-0.1-0.2c0-0.1-0.1-0.3-0.1-0.4c0,0,0,0,0,0l-6.7-15.2c0-0.1-0.1-0.2-0.1-0.3
			c-0.1-0.1-0.1-0.2-0.2-0.3c-0.1-0.1-0.1-0.2-0.2-0.2c-0.1-0.1-0.1-0.2-0.2-0.3c-0.1-0.1-0.1-0.1-0.2-0.2c-0.1-0.1-0.2-0.2-0.3-0.2
			c-0.1,0-0.2-0.1-0.2-0.1c-0.1-0.1-0.2-0.1-0.3-0.2c-0.1,0-0.1,0-0.2-0.1c-0.1,0-0.3-0.1-0.4-0.1c-0.1,0-0.1,0-0.2,0
			c-0.1,0-0.3,0-0.4,0c-0.1,0-0.2,0-0.2,0c-0.1,0-0.3,0-0.4,0c-0.1,0-0.2,0.1-0.3,0.1c-0.1,0-0.2,0-0.3,0.1l-10.6,4.3l-4.3-9.7
			c0,0,0,0,0,0c0,0,0,0,0,0l0-0.1c0-0.1-0.1-0.1-0.1-0.2c-0.1-0.1-0.1-0.2-0.2-0.3c-0.1-0.1-0.1-0.1-0.2-0.2
			c-0.1-0.1-0.2-0.2-0.2-0.3c-0.1-0.1-0.2-0.1-0.2-0.2c-0.1-0.1-0.2-0.1-0.3-0.2c-0.1-0.1-0.2-0.1-0.3-0.2c-0.1,0-0.2-0.1-0.2-0.1
			c-0.1-0.1-0.3-0.1-0.4-0.1c-0.1,0-0.1,0-0.2-0.1c-0.1,0-0.3,0-0.4,0c-0.1,0-0.1,0-0.2,0c-0.1,0-0.3,0-0.4,0c-0.1,0-0.2,0-0.3,0
			c-0.1,0-0.2,0.1-0.3,0.1c-0.1,0-0.2,0-0.3,0.1l-68,28c0,0,0,0,0,0c0,0,0,0,0,0c-0.1,0-0.2,0.1-0.3,0.1c-0.1,0.1-0.2,0.1-0.3,0.2
			c-0.1,0.1-0.1,0.1-0.2,0.2c-0.1,0.1-0.2,0.1-0.3,0.2c-0.1,0.1-0.1,0.2-0.2,0.2c-0.1,0.1-0.2,0.2-0.2,0.3c-0.1,0.1-0.1,0.2-0.1,0.3
			c-0.1,0.1-0.1,0.2-0.2,0.3c0,0.1-0.1,0.2-0.1,0.3c0,0.1-0.1,0.2-0.1,0.3c0,0.1,0,0.2,0,0.3c0,0.1,0,0.2,0,0.3c0,0.1,0,0.2,0,0.4
			c0,0.1,0,0.2,0,0.3c0,0.1,0.1,0.2,0.1,0.3c0,0.1,0,0.2,0.1,0.3c0,0,0,0,0,0c0,0,0,0,0,0l4.1,9.8l-36.2,15.2c0,0,0,0,0,0
			c0,0,0,0,0,0l0,0c-0.1,0-0.1,0.1-0.2,0.1c-0.1,0.1-0.3,0.1-0.4,0.2c-0.1,0-0.1,0.1-0.2,0.1c-0.1,0.1-0.2,0.2-0.3,0.3
			c-0.1,0.1-0.1,0.1-0.2,0.2c-0.1,0.1-0.2,0.2-0.2,0.3c-0.1,0.1-0.1,0.2-0.1,0.3c-0.1,0.1-0.1,0.2-0.2,0.3c0,0.1-0.1,0.2-0.1,0.3
			c0,0.1-0.1,0.2-0.1,0.3c0,0.1,0,0.2,0,0.3c0,0.1,0,0.2,0,0.3c0,0.1,0,0.2,0,0.4c0,0.1,0,0.2,0,0.3c0,0.1,0.1,0.2,0.1,0.4
			c0,0.1,0,0.2,0.1,0.3l0,0c0,0,0,0,0,0c0,0,0,0,0,0l13.8,34.2l-8.8,3.7c-0.1,0-0.2,0.1-0.3,0.1c-0.1,0.1-0.2,0.1-0.3,0.2
			c-0.1,0.1-0.1,0.1-0.2,0.2c-0.1,0.1-0.2,0.2-0.3,0.2c-0.1,0.1-0.1,0.1-0.2,0.2c-0.1,0.1-0.2,0.2-0.2,0.3c-0.1,0.1-0.1,0.2-0.1,0.2
			c-0.1,0.1-0.1,0.2-0.2,0.3c0,0.1-0.1,0.2-0.1,0.3c0,0.1-0.1,0.2-0.1,0.3c0,0.1,0,0.2,0,0.3c0,0.1,0,0.2,0,0.3c0,0.1,0,0.2,0,0.3
			c0,0.1,0,0.2,0,0.3c0,0.1,0.1,0.2,0.1,0.3c0,0.1,0,0.2,0.1,0.3l29.6,72.6c0.1,0.2,0.2,0.3,0.3,0.4c0.1,0.1,0.1,0.3,0.2,0.4
			c0.1,0.1,0.3,0.3,0.4,0.4c0.1,0.1,0.2,0.2,0.3,0.3c0.2,0.1,0.4,0.2,0.6,0.3c0.1,0,0.2,0.1,0.3,0.2c0.3,0.1,0.6,0.1,0.9,0.1
			c0,0,0,0,0.1,0c0,0,0,0,0,0c0,0,0,0,0,0c0.4,0,0.7-0.1,1.1-0.2c0,0,0.1,0,0.1,0l10-3.7l4.1,9.7c0.1,0.2,0.2,0.3,0.3,0.4
			c0.1,0.1,0.1,0.3,0.2,0.4c0.1,0.2,0.3,0.3,0.4,0.4c0.1,0.1,0.2,0.2,0.3,0.2c0.2,0.1,0.4,0.2,0.6,0.3c0.1,0,0.2,0.1,0.3,0.1
			c0.3,0.1,0.6,0.1,0.9,0.1c0,0,0,0,0,0c0,0,0,0,0,0c0,0,0,0,0,0c0.4,0,0.7-0.1,1.1-0.2c0,0,0.1,0,0.1,0l16-5.9c0,0,0,0,0.1,0
			c0.1,0,0.2-0.1,0.4-0.2c0.1,0,0.2-0.1,0.2-0.1c0.1-0.1,0.2-0.1,0.3-0.2c0.1-0.1,0.2-0.1,0.2-0.2c0.1-0.1,0.1-0.2,0.2-0.2
			c0.1-0.1,0.1-0.2,0.2-0.2c0.1-0.1,0.1-0.2,0.2-0.3c0-0.1,0.1-0.2,0.1-0.3c0-0.1,0.1-0.2,0.1-0.3c0-0.1,0.1-0.2,0.1-0.3
			c0-0.1,0-0.2,0-0.3c0-0.1,0-0.2,0-0.4c0,0,0-0.1,0-0.1l-0.1-7.3c0,0,0,0,0,0c0-0.1,0-0.2,0-0.4c0-0.1,0-0.2,0-0.3
			c0-0.1,0-0.1-0.1-0.2c0-0.2-0.1-0.3-0.2-0.5c0,0,0,0,0,0l-1.9-4.3l7.6-3c0,0,0,0,0,0c0.1-0.1,0.3-0.1,0.4-0.2
			c0.1,0,0.1-0.1,0.2-0.1c0.1-0.1,0.2-0.1,0.3-0.2c0.2-0.1,0.3-0.3,0.5-0.5c0.1-0.1,0.1-0.1,0.2-0.2c0.1-0.1,0.1-0.2,0.1-0.3
			c0.1-0.1,0.1-0.2,0.2-0.3c0.1-0.1,0.1-0.2,0.1-0.4c0-0.1,0.1-0.2,0.1-0.2c0-0.2,0.1-0.4,0.1-0.7l0.2-6.9c0,0,0,0,0,0
			c0-0.2,0-0.3,0-0.5c0-0.1,0-0.1,0-0.2c0-0.1-0.1-0.2-0.1-0.3c0-0.1-0.1-0.2-0.1-0.3c0,0,0,0,0,0l-17.9-42.8l0.1,0l4.9,10.1
			c0.1,0.1,0.2,0.2,0.2,0.4c0.1,0.1,0.2,0.3,0.2,0.4c0.1,0.1,0.3,0.2,0.4,0.4c0.1,0.1,0.2,0.2,0.3,0.3c0.2,0.1,0.4,0.2,0.6,0.3
			c0.1,0,0.2,0.1,0.3,0.1c0.3,0.1,0.6,0.1,0.9,0.1c0.2,0,0.5,0,0.7-0.1c0.1,0,0.1,0,0.2-0.1c0.1,0,0.2-0.1,0.4-0.1l10-4.1l4.4,9.8
			c0.1,0.2,0.2,0.3,0.3,0.5c0.1,0.1,0.1,0.2,0.2,0.3c0.1,0.2,0.3,0.3,0.5,0.4c0.1,0.1,0.2,0.2,0.3,0.2c0.2,0.1,0.4,0.2,0.6,0.3
			c0.1,0,0.2,0.1,0.3,0.1c0.3,0.1,0.6,0.1,0.9,0.1c0.2,0,0.4,0,0.7-0.1c0.1,0,0.1,0,0.2-0.1c0.1,0,0.3-0.1,0.4-0.1l9.5-4l4.3,9.5
			c0.1,0.1,0.2,0.2,0.2,0.4c0.1,0.1,0.1,0.3,0.2,0.4c0.1,0.1,0.3,0.3,0.4,0.4c0.1,0.1,0.2,0.2,0.3,0.3c0.2,0.1,0.4,0.2,0.6,0.3
			c0.1,0,0.2,0.1,0.3,0.1c0.3,0.1,0.6,0.1,0.9,0.1c0,0,0,0,0,0c0,0,0,0,0,0c0,0,0,0,0,0c0.3,0,0.7-0.1,1-0.2c0,0,0.1,0,0.1,0
			l9.1-3.3l4.4,10.7c0,0,0,0,0,0c0,0,0,0,0,0c0.1,0.1,0.2,0.3,0.2,0.4c0.1,0.1,0.2,0.3,0.3,0.4c0.1,0.1,0.3,0.2,0.4,0.4
			c0.1,0.1,0.2,0.2,0.3,0.3c0.2,0.1,0.4,0.2,0.6,0.3c0.1,0,0.2,0.1,0.3,0.1c0.3,0.1,0.6,0.1,0.9,0.1c0.2,0,0.4,0,0.7-0.1
			c0.1,0,0.1,0,0.2,0c0.2,0,0.3-0.1,0.5-0.1c0,0,0,0,0,0c0,0,0,0,0,0l10.1-4.5l4.1,10c0,0,0,0,0,0.1c0,0,0,0.1,0,0.1
			c0.1,0.1,0.2,0.3,0.3,0.4c0.1,0.1,0.1,0.3,0.2,0.4c0.1,0.1,0.3,0.3,0.4,0.4c0.1,0.1,0.2,0.2,0.3,0.2c0.2,0.1,0.4,0.2,0.6,0.3
			c0.1,0,0.2,0.1,0.3,0.1c0.3,0.1,0.6,0.1,0.9,0.1c0.2,0,0.4,0,0.7-0.1c0.1,0,0.1,0,0.2-0.1c0.1,0,0.3-0.1,0.4-0.1c0,0,0.1,0,0.1,0
			c0,0,0,0,0.1,0l9.7-4.6l4,9.4c0.1,0.2,0.2,0.3,0.3,0.4c0.1,0.1,0.1,0.3,0.2,0.4c0.1,0.1,0.3,0.3,0.4,0.4c0.1,0.1,0.2,0.2,0.3,0.3
			c0.2,0.1,0.4,0.2,0.5,0.3c0.1,0,0.2,0.1,0.3,0.2c0.3,0.1,0.6,0.1,0.9,0.1c0,0,0,0,0.1,0c0,0,0,0,0,0c0,0,0,0,0,0
			c0.4,0,0.8-0.1,1.1-0.2c0,0,0.1,0,0.1,0l9.9-3.8l4,9.5c0.1,0.2,0.2,0.3,0.3,0.4c0.1,0.1,0.1,0.3,0.2,0.4c0.1,0.2,0.3,0.3,0.4,0.4
			c0.1,0.1,0.2,0.2,0.3,0.3c0.2,0.1,0.4,0.2,0.6,0.3c0.1,0,0.2,0.1,0.3,0.1c0.3,0.1,0.6,0.1,0.9,0.1c0,0,0.1,0,0.1,0c0,0,0,0,0,0
			c0,0,0,0,0,0c0.4,0,0.8-0.1,1.1-0.2c0,0,0.1,0,0.1,0l10.2-4l4.5,9.7c0.1,0.2,0.2,0.3,0.3,0.4c0.1,0.1,0.1,0.2,0.2,0.3
			c0.1,0.1,0.3,0.2,0.4,0.4c0.1,0.1,0.2,0.2,0.3,0.3c0.2,0.1,0.4,0.2,0.5,0.3c0.1,0,0.2,0.1,0.3,0.1c0.3,0.1,0.6,0.1,0.9,0.1
			c0.2,0,0.4,0,0.7-0.1c0.1,0,0.2-0.1,0.3-0.1c0.1,0,0.2-0.1,0.4-0.1l29-12.3c0,0,0,0,0,0l0,0c0,0,0,0,0,0c0.2-0.1,0.4-0.2,0.5-0.3
			c0.1-0.1,0.1-0.1,0.2-0.2c0.1-0.1,0.2-0.1,0.3-0.2c0.1-0.1,0.1-0.2,0.2-0.2c0.1-0.1,0.1-0.2,0.2-0.3c0.1-0.1,0.1-0.2,0.1-0.2
			c0.1-0.1,0.1-0.2,0.2-0.3c0-0.1,0.1-0.2,0.1-0.3c0-0.1,0.1-0.2,0.1-0.4c0-0.1,0-0.2,0-0.3c0-0.1,0-0.2,0-0.3l0.1-6.9c0,0,0,0,0,0
			C558.1,424.4,558.1,424.3,558.1,424.2z M527.3,439.3l-4.5-9.6c0-0.1-0.1-0.1-0.1-0.2c-0.1-0.1-0.1-0.2-0.2-0.3
			c-0.1-0.1-0.1-0.2-0.2-0.3c-0.1-0.1-0.1-0.2-0.2-0.2c-0.1-0.1-0.2-0.2-0.3-0.2c-0.1-0.1-0.2-0.1-0.2-0.2c-0.1-0.1-0.2-0.1-0.3-0.2
			c-0.1,0-0.2-0.1-0.2-0.1c-0.1-0.1-0.3-0.1-0.4-0.1c-0.1,0-0.1,0-0.2-0.1c-0.1,0-0.3,0-0.4-0.1c-0.1,0-0.1,0-0.2,0
			c-0.1,0-0.3,0-0.4,0c-0.1,0-0.2,0-0.2,0c-0.1,0-0.3,0.1-0.4,0.1c-0.1,0-0.1,0-0.2,0.1l-10.1,3.9l-4-9.5c0-0.1-0.1-0.1-0.1-0.2
			c-0.1-0.1-0.1-0.2-0.2-0.3c-0.1-0.1-0.1-0.2-0.2-0.2c-0.1-0.1-0.1-0.2-0.2-0.3c-0.1-0.1-0.2-0.1-0.3-0.2c-0.1-0.1-0.1-0.1-0.2-0.2
			c-0.1-0.1-0.2-0.1-0.3-0.2c-0.1,0-0.2-0.1-0.2-0.1c-0.1-0.1-0.2-0.1-0.4-0.1c-0.1,0-0.2-0.1-0.2-0.1c-0.1,0-0.3,0-0.4-0.1
			c-0.1,0-0.2,0-0.2,0c-0.1,0-0.3,0-0.4,0c-0.1,0-0.2,0-0.3,0c-0.1,0-0.2,0.1-0.3,0.1c-0.1,0-0.2,0-0.3,0.1l-10,3.8l-4.1-9.6
			c0,0,0,0,0-0.1c0,0,0,0,0,0c0-0.1-0.1-0.1-0.1-0.2c-0.1-0.1-0.1-0.2-0.2-0.3c-0.1-0.1-0.1-0.2-0.2-0.2c-0.1-0.1-0.1-0.2-0.2-0.2
			c-0.1-0.1-0.2-0.2-0.3-0.2c-0.1-0.1-0.1-0.1-0.2-0.2c-0.1-0.1-0.2-0.1-0.4-0.2c-0.1,0-0.1-0.1-0.2-0.1c-0.1-0.1-0.3-0.1-0.4-0.1
			c-0.1,0-0.1,0-0.2-0.1c-0.1,0-0.3,0-0.4,0c-0.1,0-0.1,0-0.2,0c-0.1,0-0.3,0-0.4,0c-0.1,0-0.2,0-0.3,0c-0.1,0-0.2,0.1-0.3,0.1
			c-0.1,0-0.2,0-0.3,0.1c0,0,0,0-0.1,0c0,0,0,0,0,0l-9.7,4.5l-4-9.9c0,0,0,0,0,0c0,0,0,0,0,0c0-0.1-0.1-0.2-0.1-0.2
			c-0.1-0.1-0.1-0.2-0.2-0.3c-0.1-0.1-0.1-0.2-0.2-0.2c-0.1-0.1-0.1-0.2-0.2-0.3c-0.1-0.1-0.2-0.1-0.2-0.2c-0.1-0.1-0.2-0.1-0.3-0.2
			c-0.1,0-0.2-0.1-0.2-0.1c-0.1-0.1-0.2-0.1-0.3-0.2c-0.1,0-0.1,0-0.2-0.1c-0.1,0-0.3-0.1-0.4-0.1c-0.1,0-0.1,0-0.2,0
			c-0.2,0-0.3,0-0.5,0c-0.1,0-0.1,0-0.2,0c-0.2,0-0.3,0-0.5,0.1c-0.1,0-0.2,0-0.2,0.1c-0.1,0-0.2,0.1-0.3,0.1c0,0,0,0,0,0
			c0,0,0,0,0,0l-10.1,4.5l-4.3-10.5c0-0.1-0.1-0.2-0.1-0.3c0-0.1-0.1-0.2-0.1-0.3c-0.1-0.1-0.1-0.2-0.2-0.3
			c-0.1-0.1-0.1-0.1-0.2-0.2c-0.1-0.1-0.2-0.2-0.3-0.3c-0.1-0.1-0.1-0.1-0.2-0.2c-0.1-0.1-0.2-0.1-0.3-0.2c-0.1,0-0.1-0.1-0.2-0.1
			c-0.1-0.1-0.2-0.1-0.4-0.1c-0.1,0-0.2-0.1-0.2-0.1c-0.1,0-0.3,0-0.4-0.1c-0.1,0-0.2,0-0.3,0c-0.1,0-0.3,0-0.4,0
			c-0.1,0-0.2,0-0.3,0c-0.1,0-0.2,0.1-0.4,0.1c-0.1,0-0.2,0-0.2,0.1l-9.2,3.4l-4.3-9.6c0,0,0,0,0,0c0,0,0,0,0,0l0-0.1
			c0-0.1-0.1-0.1-0.1-0.2c-0.1-0.1-0.1-0.2-0.2-0.3c-0.1-0.1-0.1-0.2-0.2-0.2c-0.1-0.1-0.1-0.2-0.2-0.3c-0.1-0.1-0.2-0.1-0.3-0.2
			c-0.1-0.1-0.2-0.1-0.3-0.2c-0.1-0.1-0.2-0.1-0.3-0.2c-0.1,0-0.2-0.1-0.2-0.1c-0.1,0-0.2-0.1-0.4-0.1c-0.1,0-0.2-0.1-0.2-0.1
			c-0.1,0-0.3,0-0.4,0c-0.1,0-0.2,0-0.2,0c-0.1,0-0.3,0-0.4,0c-0.1,0-0.2,0-0.3,0c-0.1,0-0.2,0.1-0.3,0.1c-0.1,0-0.2,0-0.3,0.1
			l-9.5,4l-4.4-9.8c0-0.1-0.1-0.2-0.1-0.2c-0.1-0.1-0.1-0.2-0.2-0.3c-0.1-0.1-0.1-0.2-0.2-0.2c-0.1-0.1-0.1-0.2-0.2-0.2
			c-0.1-0.1-0.2-0.1-0.2-0.2c-0.1-0.1-0.2-0.1-0.3-0.2c-0.1-0.1-0.2-0.1-0.2-0.1c-0.1-0.1-0.2-0.1-0.3-0.2c-0.1,0-0.2,0-0.2-0.1
			c-0.1,0-0.3-0.1-0.4-0.1c-0.1,0-0.1,0-0.2,0c-0.1,0-0.3,0-0.4,0c-0.1,0-0.1,0-0.2,0c-0.1,0-0.3,0-0.4,0.1c-0.1,0-0.2,0.1-0.3,0.1
			c-0.1,0-0.2,0-0.3,0.1l-10.1,4.1l-4.9-10c0-0.1-0.1-0.1-0.1-0.2c-0.1-0.1-0.1-0.2-0.2-0.3c-0.1-0.1-0.1-0.2-0.2-0.3
			c-0.1-0.1-0.1-0.2-0.2-0.2c-0.1-0.1-0.2-0.1-0.2-0.2c-0.1-0.1-0.2-0.1-0.3-0.2c-0.1-0.1-0.2-0.1-0.2-0.1c-0.1-0.1-0.2-0.1-0.3-0.2
			c-0.1,0-0.2-0.1-0.2-0.1c-0.1,0-0.3-0.1-0.4-0.1c-0.1,0-0.2,0-0.2,0c-0.1,0-0.3,0-0.4,0c-0.1,0-0.2,0-0.2,0c-0.1,0-0.3,0-0.4,0.1
			c-0.1,0-0.2,0.1-0.3,0.1c-0.1,0-0.1,0-0.2,0.1l-6.3,2.5c-1.7,0.7-2.5,2.6-1.9,4.3c0.1,0.4,0.4,0.7,0.6,1l18.6,44.3l-0.1,4
			l-8.9,3.5c0,0-0.1,0-0.1,0c0,0-0.1,0-0.1,0c-0.1,0-0.1,0.1-0.2,0.1c-0.1,0.1-0.2,0.1-0.3,0.2c-0.1,0.1-0.2,0.1-0.2,0.2
			c-0.1,0.1-0.2,0.1-0.3,0.2c-0.1,0.1-0.1,0.2-0.2,0.2c-0.1,0.1-0.1,0.2-0.2,0.3c-0.1,0.1-0.1,0.2-0.1,0.3c-0.1,0.1-0.1,0.2-0.1,0.3
			c0,0.1-0.1,0.2-0.1,0.3c0,0.1-0.1,0.2-0.1,0.3c0,0.1,0,0.2,0,0.3c0,0.1,0,0.2,0,0.3c0,0.1,0,0.2,0,0.3c0,0.1,0,0.2,0,0.3
			c0,0.1,0.1,0.2,0.1,0.3c0,0.1,0,0.2,0.1,0.3c0,0,0,0,0,0.1c0,0,0,0.1,0,0.1l3.1,6.8l0.1,4.2l-10.8,4l-4.1-9.7
			c0-0.1-0.1-0.1-0.1-0.2c-0.1-0.1-0.1-0.2-0.2-0.3c-0.1-0.1-0.1-0.2-0.2-0.3c-0.1-0.1-0.1-0.2-0.2-0.2c-0.1-0.1-0.2-0.2-0.3-0.3
			c-0.1,0-0.1-0.1-0.2-0.1c-0.1-0.1-0.2-0.2-0.4-0.2c-0.1,0-0.1-0.1-0.2-0.1c-0.1-0.1-0.3-0.1-0.4-0.1c-0.1,0-0.1,0-0.2-0.1
			c-0.1,0-0.3,0-0.4-0.1c-0.1,0-0.1,0-0.2,0c-0.1,0-0.3,0-0.4,0c-0.1,0-0.2,0-0.3,0c-0.1,0-0.2,0.1-0.3,0.1c-0.1,0-0.2,0-0.2,0.1
			l-9.9,3.6l-27.1-66.6l8.8-3.7c0.1,0,0.2-0.1,0.3-0.1c0.1-0.1,0.2-0.1,0.3-0.2c0.1-0.1,0.1-0.1,0.2-0.2c0.1-0.1,0.2-0.2,0.3-0.2
			c0.1-0.1,0.1-0.1,0.2-0.2c0.1-0.1,0.2-0.2,0.2-0.3c0-0.1,0.1-0.1,0.1-0.2c0.1-0.1,0.1-0.2,0.2-0.3c0-0.1,0.1-0.2,0.1-0.2
			c0-0.1,0.1-0.2,0.1-0.4c0-0.1,0-0.2,0-0.3c0-0.1,0-0.2,0-0.4c0-0.1,0-0.2,0-0.3c0-0.1,0-0.2,0-0.4c0-0.1-0.1-0.2-0.1-0.3
			c0-0.1,0-0.2-0.1-0.3l-13.8-34.2l35.1-14.7c0.2-0.1,0.4-0.2,0.6-0.3c0.2,0,0.4-0.1,0.6-0.2c1.7-0.7,2.5-2.7,1.8-4.4l-4.1-9.7
			l61.9-25.5l4.4,9.8c0.1,0.2,0.2,0.3,0.3,0.4c0.1,0.1,0.1,0.3,0.2,0.4c0.1,0.1,0.3,0.2,0.4,0.4c0.1,0.1,0.2,0.2,0.3,0.3
			c0.2,0.1,0.4,0.2,0.5,0.3c0.1,0,0.2,0.1,0.3,0.1c0.3,0.1,0.6,0.1,0.9,0.1c0.2,0,0.4,0,0.7-0.1c0.1,0,0.1,0,0.2-0.1
			c0.1,0,0.3-0.1,0.4-0.1l10.6-4.3l5.1,11.5l-0.1,3.9l-8.9,3.5c0,0,0,0-0.1,0c0,0,0,0-0.1,0c-0.1,0-0.1,0.1-0.2,0.1
			c-0.1,0.1-0.2,0.1-0.3,0.2c-0.1,0.1-0.2,0.1-0.2,0.2c-0.1,0.1-0.2,0.1-0.3,0.2c-0.1,0.1-0.1,0.2-0.2,0.2c-0.1,0.1-0.1,0.2-0.2,0.3
			c-0.1,0.1-0.1,0.2-0.2,0.3c0,0.1-0.1,0.2-0.1,0.3c0,0.1-0.1,0.2-0.1,0.3c0,0.1-0.1,0.2-0.1,0.3c0,0.1,0,0.2,0,0.3
			c0,0.1,0,0.2,0,0.3c0,0.1,0,0.2,0,0.3c0,0.1,0,0.2,0,0.3c0,0.1,0.1,0.2,0.1,0.3c0,0.1,0,0.2,0.1,0.3c0,0,0,0,0,0.1
			c0,0,0,0.1,0,0.1l3.3,7.3l0.2,2.4l-48.5,20.5c0,0,0,0,0,0c0,0,0,0,0,0c-0.1,0-0.2,0.1-0.3,0.1c-0.1,0.1-0.2,0.1-0.3,0.2
			c-0.1,0.1-0.2,0.1-0.3,0.2c-0.1,0.1-0.2,0.1-0.2,0.2c-0.1,0.1-0.1,0.2-0.2,0.3c-0.1,0.1-0.1,0.2-0.2,0.2c-0.1,0.1-0.1,0.2-0.2,0.3
			c0,0.1-0.1,0.2-0.1,0.3c0,0.1-0.1,0.2-0.1,0.3s-0.1,0.2-0.1,0.3c0,0.1,0,0.2,0,0.3c0,0.1,0,0.2,0,0.3c0,0.1,0,0.2,0,0.3
			c0,0.1,0,0.2,0,0.3c0,0.1,0.1,0.2,0.1,0.3c0,0.1,0,0.2,0.1,0.3c0,0,0,0,0,0c0,0,0,0,0,0.1l1.4,3.2c0.1,0.2,0.2,0.3,0.3,0.5
			c0.1,0.1,0.1,0.2,0.2,0.3c0.1,0.1,0.3,0.3,0.4,0.4c0.1,0.1,0.2,0.2,0.3,0.3c0.2,0.1,0.4,0.2,0.5,0.3c0.1,0,0.2,0.1,0.3,0.1
			c0.3,0.1,0.6,0.1,0.9,0.1c0.2,0,0.4,0,0.7-0.1c0.1,0,0.2-0.1,0.3-0.1c0.1,0,0.2-0.1,0.4-0.1l0.1,0c0,0,0,0,0,0c0,0,0,0,0,0
			l9.8-4.1l4.5,10.3c0,0,0,0,0,0c0,0,0,0,0,0c0.1,0.1,0.1,0.2,0.2,0.3c0.1,0.2,0.2,0.4,0.3,0.5c0.1,0.1,0.2,0.2,0.3,0.3
			c0.1,0.1,0.3,0.3,0.4,0.3c0.1,0.1,0.3,0.1,0.5,0.2c0.1,0.1,0.3,0.1,0.4,0.2c0.3,0.1,0.6,0.1,0.9,0.1c0.2,0,0.4,0,0.7-0.1
			c0.1,0,0.1,0,0.2-0.1c0.2,0,0.3-0.1,0.5-0.1c0,0,0,0,0,0c0,0,0,0,0,0l9.3-4.1l4.8,10.3c0.6,1.2,1.8,1.9,3,1.9
			c0.5,0,0.9-0.1,1.4-0.3l10.1-4.7l3.8,9.5c0,0,0,0,0,0c0,0,0,0,0,0c0.1,0.2,0.2,0.3,0.3,0.5c0.1,0.1,0.1,0.3,0.2,0.4
			c0.1,0.2,0.3,0.3,0.5,0.4c0.1,0.1,0.2,0.2,0.3,0.2c0.2,0.1,0.4,0.2,0.6,0.3c0.1,0,0.2,0.1,0.2,0.1c0.3,0.1,0.6,0.1,1,0.1
			c0.2,0,0.4,0,0.6-0.1c0.1,0,0.1,0,0.2-0.1c0.1,0,0.3-0.1,0.4-0.1c0,0,0,0,0,0c0,0,0,0,0,0l10-4.2l4.4,10.4
			c0.3,0.7,0.9,1.3,1.6,1.6c0.5,0.4,1.2,0.6,1.8,0.6c0.5,0,0.9-0.1,1.4-0.3l8.9-4.1l4.3,9.7c0.1,0.2,0.2,0.3,0.3,0.4
			c0.1,0.1,0.1,0.3,0.2,0.4c0.1,0.2,0.3,0.3,0.4,0.4c0.1,0.1,0.2,0.2,0.3,0.2c0.2,0.1,0.4,0.2,0.6,0.3c0.1,0,0.2,0.1,0.3,0.1
			c0.3,0.1,0.6,0.1,1,0.1c0.2,0,0.4,0,0.6-0.1c0.1,0,0.2-0.1,0.2-0.1c0.1,0,0.2-0.1,0.3-0.1l9.5-3.8l4.6,9.4
			c0.1,0.1,0.2,0.2,0.3,0.4c0.1,0.1,0.1,0.2,0.2,0.3c0.1,0.1,0.3,0.3,0.4,0.4c0.1,0.1,0.2,0.2,0.3,0.2c0.2,0.1,0.4,0.2,0.6,0.3
			c0.1,0,0.2,0.1,0.3,0.1c0.3,0.1,0.6,0.1,0.9,0.1c0,0,0,0,0,0c0,0,0,0,0,0c0,0,0,0,0,0c0,0,0,0,0,0c0.2,0,0.4,0,0.7-0.1
			c0.1,0,0.1,0,0.2-0.1c0.1,0,0.2-0.1,0.3-0.1l9.5-3.8l4.5,9.8c0.1,0.2,0.2,0.3,0.3,0.4c0.1,0.1,0.1,0.2,0.2,0.4
			c0.1,0.2,0.3,0.3,0.4,0.4c0.1,0.1,0.2,0.2,0.3,0.2c0.2,0.1,0.4,0.2,0.6,0.3c0.1,0,0.2,0.1,0.3,0.1c0.3,0.1,0.6,0.1,0.9,0.1
			c0.2,0,0.4,0,0.7-0.1c0.1,0,0.2,0,0.2-0.1c0.1,0,0.2-0.1,0.4-0.1l10.3-4.1l10.4,24l-0.1,4L527.3,439.3z"/>
	</g>
</g>
</svg>
